<svg width="418" height="157" viewBox="0 0 418 157" fill="none" xmlns="http://www.w3.org/2000/svg">
<path d="M146.511 71.9987V28.1968H153.707V71.9987H146.511ZM163.193 71.9987V28.1968H168.199L170.389 36.4566V71.9987H163.193ZM193.541 71.9987L167.323 37.7706L168.199 28.1968L194.417 62.4249L193.541 71.9987ZM193.541 71.9987L191.351 64.3021V28.1968H198.547V71.9987H193.541ZM219.059 71.9987V29.4483H226.255V71.9987H219.059ZM204.792 34.7671V28.1968H240.522V34.7671H204.792ZM246.788 71.9987V28.1968H253.984V71.9987H246.788ZM251.731 71.9987V65.4284H276.261V71.9987H251.731ZM251.731 52.7884V46.4684H274.133V52.7884H251.731ZM251.731 34.7671V28.1968H275.948V34.7671H251.731ZM302.615 72.6245C299.611 72.6245 296.775 72.0404 294.105 70.8724C291.435 69.7043 289.099 68.0983 287.097 66.0542C285.094 63.9684 283.509 61.5697 282.341 58.8581C281.215 56.1049 280.652 53.1639 280.652 50.0352C280.652 46.9065 281.215 43.9863 282.341 41.2748C283.509 38.5632 285.094 36.1854 287.097 34.1413C289.141 32.0555 291.519 30.4495 294.23 29.3231C296.983 28.1551 299.945 27.571 303.116 27.571C306.578 27.571 309.79 28.2385 312.752 29.5734C315.714 30.9083 318.196 32.8064 320.198 35.2677L315.318 40.1485C314.024 38.3129 312.293 36.9155 310.124 35.956C307.955 34.9548 305.619 34.4542 303.116 34.4542C300.112 34.4542 297.463 35.1217 295.169 36.4566C292.916 37.7498 291.164 39.5644 289.912 41.9005C288.661 44.2366 288.035 46.9482 288.035 50.0352C288.035 53.1222 288.661 55.8546 289.912 58.2324C291.206 60.5685 292.937 62.404 295.106 63.7389C297.275 65.0738 299.737 65.7413 302.49 65.7413C305.41 65.7413 307.913 65.2198 309.999 64.1769C312.126 63.0923 313.753 61.5071 314.88 59.4213C316.006 57.2938 316.569 54.6865 316.569 51.5995L321.074 54.8534H302.365V48.2831H324.015V49.2843C324.015 54.4988 323.077 58.8373 321.2 62.2997C319.364 65.7622 316.84 68.3486 313.628 70.0589C310.416 71.7693 306.745 72.6245 302.615 72.6245ZM331.178 71.9987V28.1968H338.374V71.9987H331.178ZM336.121 71.9987V65.4284H360.65V71.9987H336.121ZM336.121 52.7884V46.4684H358.523V52.7884H336.121ZM336.121 34.7671V28.1968H360.337V34.7671H336.121ZM373.03 53.4142V47.4696H384.106C386.317 47.4696 388.027 46.9065 389.237 45.7801C390.488 44.6121 391.114 43.006 391.114 40.9619C391.114 39.1264 390.509 37.5829 389.299 36.3314C388.09 35.0799 386.379 34.4542 384.168 34.4542H373.03V28.1968H384.481C387.234 28.1968 389.654 28.7599 391.74 29.8863C393.826 30.9709 395.432 32.4727 396.558 34.3916C397.726 36.2688 398.31 38.4172 398.31 40.8368C398.31 43.3815 397.726 45.5924 396.558 47.4696C395.432 49.3469 393.826 50.8069 391.74 51.8498C389.654 52.8927 387.234 53.4142 384.481 53.4142H373.03ZM368.087 71.9987V28.1968H375.283V71.9987H368.087ZM392.115 71.9987L376.785 52.9762L383.48 50.5358L401.188 71.9987H392.115ZM146.738 130.999V85.0997H151.984L171.065 116.508H167.655L186.736 85.0997H191.982V130.999H184.441V98.3449L186.146 98.8038L171.983 122.081H166.737L152.574 98.8038L154.279 98.3449V130.999H146.738ZM198.525 130.999L217.409 85.0997H222.655L241.408 130.999H233.277L218.59 93.8205H221.344L206.525 130.999H198.525ZM207.836 122.147V115.59H232.163V122.147H207.836ZM252.642 111.524V105.295H264.248C266.565 105.295 268.357 104.705 269.625 103.525C270.936 102.301 271.592 100.618 271.592 98.476C271.592 96.5526 270.958 94.9352 269.691 93.6238C268.423 92.3124 266.631 91.6567 264.314 91.6567H252.642V85.0997H264.642C267.527 85.0997 270.062 85.6898 272.248 86.8701C274.434 88.0067 276.117 89.5803 277.297 91.5911C278.521 93.5582 279.133 95.8095 279.133 98.3449C279.133 101.011 278.521 103.328 277.297 105.295C276.117 107.262 274.434 108.792 272.248 109.885C270.062 110.978 267.527 111.524 264.642 111.524H252.642ZM247.462 130.999V85.0997H255.003V130.999H247.462ZM272.641 130.999L256.577 111.065L263.593 108.508L282.149 130.999H272.641ZM315.475 130.999L294.231 107.066L315.016 85.0997H324.655L301.706 108.967V104.836L325.311 130.999H315.475ZM287.739 130.999V85.0997H295.28V130.999H287.739ZM330.642 130.999V85.0997H338.182V130.999H330.642ZM335.822 130.999V124.114H361.525V130.999H335.822ZM335.822 110.869V104.246H359.296V110.869H335.822ZM335.822 91.9846V85.0997H361.197V91.9846H335.822ZM379.257 130.999V86.4111H386.798V130.999H379.257ZM364.307 91.9846V85.0997H401.748V91.9846H364.307Z" fill="black"/>
<path d="M61.8144 19.6726C65.6769 17.4426 70.4357 17.4426 74.2982 19.6726L115.871 43.6745C119.733 45.9045 122.113 50.0258 122.113 54.4858V102.49C122.113 106.95 119.733 111.071 115.871 113.301L74.2982 137.303C70.4357 139.533 65.6769 139.533 61.8144 137.303L20.2419 113.301C16.3794 111.071 14 106.95 14 102.49V54.4858C14 50.0258 16.3794 45.9045 20.2419 43.6745L61.8144 19.6726Z" fill="#E27C60"/>
<line x1="52.0986" y1="69.5714" x2="52.0986" y2="84.4807" stroke="white" stroke-width="8" stroke-linecap="round"/>
<line x1="62.746" y1="62.282" x2="62.746" y2="84.4497" stroke="white" stroke-width="8" stroke-linecap="round"/>
<line x1="73.3936" y1="72.9294" x2="73.3936" y2="84.4497" stroke="white" stroke-width="8" stroke-linecap="round"/>
<circle cx="63.1979" cy="74.4227" r="28.802" stroke="white" stroke-width="8"/>
<line x1="84.9956" y1="96.8114" x2="95.9066" y2="107.722" stroke="white" stroke-width="8" stroke-linecap="round"/>
</svg>
