<?xml version="1.0" encoding="UTF-8"?>
<svg id="Layer_1" xmlns="http://www.w3.org/2000/svg" version="1.1" viewBox="0 0 1080 744">
  <!-- Generator: Adobe Illustrator 29.5.1, SVG Export Plug-In . SVG Version: 2.1.0 Build 141)  -->
  <defs>
    <style>
      .st0 {
        fill: #626466;
      }

      .st1 {
        fill: #828137;
      }
    </style>
  </defs>
  <path class="st1" d="M56.7,707.2c-10.4,0-19.3-3.7-26.2-10.9-7-7.3-10.5-16.9-10.5-28.7s1.8-14.9,5.3-20.9c3.5-6,8.1-10.5,13.5-13.4,5.4-2.9,11.4-4.4,17.7-4.4,10,0,17.5,2.9,22.4,8.6v-6c-.2-.5,0-1,.3-1.4.3-.4.9-.6,1.6-.6h5.9c1.3,0,2.1.7,2.1,2v21.7c0,1.2-.8,2-2.1,2h-6.6c-1.2,0-2-.7-2-2v-1.3c0-2.8-2-5.7-6.1-8.6-4.1-2.9-9.4-4.4-15.8-4.4s-12.2,2.7-17.3,7.9c-5.1,5.3-7.7,12.4-7.7,21.3s2.6,15.9,7.8,21.1c5.2,5.1,11,7.7,17.4,7.7s11.6-1,15.3-3.1c3.6-2,6.4-4.4,8.2-7.1v-7.3h-18.9c-1.2,0-2-.8-2-2.1v-4.8c0-1.2.7-2,2-2h27.2c1.2,0,2,.7,2,2v31.9c0,1.2-.7,2-2,2h-5.6c-1.3,0-2.1-.7-2.1-2v-5.6c-6.1,5.5-14.1,8.3-23.9,8.3"/>
  <path class="st1" d="M128.3,661.3c-4.6,0-8.5,1.7-11.8,5.1-3.3,3.4-5,7.9-5,13.4s1.6,10.1,4.9,13.5c3.2,3.4,7.2,5.1,11.8,5.1s8.6-1.7,11.8-5.1c3.2-3.4,4.9-8,4.9-13.5s-1.7-10-4.9-13.4c-3.2-3.3-7.2-5-11.7-5M128.2,707.2c-7.8,0-14.3-2.5-19.3-7.5-5-5-7.6-11.7-7.6-20s2.6-14.9,7.7-19.8c5.1-4.9,11.6-7.3,19.3-7.3s14.2,2.5,19.2,7.4c5.1,4.9,7.6,11.6,7.6,19.8s-2.5,14.9-7.6,19.9c-5,5-11.5,7.6-19.3,7.6"/>
  <path class="st1" d="M191.5,661.3c-4.6,0-8.5,1.7-11.8,5.1-3.3,3.4-5,7.9-5,13.4s1.6,10.1,4.9,13.5c3.2,3.4,7.2,5.1,11.8,5.1s8.6-1.7,11.8-5.1c3.2-3.4,4.9-8,4.9-13.5s-1.7-10-4.9-13.4c-3.2-3.3-7.2-5-11.7-5M191.4,707.2c-7.8,0-14.3-2.5-19.3-7.5-5-5-7.6-11.7-7.6-20s2.6-14.9,7.7-19.8c5.1-4.9,11.6-7.3,19.3-7.3s14.2,2.5,19.2,7.4c5.1,4.9,7.6,11.6,7.6,19.8s-2.5,14.9-7.6,19.9c-5,5-11.5,7.6-19.3,7.6"/>
  <path class="st1" d="M253.1,661.3c-4.3,0-8,1.7-11,4.9-3,3.3-4.5,7.8-4.5,13.4s1.5,10.2,4.4,13.6c2.9,3.4,6.6,5.1,11.1,5.1s8.2-1.7,11-5.1c2.9-3.4,4.4-8,4.4-13.7s-1.5-10.2-4.5-13.5c-2.9-3.2-6.6-4.9-10.9-4.9M252,707.2c-7.2,0-13.1-2.6-17.6-7.6-4.5-5-6.8-11.7-6.8-19.8s2.3-14.7,6.8-19.7c4.5-5,10.5-7.5,17.7-7.5s8.3,1,11.2,3.1c2.1,1.5,3.8,3.2,5.1,5.1v-22.8h-5.2c-1.3,0-2.1-.7-2.1-2v-4.5c0-1.2.8-2,2.1-2h13.1c1.2,0,2,.7,2,2v66.5h5.2c1.2,0,2,.7,2,2v4.5c0,1.2-.7,2-2,2h-9.2c-1.8,0-3.1-.4-4-1.2-.9-.8-1.3-2.1-1.3-3.9v-3.1c-1.3,2-3,3.9-5.3,5.5-3.2,2.3-7.1,3.4-11.7,3.4"/>
  <path class="st1" d="M369.7,638.6c-6.7,0-12.8,2.6-18.1,7.7-5.3,5.1-8,12.4-8,21.5s2.6,16.4,7.8,21.6c5.2,5.2,11.4,7.8,18.3,7.8s13.1-2.6,18.2-7.8c5.2-5.2,7.8-12.5,7.8-21.6s-2.7-16.3-7.9-21.5c-5.3-5.1-11.4-7.7-18.1-7.7M369.7,707.2c-10.6,0-19.6-3.7-26.8-11.1-7.1-7.4-10.7-17-10.7-28.6s3.7-21.1,11-28.1c7.3-7,16.2-10.6,26.4-10.6s19,3.5,26.3,10.6c7.3,7,10.9,16.5,10.9,28.2s-3.5,21.3-10.6,28.6c-7,7.3-16,11-26.6,11"/>
  <path class="st1" d="M440,706.5h-20.1c-1.3,0-2.1-.7-2.1-2v-4.5c0-1.2.8-2,2.1-2h5.1v-60h-5.1c-1.3,0-2.1-.7-2.1-2v-4.5c0-1.2.8-2,2.1-2h11.7c2.3,0,3.5,1.2,3.5,3.3v65.2h4.9c1.3,0,2.1.7,2.1,2v4.5c0,1.2-.8,2-2.1,2"/>
  <path class="st1" d="M476.7,661.3c-4.3,0-8,1.7-11,4.9-3,3.3-4.5,7.8-4.5,13.4s1.5,10.2,4.4,13.6c2.9,3.4,6.6,5.1,11.1,5.1s8.2-1.7,11-5.1c2.9-3.4,4.4-8,4.4-13.7s-1.5-10.2-4.4-13.5c-2.9-3.2-6.6-4.9-10.9-4.9M475.5,707.2c-7.2,0-13.1-2.6-17.6-7.6-4.5-5-6.8-11.7-6.8-19.8s2.3-14.7,6.8-19.7c4.5-5,10.5-7.5,17.7-7.5s8.3,1,11.2,3.1c2.1,1.5,3.8,3.2,5.1,5.1v-22.8h-5.2c-1.3,0-2.1-.7-2.1-2v-4.5c0-1.2.8-2,2.1-2h13c1.2,0,2,.7,2,2v66.5h5.2c1.2,0,2,.7,2,2v4.5c0,1.2-.7,2-2,2h-9.1c-1.8,0-3.1-.4-4-1.2-.9-.8-1.3-2.1-1.3-3.9v-3.1c-1.3,2-3,3.9-5.3,5.5-3.2,2.3-7.1,3.4-11.7,3.4"/>
  <path class="st1" d="M583.4,671.7h21.7l-10.8-28.9-10.9,28.9ZM632.3,706.5h-23.8c-1.2,0-2-.7-2-2v-5.4c0-1.2.7-2,2-2h6.3l-6.3-16.8h-28.4l-6.3,16.8h6.3c1.2,0,2,.7,2,2v5.4c0,1.2-.7,2-2,2h-23.7c-1.2,0-2-.7-2-2v-5.4c0-1.2.7-2,2-2h6.6l22.1-58.3h-4.7c-1.3,0-2.1-.7-2.1-2v-5.4c0-1.2.8-2,2.1-2h14.3c1.8,0,3.3.4,4.3,1.2,1,.8,1.8,2,2.5,3.8l24,62.7h6.7c1.2,0,2,.7,2,2v5.4c0,1.2-.7,2-2,2"/>
  <path class="st1" d="M647.8,731.1c-4.5,0-8.4-1.4-11.6-4.3-1.4-1.4-.7-2.5-.4-2.9l2.6-3.3c1-.8,2-.9,2.8-.3,1.6,1.3,3.5,1.9,5.6,1.9s3.8-.7,5.2-2.2c1.4-1.5,2.8-4.1,4.2-7.9l2.5-6.8h-.4c-1.4,0-2.6-1-3.4-3.1l-15.9-40.5h-5.3c-1.2,0-2-.7-2-2v-4.5c0-1.2.7-2,2-2h19c1.3,0,2.1.7,2.1,2v4.5c0,1.2-.8,2-2.1,2h-3.3l12.6,33.2,11.7-33.2h-3.7c-1.2,0-2-.7-2-2v-4.5c0-1.2.7-2,2-2h19.6c1.2,0,2,.7,2,2v4.5c0,1.2-.7,2-2,2h-5.4l-18.6,51c-2.3,6.3-4.8,11-7.3,13.9-2.6,3-6.2,4.5-10.7,4.5"/>
  <path class="st1" d="M724.4,707.2c-5.8,0-10.4-1.7-13.8-5.2-3.4-3.5-5.1-8.1-5.2-13.8v-26.4h-5.3c-1.2,0-2-.7-2-2v-4.5c0-1.2.7-2,2-2h10.1c3.4,0,5.2,1.8,5.2,5.1v27.7c0,3.9.9,6.9,2.8,9,1.8,2.1,4.5,3.1,8.1,3.1s8.7-1.8,11.5-5.4c1.7-2.1,1.7-2.7,1.7-2.8v-28.2h-5c-1.2,0-2-.7-2-2v-4.5c0-1.2.7-2,2-2h13c1.2,0,2,.7,2,2v42.7h5.2c1.3,0,2.1.7,2.1,2v4.5c0,1.2-.8,2-2.1,2h-9.2c-3.4,0-5.2-1.8-5.2-5.1v-1.7c-3.2,5-8.6,7.6-16,7.6"/>
  <path class="st1" d="M788.5,706.5h-20.1c-1.3,0-2.1-.7-2.1-2v-4.5c0-1.2.8-2,2.1-2h5.1v-36.3h-5.1c-1.3,0-2.1-.7-2.1-2v-4.5c0-1.2.8-2,2.1-2h12.3c1.3,0,2.1.7,2.1,2v10.2c.3-.6.7-1.3,1.2-2.1,1.3-2,2.7-3.7,4.3-5.1,1.6-1.4,3.9-2.6,6.7-3.6,2.9-1.1,6.2-1.6,9.9-1.6s2.1.8,2.1,2.1v5.6c0,1.3-.8,2.1-2.1,2.1h-2.2c-5.8,0-10.5,1.9-13.9,5.6-3.4,3.7-5.2,8-5.2,12.7v17h4.9c1.3,0,2.1.7,2.1,2v4.5c0,1.2-.8,2-2.1,2"/>
  <path class="st1" d="M844.8,706.5h-7.1c-.9,0-1.5-.2-1.9-.5-.4-.3-.7-.9-1-1.8l-16.6-42.3h-5.4c-1.2,0-2-.7-2-2v-4.5c0-1.2.7-2,2-2h19.6c1.2,0,2,.7,2,2v4.5c0,1.2-.7,2-2,2h-3.6l12.6,33,12.7-33h-3.7c-1.2,0-2-.7-2-2v-4.5c0-1.2.7-2,2-2h19.6c1.3,0,2.1.7,2.1,2v4.5c0,1.2-.8,2-2.1,2h-5.3l-16.8,42.4c-.6,1.9-2,2.3-3.1,2.3"/>
  <path class="st1" d="M887.2,673.8h28.8c-.3-3.8-1.6-6.9-3.9-9.2h0c-2.4-2.5-5.5-3.7-9.6-3.7s-7.5,1.2-10.4,3.4c-2.7,2.1-4.4,5.3-5,9.5M903.1,707.2c-7.5,0-13.9-2.5-19-7.5-5.1-5-7.6-11.7-7.6-20s2.5-15,7.6-19.9c5-4.8,11.3-7.3,18.5-7.3s13.1,2.4,17.3,7.1c4.2,4.7,6.3,11.1,6.3,19v.8c0,1.3-.8,2.1-2.2,2.1h-37.1c.4,5.2,2.2,9.4,5.3,12.2,3.2,3,7,4.5,11,4.5s7.7-.9,10.6-2.6c2.9-1.8,4.9-3.5,5.9-5.1.8-1.1,1.9-1.2,2.9-.5l2.9,2.9c.6.6.8,1.1.8,1.6s-.2,1-.6,1.6c-.3.5-1,1.3-2,2.4-1,1.1-2.5,2.3-4.3,3.7-1.8,1.4-4.2,2.5-7.1,3.5-2.9.9-6,1.4-9.3,1.4"/>
  <path class="st1" d="M961.8,661.3c-4.3,0-8,1.7-11,4.9-3,3.3-4.5,7.8-4.5,13.4s1.5,10.2,4.4,13.6c2.9,3.4,6.6,5.1,11.1,5.1s8.2-1.7,11-5.1c2.9-3.4,4.3-8,4.3-13.7s-1.5-10.2-4.4-13.5c-2.9-3.2-6.6-4.9-10.9-4.9M960.6,707.2c-7.2,0-13.1-2.6-17.6-7.6-4.5-5-6.8-11.7-6.8-19.8s2.3-14.7,6.8-19.7c4.5-5,10.5-7.5,17.7-7.5s8.3,1,11.2,3.1c2.1,1.5,3.8,3.2,5.1,5.1v-22.8h-5.2c-1.3,0-2.1-.7-2.1-2v-4.5c0-1.2.8-2,2.1-2h13.1c1.2,0,2,.7,2,2v66.5h5.2c1.2,0,2,.7,2,2v4.5c0,1.2-.7,2-2,2h-9.2c-1.8,0-3.1-.4-4-1.2-.9-.8-1.3-2.1-1.3-3.9v-3.1c-1.2,2-3,3.9-5.3,5.5-3.2,2.3-7.1,3.4-11.7,3.4"/>
  <path class="st1" d="M1033.2,682.3c-4,0-7.3.2-10,.6-2.6.4-4.7,1.3-6.5,2.6-1.7,1.3-2.5,3-2.5,5.2s.9,4,2.7,5.5c1.8,1.5,4.3,2.2,7.4,2.2,6.5,0,12-2.9,16.5-8.6v-7.6h-7.6ZM1021.8,707.3c-5.2,0-9.5-1.4-12.9-4.1-3.4-2.8-5.1-6.5-5.1-11.2s2.6-10.5,7.9-13.3c5.1-2.7,12.2-4.1,21-4.1h8.1v-.6c0-8.4-4.3-12.4-13-12.4s-7.2.4-9,1.2c-1.8.8-3.2,1.4-4,1.9-.8.5-1.4.9-1.8,1.1-.8.6-1.5.9-2.1.8-.3,0-.8-.2-1.2-.8l-2.9-3.6c-.7-.8-.6-1.8.3-2.7,1.2-1.6,3.7-3.1,7.6-4.7,3.8-1.5,8.3-2.3,13.4-2.3,15.1,0,22.8,7.3,22.8,21.7v23.7h5.2c1.2,0,2,.7,2,2v4.5c0,1.2-.7,2-2,2h-9.2c-3.4,0-5.2-1.8-5.2-5.1v-3.5c-5.1,6.3-11.9,9.5-20,9.5"/>
  <path class="st0" d="M155.9,490.6c-13.9-31-27.6-62.3-41.5-93.2h-2.3l-41.5,93.2h85.3ZM20.9,550.9l86.4-191.3c.9-1.7,2.3-3.1,4.8-3.1h2.8c2.6,0,4,1.4,4.8,3.1l85.9,191.3c1.7,3.7-.6,7.4-4.8,7.4h-11.4c-2.6,0-4.3-1.7-4.8-3.1l-21-46.9H62.7l-20.8,46.9c-.6,1.4-2.3,3.1-4.8,3.1h-11.4c-4.3,0-6.5-3.7-4.8-7.4"/>
  <path class="st0" d="M385,490.6c-13.9-31-27.6-62.3-41.5-93.2h-2.3l-41.5,93.2h85.3ZM249.9,550.9l86.4-191.3c.9-1.7,2.3-3.1,4.8-3.1h2.8c2.6,0,4,1.4,4.8,3.1l85.9,191.3c1.7,3.7-.6,7.4-4.8,7.4h-11.4c-2.6,0-4.3-1.7-4.8-3.1l-21-46.9h-100.9l-20.8,46.9c-.6,1.4-2.3,3.1-4.8,3.1h-11.4c-4.3,0-6.5-3.7-4.8-7.4"/>
  <path class="st0" d="M550.2,538.6c46.6,0,80.5-33.3,80.5-80.2s-33.8-79.9-80.5-79.9h-42.6v160.1h42.6ZM486,364.6c0-2.8,2.3-5.4,5.1-5.4h63.7c54.9,0,99.8,44.6,99.8,99.2s-44.9,99.8-99.8,99.8h-63.7c-2.8,0-5.1-2.6-5.1-5.4v-188.2Z"/>
  <path class="st0" d="M815.2,490.6c-13.9-31-27.6-62.3-41.5-93.2h-2.3l-41.5,93.2h85.3ZM680.1,550.9l86.4-191.3c.9-1.7,2.3-3.1,4.8-3.1h2.8c2.6,0,4,1.4,4.8,3.1l85.9,191.3c1.7,3.7-.6,7.4-4.8,7.4h-11.4c-2.6,0-4.3-1.7-4.8-3.1l-21-46.9h-100.9l-20.8,46.9c-.6,1.4-2.3,3.1-4.8,3.1h-11.4c-4.3,0-6.5-3.7-4.8-7.4"/>
  <path class="st0" d="M996.6,461.6c21.9,0,40.9-18.2,40.9-41.5s-19.1-40.1-40.9-40.1h-55.2v81.6h55.2ZM919,364.6c0-2.8,2.3-5.4,5.4-5.4h73.6c34.1,0,62,26.7,62,60.6s-17.3,48-42.1,58l39,72.2c2,3.7,0,8.2-4.8,8.2h-14.5c-2.6,0-4-1.4-4.6-2.6l-37.8-75.3h-54.3v72.5c0,2.8-2.6,5.4-5.4,5.4h-11.1c-3.1,0-5.4-2.6-5.4-5.4v-188.2Z"/>
  <path class="st0" d="M993.1,92c-19.8,0-43.1-7-68.6-27.8-56-45.8-102.4-13.2-114.3-3.2-1.7,1.4-4.2,1.3-5.8-.3l-6.7-6.7c-1.8-1.8-1.6-4.6.2-6.3,24.2-21.5,79.5-45.1,137.9,2.6,55.6,45.4,96.3,13.9,107,3.8,1.6-1.5,4.1-1.6,5.8,0l7,6.2c1.9,1.7,2,4.6,0,6.4-8.2,7.6-30.9,25.5-62.6,25.5"/>
  <path class="st0" d="M993.1,188.9c-19.8,0-43.1-7-68.6-27.8-56-45.8-102.4-13.2-114.3-3.2-1.7,1.4-4.2,1.3-5.8-.3l-6.7-6.7c-1.8-1.8-1.6-4.7.2-6.3,24.2-21.4,79.5-45.1,137.9,2.6,55.6,45.4,96.2,14,106.9,3.8,1.6-1.5,4.1-1.6,5.8,0l7,6.1c1.9,1.7,2,4.7,0,6.4-8.2,7.6-30.9,25.5-62.6,25.5"/>
  <path class="st0" d="M993.1,285.8c-19.8,0-43.1-7-68.6-27.8-56-45.8-102.4-13.2-114.3-3.2-1.7,1.4-4.2,1.3-5.8-.3l-6.7-6.7c-1.8-1.8-1.6-4.6.2-6.3,24.2-21.5,79.5-45.1,137.9,2.6,55.6,45.4,96.3,13.9,107,3.8,1.6-1.5,4.1-1.6,5.8,0l7,6.2c1.9,1.7,2,4.6,0,6.4-8.2,7.6-30.9,25.5-62.6,25.5"/>
  <path class="st0" d="M511.8,12.9c-1.6,0-3.1,0-4.6.1-2.5.2-3.9,2.9-2.4,5,5.4,7.8,5.9,17.3,3.5,27.2-13.1,54.4-75.3,69.7-89.3,124.3-7,27.2-.2,56.7,17.9,78.3,25.8,30.8,69.2,45.3,108.8,46.3h0c2,0,3.3-2,2.7-3.9-22.8-69.3,28.2-87.5,57.3-123.1,54-66.3-26.1-154.2-93.9-154.2M526.2,31.2c29.3,6.1,59.7,29.6,73.4,58.4,8,16.9,13.3,42.2-6.9,66.9-6.2,7.6-13.8,14.5-21.8,21.9-23.5,21.5-52,47.6-43.4,97.5-32.2-4.5-61-18.6-77.9-38.8-14.7-17.6-20.2-41.3-14.5-63.4,5.8-22.5,22.4-37.8,39.9-54,19.5-18,41.6-38.4,49.4-70.6,1.6-6.7,2.1-12.7,1.7-18"/>
  <path class="st0" d="M658,128c-1.5,0-3,.9-3.5,2.6-13.6,47.4-45.1,66.9-69.3,91.1-23.6,24.1-19.3,43.8-8.7,66.3.9,2,2.9,3.2,5,3.2s.7,0,1,0c34.2-6.7,144.9-83.5,78.5-161.8-.8-.9-1.9-1.3-2.9-1.3M660.9,160.4c5.3,12.9,5.5,26,.7,39.8-12,34.1-51.7,62.8-73.8,71.9-5.5-14.7-4.3-24.7,9.3-38.5,4.7-4.7,9.7-9.2,15-14,17-15.4,35.7-32.3,48.9-59.2M670.5,135.3h0,0"/>
  <path class="st0" d="M160.6,12.9C83,12.9,20,75.9,20,153.5s63,140.6,140.6,140.6,140.6-63,140.6-140.6S238.3,12.9,160.6,12.9M160.6,29.6c68.3,0,123.9,55.6,123.9,123.9s-55.6,123.9-123.9,123.9-123.9-55.6-123.9-123.9S92.3,29.6,160.6,29.6"/>
</svg>