<?xml version="1.0" encoding="UTF-8"?>
<svg id="Layer_1" xmlns="http://www.w3.org/2000/svg" version="1.1" viewBox="0 0 841.9 281.9">
  <!-- Generator: Adobe Illustrator 29.5.1, SVG Export Plug-In . SVG Version: 2.1.0 Build 141)  -->
  <defs>
    <style>
      .st0 {
        fill: #231f20;
      }
    </style>
  </defs>
  <g>
    <path class="st0" d="M402.8,104.4c-1.2,7.2-4.7,12.9-10.5,16.9,5.9,4.7,8.3,11.2,7.1,19.8-1,7.5-4.3,13.5-10.1,18.1-5.7,4.6-13.6,6.8-23.7,6.8h-35.5l15.5-87.2h32.9c7.9,0,14.2,2.4,18.9,7.2,4.7,4.8,6.5,10.9,5.4,18.4ZM376.3,145c1.8-1.5,3-3.6,3.4-6,.4-2.5,0-4.5-1.3-6-1.3-1.5-3.3-2.3-6-2.3h-16l-3,16.7h16c2.7,0,5-.8,6.9-2.3ZM375.7,97.5h-13.5l-2.8,15.4h13.6c2.5,0,4.6-.7,6.3-2.1,1.8-1.4,2.8-3.3,3.2-5.6.4-2.2,0-4-1.1-5.5-1.2-1.5-3.1-2.2-5.7-2.2Z"/>
    <path class="st0" d="M471,98h-34.3l-2.6,14.6h31.3l-3.3,18.7h-31.2l-2.8,15.6h34.9l-3.4,19.2h-54.7l15.4-87.2h54.1l-3.3,19.2Z"/>
    <path class="st0" d="M554.7,78.8l-36.7,49.2-6.7,38h-19.9l6.7-38.2-19.4-49h21.6l10.2,29.4,20.4-29.4h23.8Z"/>
    <path class="st0" d="M582.4,167.7c-12.6,0-22.6-4.6-30.1-13.7-7.4-9.1-10-20.1-7.7-32.9,2.2-13,8.2-23.5,17.9-31.7,9.7-8.2,21.3-12.3,34.8-12.3s22.4,4.6,29.8,13.7c7.4,9.1,10,20.1,7.8,32.9-2.4,13-8.3,23.5-18,31.8-9.6,8.2-21.2,12.3-34.6,12.3ZM584.5,148.3c7.3,0,13.9-2.4,19.8-7.2,5.9-4.8,9.4-11,10.7-18.7,1.3-7.6,0-13.9-3.9-18.7-3.9-4.8-9.5-7.2-16.7-7.2s-13.7,2.4-19.3,7.2c-5.6,4.8-9.1,11-10.5,18.7-1.3,7.7-.1,14,3.6,18.7,3.8,4.8,9.2,7.2,16.3,7.2Z"/>
    <path class="st0" d="M638.7,166l15.5-87.2h14.9l25,49,8.5-49h19.8l-15.2,87.2h-14.9l-24.9-48.9-8.8,48.9h-19.8Z"/>
    <path class="st0" d="M772.5,78.8c11.4,0,20.7,4.4,27.6,13.2,7,8.8,9.3,19.3,7.2,31.6-2.2,12.4-7.9,22.5-17.2,30.5-9.3,7.9-20.2,11.9-32.9,11.9h-35l15.4-87.2h34.9ZM787.9,121.8c1.3-7.4.3-13.2-3.2-17.4-3.5-4.2-8.7-6.3-15.7-6.3h-14.9l-8.7,48.8h13.8c7.4,0,13.7-2.3,18.9-6.8,5.2-4.6,8.5-10.6,9.8-18.2Z"/>
    <path class="st0" d="M404,184.4l-3.3,19.2h-22.4l-12,68h-19.8l12-68h-22.4l3.3-19.2h64.7Z"/>
    <path class="st0" d="M447.9,271.5l-2.2-13.7h-33.5l-7,13.7h-21.6l44.5-87.2h25.9l14.4,87.2h-20.5ZM421.7,239.2h20.9l-4.1-33-16.8,33Z"/>
    <path class="st0" d="M548.5,209.9c-1.2,7.2-4.7,12.9-10.5,16.9,5.9,4.7,8.3,11.2,7.1,19.8-1,7.5-4.3,13.5-10.1,18.1-5.7,4.6-13.6,6.8-23.7,6.8h-35.5l15.5-87.2h32.9c7.9,0,14.2,2.4,18.9,7.2,4.7,4.8,6.5,10.9,5.4,18.4ZM522,250.6c1.8-1.5,3-3.6,3.4-6,.4-2.5,0-4.5-1.3-6-1.3-1.5-3.3-2.3-6-2.3h-16l-3,16.7h16c2.7,0,5-.8,6.9-2.3ZM521.4,203h-13.5l-2.8,15.4h13.6c2.5,0,4.6-.7,6.3-2.1,1.8-1.4,2.8-3.3,3.2-5.6.4-2.2,0-4-1.1-5.5-1.2-1.5-3.1-2.2-5.7-2.2Z"/>
    <path class="st0" d="M573.8,252.4h31.1l-3.3,19.2h-51l3.4-19.3,12-67.9h19.9l-12,68Z"/>
    <path class="st0" d="M676.5,203.5h-34.3l-2.6,14.6h31.3l-3.3,18.7h-31.2l-2.8,15.6h34.9l-3.4,19.2h-54.7l15.4-87.2h54.1l-3.3,19.2Z"/>
    <path class="st0" d="M750.2,184.4l-3.3,19.2h-22.4l-12,68h-19.8l12-68h-22.4l3.3-19.2h64.7Z"/>
    <path class="st0" d="M772.7,273.3c-9.1,0-16.5-1.9-22.2-5.8-5.7-3.9-9.3-9.1-10.9-15.8l18.1-9.3c2.2,7.8,7.7,11.7,16.7,11.7s11.9-2.4,12.8-7.3c.5-2.5-.3-4.5-2.5-5.9-2.2-1.5-6.1-3.1-11.6-5-8.2-2.7-14.4-6.2-18.4-10.5-4-4.3-5.4-10.3-4-18,1.3-8.1,5-14.3,11.2-18.4,6.1-4.1,13.3-6.2,21.3-6.2s13.3,1.7,18.6,5.1c5.3,3.4,9.1,8.3,11.3,14.6l-17.4,9.2c-3.1-6.5-7.8-9.7-14.2-9.7s-5.4.6-7.1,1.9c-1.8,1.3-2.9,2.8-3.3,4.7-.5,2.4.3,4.4,2.4,5.9,2.1,1.5,5.8,3.3,11,5.2,1.6.6,2.9,1,3.9,1.4,1,.4,2.3.9,3.8,1.5,1.5.6,2.7,1.2,3.7,1.7,1,.6,2.1,1.2,3.3,2,1.3.8,2.3,1.6,3.1,2.4.8.8,1.6,1.8,2.5,2.8.8,1,1.5,2.2,2,3.4.4,1.2.8,2.5,1.2,3.8.3,1.4.5,2.9.4,4.5,0,1.7-.3,3.5-.6,5.4-1.4,8-5.3,14.1-11.5,18.4-6.3,4.3-14.1,6.4-23.6,6.4Z"/>
  </g>
  <path class="st0" d="M248.4,86.5c-3.5,21.9-14.1,39-31.7,51.3,17.9,14.1,25,34.1,21.5,60-3,22.6-13.2,40.9-30.6,54.7-17.4,13.9-41.3,20.8-71.7,20.8H28.3L75.1,9.1h99.7c23.9,0,43,7.2,57.4,21.7,14.3,14.5,19.8,33,16.2,55.7ZM168.1,209.7c5.7-4.7,9.1-10.8,10.4-18.3,1.2-7.6,0-13.7-4-18.3-3.9-4.7-10-7-18.3-7h-48.7l-9,50.6h48.6c8.3,0,15.3-2.3,21-7ZM166.5,65.7h-41.1l-8.3,46.8h41.2c7.5,0,13.9-2.1,19.2-6.4,5.3-4.3,8.6-9.9,9.8-17,1.3-6.5.1-12.1-3.4-16.6-3.5-4.5-9.3-6.8-17.4-6.8Z"/>
  <path class="st0" d="M220.6,9c7.2,3.8,13.5,8.5,19.2,14.2,12,12.3,18.9,27.1,20.1,44h10.1l-20.4,115.1-7.6,42.2-8.5,48.8h60.1l36.5-206.1h67.9l10.1-58.2h-187.5Z"/>
</svg>