<svg width="86" height="78" viewBox="0 0 86 78" fill="none" xmlns="http://www.w3.org/2000/svg">
<path d="M30.8666 21.468C32.7777 22.7525 34.7063 24.6971 36.5981 26.0234C43.4418 30.8211 39.1049 32.4822 34.777 35.9869C35.4785 36.6242 37.044 37.7976 37.8184 38.4138C38.8682 39.2491 40.6274 40.7299 41.7125 41.4141C35.7608 41.5393 29.7716 41.3849 23.8163 41.4498C22.7822 41.461 21.7416 41.4363 20.7101 41.5146C20.8332 37.147 20.6272 32.6811 20.7148 28.3043C20.736 27.243 20.6782 26.1692 20.7057 25.1141C20.7081 25.0195 20.8224 24.9885 20.8967 24.9483L21.0879 25.1394C21.8011 25.7088 23.0426 26.5937 23.6497 27.2072C24.1665 26.697 25.3896 25.7718 25.9988 25.288C27.6149 24.0064 29.2376 22.733 30.8666 21.468Z" fill="#167251"/>
<path d="M20.4003 46.6032C24.4415 46.558 27.7515 49.8024 27.7873 53.8437C27.8229 57.8849 24.5707 61.1873 20.5293 61.2134C16.5015 61.2394 13.2126 58.0005 13.177 53.9727C13.1415 49.945 16.3727 46.6483 20.4003 46.6032ZM21.0416 58.934C21.7133 58.8676 22.5479 58.3201 22.9561 57.786C24.5755 55.6673 24.0375 51.2228 22.0432 49.4854C21.4447 48.9639 20.6774 48.8714 19.9266 48.9244C18.9649 49.1611 18.3086 49.5081 17.7817 50.3914C16.2246 53.0021 17.1368 59.2249 21.0416 58.934Z" fill="#097249"/>
<path d="M71.564 46.8827C71.7451 46.8653 72.2547 46.8974 72.4596 46.9052C73.1827 48.6667 73.7889 50.6306 74.4993 52.4172C74.7812 53.126 75.1171 54.291 75.4534 54.9298C75.7646 54.6667 77.2984 48.0678 77.888 47.0332C78.3092 46.7809 81.8908 46.9042 82.6716 46.9126C82.5169 47.1266 82.0782 47.7005 82.095 47.9562C82.3425 51.7741 82.6853 55.6951 83.3 59.4749C83.3625 59.8601 83.872 60.6477 84.0937 60.9796C82.2861 61.0152 80.4786 61.0062 78.6718 60.9526C79.0892 60.3674 79.5211 59.6648 79.3192 58.969C79.1387 58.3473 78.6893 52.2681 78.5781 52.1218C78.4166 52.2055 78.4387 52.2823 78.3656 52.5021C77.7577 55.3972 76.5512 58.5502 75.9302 61.3568L75.8252 61.3062C74.9576 60.8866 74.0804 60.4923 73.4287 59.7564C72.4405 58.6405 70.8822 53.3701 70.2879 51.6618C70.2116 54.297 69.769 57.0131 69.6836 59.6523C69.6687 60.1126 69.9551 60.4637 70.285 60.7515L70.2596 60.8667C69.7267 61.092 67.1623 60.978 66.4795 60.9369C66.8345 60.5646 67.197 60.0069 67.2834 59.4856C67.8666 55.97 68.1028 52.3392 68.4856 48.7895C68.5664 48.0393 68.2361 47.4726 67.7524 46.9451C68.9722 46.8798 70.3327 46.8938 71.564 46.8827Z" fill="#097249"/>
<path d="M45.2656 1.30155C45.7537 1.26138 46.7303 1.2929 47.2459 1.29369L51.095 1.29881C55.4355 1.32007 59.7761 1.31145 64.1166 1.27294C63.992 4.74873 64.0892 8.27287 64.0586 11.7528C64.0446 13.3432 64.1024 15.0919 63.9987 16.6683L63.8782 16.7267C63.5784 16.5537 62.2812 15.2219 61.9306 14.8869C61.2894 14.2821 60.6275 13.6997 59.946 13.1406C56.6727 10.448 53.1886 7.84418 49.9189 5.12974C48.5147 3.96395 46.5565 2.52718 45.2656 1.30155Z" fill="#56A384"/>
<path d="M63.8444 28.0903C63.8492 28.0929 63.8546 28.0947 63.8587 28.0984C63.8847 28.1219 63.9579 28.1942 63.9705 28.2239C64.3213 29.0551 63.8605 39.4248 64.1579 41.4541L46.4897 41.4412C47.3525 40.6623 48.5265 39.7816 49.4556 39.026C52.2988 36.4524 51.6071 34.2114 49.277 31.5318C49.0044 31.2184 48.1785 30.5766 48.0592 30.2198C48.1718 30.1177 48.1574 30.089 48.3103 30.1692C55.0281 33.6913 58.214 33.2346 63.8444 28.0903Z" fill="#55A283"/>
<path d="M44.3497 10.7886C45.114 11.1211 47.4906 13.141 48.295 13.769C49.8152 14.9684 51.3528 16.217 52.8283 17.4585C55.9381 20.0753 52.7495 21.9749 50.5415 23.528C49.5595 24.2187 48.609 24.4735 47.4335 24.2021C44.679 23.1444 39.8038 18.5028 37.1484 16.5804C37.844 15.852 39.0695 14.9566 39.8953 14.3098C41.3892 13.1478 42.8741 11.974 44.3497 10.7886Z" fill="#3A8A6A"/>
<path d="M3.25357 46.8807C4.22298 46.8072 8.76944 46.7985 9.59827 47.0144C10.528 47.2567 11.373 47.8514 11.856 48.6888C12.3407 49.5292 12.4409 50.6445 12.1771 51.573C11.8324 52.7859 10.9126 53.4689 9.86944 54.0521C11.1903 55.9702 12.6913 59.5746 14.3933 60.9602C13.2817 60.9919 12.0483 61.0461 10.9445 60.9959C9.96709 60.9515 9.53398 60.7356 8.92773 60.045C7.94641 58.4335 7.15238 56.3098 6.18642 54.8154C6.56885 56.5673 5.80137 59.927 7.25579 60.9274C5.79916 61.0431 3.14087 61.0083 1.65479 60.9484C2.76978 59.8894 2.51052 58.7813 2.52784 57.3863C2.54018 56.3921 2.5238 55.3931 2.52526 54.3984L2.52941 50.5294C2.5299 48.8163 2.7513 48.3886 1.76978 46.9111C2.25092 46.9132 2.76938 46.8919 3.25357 46.8807ZM6.33284 53.8221C6.95748 53.5766 7.27404 53.4357 7.78332 52.9603C9.14276 51.0958 8.70965 49.3729 6.35993 48.8606C6.31941 50.5157 6.38801 52.1783 6.33284 53.8221Z" fill="#097249"/>
<path d="M54.404 46.8217L54.5185 46.8578C54.5125 47.0447 54.4072 47.1533 54.2862 47.3034C53.9434 47.7287 53.9068 48.3822 53.892 48.9476C53.8207 51.6667 53.8789 54.4042 53.8635 57.1259C53.8581 58.091 53.8485 59.1083 54.0377 60.055C54.0849 60.2905 54.5145 60.7446 54.686 60.9376L49.1516 60.9441C50.6263 59.3619 49.9543 56.664 50.0812 54.5396L46.3856 54.5506C46.4293 55.6925 46.373 56.8398 46.3899 57.9819C46.4072 59.149 46.4348 60.104 47.3245 60.9551C45.9814 60.9025 44.4421 60.9347 43.0843 60.9317C42.7408 60.94 42.2577 60.9796 41.9427 60.8808L41.9242 60.7623C42.3105 60.4615 42.5408 59.8053 42.5588 59.3309C42.6701 56.2826 42.5651 53.2216 42.6172 50.1703C42.6405 48.8019 42.7276 47.9612 41.8169 46.8542C43.6219 46.8475 45.4044 46.8229 47.2096 46.8776C46.0723 48.1807 46.3918 50.578 46.3966 52.3773C47.403 52.3087 49.0944 52.3107 50.1044 52.3717C49.9041 50.157 50.5691 48.6309 49.2449 46.8251C50.2937 46.9043 53.3237 46.8802 54.404 46.8217Z" fill="#097249"/>
<path d="M20.7073 1.27065C22.4244 1.34144 37.1023 1.15174 37.5475 1.33417C37.3636 1.77696 33.1346 5.0413 32.4264 5.60378L24.3772 12.0038C23.6079 12.6109 21.729 13.9301 21.1696 14.5718L20.8191 14.7717C20.5902 14.4452 20.7245 2.67293 20.7073 1.27065Z" fill="#097249"/>
<path d="M56.5764 46.9465C58.3135 46.7853 60.6045 46.9597 62.3927 46.9018C63.1493 46.8773 63.7492 46.9968 64.5499 46.881C64.4719 47.6449 64.4967 49.001 64.5373 49.7664C63.2103 48.8822 62.6836 49.042 61.0887 49.0484C61.1542 49.8767 61.1719 51.5869 61.0932 52.4082C62.0044 52.4088 62.977 52.3699 63.8929 52.3477C63.9439 53.107 63.8886 54.5682 63.8842 55.3804L63.2002 54.7553C62.393 54.6232 61.8914 54.6023 61.0842 54.5727C61.1841 55.5543 61.1481 57.5927 61.1618 58.6529C61.7542 58.8214 62.1078 58.8681 62.7141 58.9084C62.8826 58.9109 63.0512 58.9118 63.2196 58.9112C64.7211 58.9032 65.3576 58.5731 66.3712 57.5472C66.0485 58.6498 65.7898 59.8719 65.4647 61.0254C62.564 60.8794 59.4043 61.0777 56.4297 60.9439C56.678 60.6793 56.951 60.4019 57.0989 60.0669C57.3553 59.4862 57.3545 49.2563 57.1932 48.1636C57.1211 47.6749 56.751 47.4026 56.5879 46.9788C56.5838 46.9681 56.5802 46.9572 56.5764 46.9465Z" fill="#097249"/>
<path d="M35.9326 46.8008C36.5755 46.726 39.068 46.8565 39.6782 46.9899C39.8385 47.8982 39.7942 48.9976 39.9045 49.9704C39.3015 49.5559 38.6305 49.2505 37.9219 49.0678C35.753 48.4933 33.7746 49.2787 33.3106 51.6531C32.1003 57.8469 36.1919 60.8015 41.6931 57.3729C41.5556 57.7148 41.4605 58.0189 41.3507 58.3684C41.2596 58.8585 40.7878 60.0969 40.6038 60.5857C37.8682 61.3543 33.9076 61.3683 31.5724 59.4377C27.4788 56.0534 28.4519 48.6851 33.7824 47.1646C34.5797 46.9373 35.1004 46.8763 35.9326 46.8008Z" fill="#097249"/>
<path d="M57.7608 64.557C58.3331 64.3812 58.5069 64.4438 59.097 64.5781C61.0963 65.4897 60.9634 67.6741 59.1381 68.7422C59.5258 69.0225 60.0673 69.3003 60.4998 69.5883L60.5247 69.7427L60.4007 69.836C59.7704 69.8786 57.5417 68.761 56.9087 68.3703C55.4902 67.4948 55.9091 64.8802 57.7608 64.557ZM58.7106 64.8122L58.1051 64.7701C57.5447 64.9675 57.4693 65.0061 57.188 65.532C56.5532 66.7189 57.242 69.0903 58.9472 68.3761C59.1405 68.2972 59.2919 68.1408 59.3644 67.945C59.7036 67.0475 59.667 65.3342 58.7106 64.8122Z" fill="#097249"/>
<path d="M57.7607 64.557C58.333 64.3812 58.5068 64.4438 59.0969 64.5781C58.9731 64.6465 58.8139 64.7231 58.7106 64.8122L58.105 64.7701C58.0085 64.6946 57.8691 64.6204 57.7607 64.557Z" fill="#027C4B"/>
<path d="M7.30724 64.4556C8.18419 64.3369 9.04821 64.7488 9.50821 65.5048C9.96829 66.2608 9.93698 67.2175 9.42853 67.9418C8.92009 68.6661 8.03101 69.0206 7.16366 68.845C6.09841 68.6291 5.34458 67.6759 5.38011 66.5895C5.41565 65.5032 6.23017 64.6013 7.30724 64.4556ZM7.79175 68.6037C9.46959 68.1873 9.26499 64.933 7.46628 64.7166C6.22173 65.1427 6.10868 66.4006 6.45885 67.5597C6.6498 68.1919 7.13373 68.5447 7.79175 68.6037Z" fill="#027C4B"/>
<path d="M7.16366 68.845C6.09841 68.6291 5.34458 67.6759 5.38011 66.5895C5.41565 65.5032 6.23017 64.6013 7.30724 64.4556L7.46628 64.7166C6.22173 65.1427 6.10868 66.4006 6.45885 67.5597C6.6498 68.1919 7.13373 68.5447 7.79175 68.6037C7.60443 68.6651 7.44467 68.7268 7.24844 68.7508L7.16366 68.845Z" fill="#097249"/>
<path d="M31.1342 64.6197C32.1252 64.5109 34.4441 64.3934 34.993 65.4092C35.6191 66.5679 35.2633 67.7287 34.1703 68.4503C33.38 68.719 31.6882 68.8996 30.9179 68.8038L30.8979 68.6961C30.95 68.6654 31.3354 68.434 31.349 68.3963C31.5753 67.7674 31.3966 67.0365 31.4355 66.3404C31.465 65.8105 31.5355 65.1425 31.1185 64.7832L31.1342 64.6197ZM34.0309 68.0098C34.5124 66.9849 34.7514 65.5854 33.472 64.9696C33.2149 64.8459 32.6136 64.8886 32.3123 64.9009C32.2858 65.6413 31.9152 68.4899 32.9678 68.4921C33.2184 68.4926 33.8353 68.2002 34.0309 68.0098Z" fill="#097249"/>
<path d="M20.8954 68.224C20.8638 67.2628 20.8128 66.1027 20.844 65.1206C20.8452 65.0812 20.5998 64.9042 20.5962 64.6898C20.8832 64.4916 21.8576 64.6021 22.2572 64.6235C23.8478 64.4896 24.1146 65.6035 22.98 66.4998C24.317 67.0282 24.3104 68.0935 23.0502 68.6434C22.1991 68.8653 21.2982 68.7236 20.3481 68.8579C20.5415 68.6541 20.7157 68.4397 20.8954 68.224ZM22.6558 68.4199C23.3886 67.8201 23.2199 67.4307 22.784 66.7258C22.4284 66.7351 22.0445 66.7157 21.6869 66.7046C21.637 67.5805 21.4207 68.6338 22.6558 68.4199ZM22.0847 66.4025C22.191 66.3669 22.2965 66.329 22.4013 66.289C23.2076 65.9767 23.0645 65.1182 22.1599 64.8188C22.0007 64.875 21.8143 64.8946 21.7503 65.0602C21.6114 65.4199 21.5633 66.0735 21.7955 66.4047C21.9212 66.419 21.957 66.4293 22.0847 66.4025Z" fill="#097249"/>
<path d="M67.4129 64.1996C67.686 65.0443 67.9595 65.8692 68.287 66.7307C68.4866 67.2557 68.9447 68.8337 69.7959 68.5394C69.8828 68.5093 70.0674 68.3763 70.0923 68.2772C70.2006 67.6485 70.1825 65.4454 69.9924 64.9513L69.7551 64.7491L69.7999 64.6383C70.2008 64.5049 70.8935 64.5766 71.3103 64.6355L71.3723 64.72C71.2955 64.8043 70.9969 65.1273 70.993 65.204C70.9439 66.188 71.0395 67.463 70.9816 68.4215C71.3889 68.4209 71.8514 68.4327 72.252 68.3897C72.4138 68.1309 72.5669 67.816 72.8373 67.6952L72.9361 67.7753C72.9232 68.1534 72.7828 68.421 72.5163 68.6823C72.0431 68.9157 68.744 68.7249 67.795 68.8278L67.6734 68.7351C67.8467 68.4435 68.0324 68.4478 67.9579 68.1447C67.8914 67.874 67.8004 67.6035 67.7219 67.3358C67.3588 67.33 66.5552 67.262 66.2802 67.4492L66.0645 67.2802C66.4319 66.2728 66.8477 65.1048 67.4129 64.1996Z" fill="#097249"/>
<path d="M24.5725 64.6199C25.3393 64.5339 27.0412 64.4386 27.5817 65.11C28.1085 65.7644 27.3665 66.4606 26.8832 66.8551C27.5087 67.6875 27.876 68.2499 28.6633 68.9384C27.7564 68.8016 27.2968 68.8585 26.7928 68.0213C26.5724 67.6504 26.2857 67.0088 25.8345 66.9564C25.1702 67.6244 26.1774 68.455 26.1754 68.8307C25.967 68.8775 25.6487 68.7486 25.3051 68.7668C24.9013 68.7883 24.558 68.8207 24.1543 68.8645C24.256 68.7928 24.488 68.6327 24.5643 68.5511C25.1541 67.92 25.0086 65.275 24.5343 64.7753L24.5725 64.6199ZM26.4013 66.6927C27.1068 65.9184 27.2346 65.0768 26.0225 64.804C25.8512 64.9265 25.7346 64.9639 25.7215 65.2075C25.7023 65.5636 25.5585 66.4948 25.7879 66.7775L26.4013 66.6927Z" fill="#097249"/>
<path d="M15.1473 64.6207C15.7996 64.5527 16.9141 64.6215 17.6679 64.5986C18.4203 65.1609 18.3761 65.251 18.2529 66.1451C18.0418 66.3824 17.7921 66.635 17.5716 66.8685C17.8724 67.3542 18.826 68.5017 18.9144 68.7297L18.8618 68.8285C18.5585 68.8807 18.1985 68.7255 17.8964 68.6264C17.694 68.3809 17.4775 68.0855 17.2804 67.8302C17.1082 67.5243 16.8229 66.8722 16.4181 66.9708C16.2952 67.239 16.3467 67.6635 16.336 67.9538C16.3211 68.3582 16.5526 68.4432 16.8914 68.7441C16.6892 68.8689 16.2431 68.7546 15.961 68.7616C15.4989 68.7731 15.0804 68.8305 14.624 68.8947C15.536 68.3518 15.5438 68.3422 15.5319 67.1966C15.525 66.5243 15.5753 65.7929 15.4807 65.1264C15.4581 64.9675 15.2362 64.8586 15.1072 64.794L15.0456 64.7636L15.1473 64.6207ZM16.3094 66.8906C16.5558 66.7933 16.9866 66.6381 17.2096 66.5247C17.8111 65.5926 17.5963 64.7048 16.3297 64.897C16.2913 65.5377 16.3073 66.2439 16.3094 66.8906Z" fill="#097249"/>
<path d="M61.1212 64.6155C61.2491 64.6077 61.3772 64.6008 61.5053 64.5951C61.8373 64.5793 62.4923 64.4963 62.7351 64.7171C62.6093 64.8669 62.4916 64.9419 62.3359 65.0574C62.2454 65.366 62.3347 65.898 62.3369 66.2278C62.3439 67.2789 62.028 68.3989 63.4881 68.4113C64.9376 68.4235 64.4675 66.0897 64.4698 65.1913C64.4702 65.0313 64.1657 64.8447 64.0472 64.7609L64.0907 64.6812C64.4171 64.5693 64.8621 64.5886 65.2162 64.5829L65.3674 64.6395C65.4154 64.8956 64.9058 64.9102 64.8956 65.1585C64.8454 66.3705 65.0951 67.325 64.435 68.4378C63.7681 68.8355 62.8556 69.2121 62.1278 68.6426C60.9594 67.7284 62.0617 65.5652 61.122 64.8256L61.0698 64.7852L61.1212 64.6155Z" fill="#097249"/>
<path d="M35.7759 66.6293C36.0063 65.743 36.4271 64.7886 37.4357 64.6149L38.0525 64.7496C37.382 64.9083 37.3561 65.0013 36.9152 65.5599C36.7917 66.5092 36.8121 66.7512 36.9313 67.6942C37.1753 68.0446 37.3027 68.2269 37.6914 68.4357C38.4523 68.8445 39.3675 68.3282 38.9717 67.411C38.7985 67.0098 38.4635 66.9401 38.0748 66.7949C38.4081 66.7592 39.6717 66.6407 39.9247 66.7431C40.0308 67.015 39.8027 67.3301 39.7687 67.6883C39.7343 68.05 39.746 68.3254 39.7671 68.683C37.6542 69.1441 36.3352 68.932 35.7759 66.6293Z" fill="#097249"/>
<path d="M41.2091 68.2788C41.0955 67.2582 41.2058 66.1998 41.1274 65.1763C41.1129 64.9866 40.905 64.8749 40.7696 64.7102C41.0904 64.4948 42.2714 64.6486 42.8368 64.6123L42.7397 64.8634C42.3301 64.8771 42.2138 64.8299 41.9422 65.0851C41.833 65.3543 41.9064 66.102 41.9026 66.4931C42.1693 66.4531 42.5456 66.4405 42.8228 66.423C43.0433 66.1263 43.2777 65.8287 43.5036 65.5351C43.4408 65.9602 43.5211 67.0858 43.2834 67.2643C43.0001 67.1211 43.0337 67.0681 42.8338 66.7609L41.8548 66.7337C41.9174 67.342 41.9273 67.7758 41.8802 68.3812C42.5346 68.4411 42.8077 68.4386 43.4647 68.3919C43.5954 68.0913 43.6628 67.8602 43.9457 67.711L44.0273 67.8058C44.0694 68.1406 43.8908 68.4597 43.7549 68.7757C42.4525 68.8371 41.5075 68.6812 40.1338 68.9119C40.4703 68.7009 40.8628 68.4817 41.2091 68.2788Z" fill="#097249"/>
<path d="M37.379 73.3366L37.6064 73.4522C37.8968 73.912 37.9294 75.9755 37.5502 76.4392C36.8122 76.7995 36.1158 74.7754 35.7412 74.1745C35.8043 74.8201 36.0704 76.0455 35.6389 76.5733L35.3615 76.4286C35.059 76.0153 35.0242 73.9336 35.421 73.4671C36.3105 73.0986 36.9266 75.0857 37.1547 75.6925C37.1941 75.0378 36.9623 73.7863 37.379 73.3366Z" fill="#097249"/>
<path d="M46.2134 68.9275C47.098 68.3632 47.201 68.4236 47.196 67.3385C47.1923 66.5651 47.2396 65.8015 47.1822 65.0185C47.0707 64.8641 47.0807 64.9057 46.8713 64.8208C46.3673 64.8401 46.1205 65.163 45.7643 65.5099C45.6407 65.2251 45.6942 64.7773 45.778 64.4809L45.8876 64.4337C46.419 64.7133 47.6594 64.5899 48.3903 64.6145C48.7592 64.5819 48.945 64.5538 49.3056 64.4702C49.4913 64.784 49.526 65.2218 49.4952 65.5796L49.3944 65.7241L49.2738 65.6873C48.8088 64.8025 49.1331 64.939 48.0604 64.8261C47.9136 65.1191 47.9871 67.7091 48.0394 68.21C48.0645 68.4511 48.6036 68.7235 48.8486 68.8653C47.7035 68.7402 47.3486 68.7428 46.2134 68.9275Z" fill="#097249"/>
<path d="M1.43604 64.6203C1.7928 64.5576 2.72407 64.5327 3.06549 64.6775L3.08398 64.7874C2.92291 64.8841 2.9069 64.8888 2.78914 65.0314C3.07288 65.5465 3.36916 66.0504 3.56469 66.6054C3.72862 66.3075 4.38541 65.2187 4.37389 64.9841L4.0501 64.7867L4.10614 64.6865C4.39647 64.5683 5.05537 64.5732 5.36363 64.6171L5.41873 64.7118C5.25242 64.967 4.96923 64.8951 4.82535 65.0434C4.63261 65.2421 4.32651 65.8312 4.18718 66.0811C4.16247 66.1234 4.13817 66.1659 4.11428 66.2086C3.82829 66.7215 3.64654 67.4165 3.81616 67.9945C3.97905 68.5496 4.20023 68.5981 4.68864 68.8663C3.81583 68.7576 3.32505 68.8217 2.47238 68.8029C2.5304 68.5392 2.82187 68.4379 2.88869 68.2662C3.37654 67.0127 2.43325 65.9962 1.77585 65.0328C1.64168 64.8362 1.51013 64.9028 1.43604 64.6203Z" fill="#097249"/>
<path d="M76.4005 64.6132C77.3984 64.6035 78.2576 64.5808 79.2517 64.5113C79.3332 64.7022 79.4718 65.3767 79.3766 65.5497C78.8792 65.2801 78.643 64.7906 78.0855 64.8343C77.9674 64.917 77.828 64.9946 77.8196 65.16C77.7686 66.1354 77.8463 67.2985 77.8562 68.2644C78.1769 68.5209 78.3376 68.6366 78.6918 68.8427C77.5728 68.7511 77.2445 68.7316 76.1553 68.9068L77.0571 68.3147C77.0945 67.6713 77.1432 65.525 77.0541 64.9627C76.8713 64.8271 76.6633 64.8581 76.4348 64.8629L76.4005 64.6132Z" fill="#097249"/>
<path d="M80.5006 68.9045C80.5996 68.8298 81.1762 68.409 81.2158 68.3419C81.762 67.4117 80.854 65.8804 80.2652 65.1301C80.1921 65.0368 79.8859 64.8369 79.7808 64.7431C80.0047 64.4596 81.228 64.5404 81.4794 64.6651L81.5091 64.7825L81.1907 64.9697C81.1686 65.2123 81.7841 66.2587 81.9349 66.5443C82.1878 66.1828 82.3219 65.9373 82.5283 65.5534L82.7675 65.6902C82.6342 65.9677 82.2777 66.4977 82.0987 66.7799L82.1619 68.264C82.3683 68.4851 82.702 68.6855 82.9602 68.8565C81.9113 68.7466 81.5312 68.726 80.5006 68.9045Z" fill="#097249"/>
<path d="M50.1902 73.4462C51.2664 73.3863 51.3476 73.5816 51.6467 74.534C51.3765 75.7697 51.1121 76.3044 49.8399 76.52L49.781 76.4278C49.8056 76.0989 50.3938 75.9702 50.6473 75.5301L50.5798 75.4227C50.0953 75.4094 50.0235 75.2945 49.5487 75.0701C49.3951 74.2172 49.3521 73.8515 50.1902 73.4462ZM50.6981 74.938C51.1122 74.548 50.9072 74.0628 50.4154 73.8472C50.2287 74.0279 50.1353 74.0881 50.1 74.3513C50.2172 74.7361 50.3378 74.7868 50.6981 74.938Z" fill="#097249"/>
<path d="M47.7419 73.4378C49.3717 73.348 49.4168 74.712 48.6527 75.8342C48.3081 76.3402 47.9796 76.437 47.3903 76.52L47.3077 76.4141C47.3473 76.0855 47.9346 76.0954 48.13 75.4565C47.8209 75.395 47.1883 75.2497 47.0591 74.9326C46.7702 74.2238 47.1141 73.7284 47.7419 73.4378ZM48.2528 74.9726C48.6218 74.4863 48.4862 74.0857 47.9236 73.8336C47.7493 74.0608 47.6623 74.1408 47.6509 74.426C47.7341 74.6889 47.8479 74.7677 48.0898 74.8933C48.1435 74.9211 48.1978 74.9475 48.2528 74.9726Z" fill="#097249"/>
<path d="M53.3671 73.3453C53.488 73.3672 53.6139 73.4026 53.7338 73.4332C54.0774 73.7761 53.893 74.2857 53.923 74.738C53.9513 75.1624 54.0747 75.1187 54.2203 75.4802C54.1152 75.8404 53.9347 76.4438 53.4855 76.4255C53.2728 76.1787 53.3297 76.1894 53.2557 75.8273L53.2527 75.8144C53.0362 75.5759 52.5124 75.8836 52.0397 75.6217C51.7366 75.0954 52.9516 73.6252 53.3671 73.3453ZM52.834 75.3562C53.3969 75.1638 53.4209 74.9735 53.2453 74.4081L53.1455 74.3092C53.0098 74.5618 52.6842 75.0077 52.6891 75.2176L52.834 75.3562Z" fill="#097249"/>
<path d="M73.4363 64.6195C73.8013 64.5689 74.7552 64.5116 75.0492 64.7047C74.4657 65.2752 74.5241 65.114 74.5301 65.9658C74.5354 66.727 74.5472 67.478 74.5867 68.24C74.813 68.4783 75.025 68.5418 75.0738 68.8185C74.5094 68.7507 73.8488 68.7618 73.2727 68.7575L73.231 68.71C73.3742 68.5838 73.7232 68.4055 73.7319 68.2289C73.7767 67.3142 73.7341 66.3897 73.6986 65.4754C73.6785 64.9588 73.5225 64.9964 73.4363 64.6195Z" fill="#097249"/>
<path d="M31.7621 73.4421C32.2634 73.4165 32.7995 73.2991 32.9823 73.8831C32.7295 74.2232 32.4172 74.0493 32.0935 73.886C31.8191 73.9997 31.8525 73.9411 31.6924 74.1545C31.7708 74.5894 33.3053 74.862 33.2173 75.7913C32.8694 76.5908 31.6989 76.5032 31.0277 76.197C30.8833 75.9792 30.9034 76.0781 30.9476 75.8283C31.4886 75.3325 31.6691 76.0594 32.366 75.8235C32.5117 75.4329 29.5602 74.0536 31.7621 73.4421Z" fill="#097249"/>
<path d="M28.7301 64.6318C29.0463 64.581 30.1404 64.4742 30.3294 64.715C30.2718 64.9235 30.1443 64.8084 29.8878 65.0661C29.8122 65.3787 29.8768 67.3956 29.854 67.8816C29.833 68.3278 30.0318 68.419 30.3265 68.675L30.3323 68.8406C29.5431 68.7266 29.2839 68.7765 28.5039 68.8777C28.5429 68.8395 28.8892 68.5057 28.9122 68.4516C29.2705 67.6089 29.1073 65.9646 29.0005 65.049C28.9797 64.8706 28.813 65.0177 28.7301 64.6318Z" fill="#097249"/>
<path d="M12.0043 68.7892C10.0953 68.7456 11.1904 65.779 10.5411 64.855C10.4892 64.7811 10.4739 64.777 10.4763 64.681C10.7402 64.5207 11.7654 64.5269 12.0652 64.6533L12.0852 64.7773C12.0277 64.8063 11.6469 65.0058 11.6428 65.039C11.5291 65.9549 11.3652 67.2748 11.8728 68.0859C12.0474 68.3649 12.4416 68.3992 12.7088 68.4298C12.4056 68.5669 12.3478 68.6931 12.0043 68.7892Z" fill="#097249"/>
<path d="M41.2274 73.4556C41.7164 73.4427 42.6192 73.4101 43.0773 73.5486L43.0892 73.6504C42.828 73.8498 42.1935 74.0251 41.8562 74.1362L41.8573 74.31C42.1234 74.7824 42.3903 74.5885 42.9621 74.7742L42.9805 74.8759C42.6279 75.2898 42.3226 75.031 41.862 75.1992C41.8815 75.3849 41.9024 75.5706 41.9246 75.7561C42.2449 76.038 42.8746 75.7277 43.2285 76.1677L43.1764 76.2686C42.9079 76.4545 41.6672 76.4255 41.2306 76.4484C41.2627 75.4568 41.1849 74.4614 41.2274 73.4556Z" fill="#097249"/>
<path d="M49.8394 66.6505C49.8444 65.6164 50.5623 64.7226 51.571 64.4947L51.7337 64.7646C50.2254 65.4295 50.4544 68.0831 52.0529 68.6419L51.9607 68.8803C50.7698 68.8267 49.8336 67.8426 49.8394 66.6505Z" fill="#097249"/>
<path d="M52.4028 64.4665C53.3821 64.6191 54.1418 65.4022 54.2648 66.3858C54.3877 67.3693 53.8442 68.3153 52.9325 68.7043L52.5585 68.504C53.8086 67.7799 53.639 65.4215 52.3315 64.7699L52.4028 64.4665Z" fill="#097249"/>
<path d="M39.7991 73.856C39.5321 73.8889 39.5034 73.9079 39.2909 74.0653C39.1079 74.2967 39.1231 74.8318 39.108 75.1381C39.0524 76.2747 40.1103 75.4489 40.6482 75.9738L40.625 76.1336C40.4789 76.3296 40.2486 76.3615 40.0271 76.408C38.4006 76.7508 37.9096 75.008 38.7203 73.8682C38.9797 73.5036 39.2532 73.4777 39.6626 73.4164L39.7991 73.856Z" fill="#097249"/>
<path d="M45.3732 73.6666C45.6785 73.4887 45.7393 73.4501 46.0848 73.3991L46.2578 73.4614C46.4238 73.9117 46.4694 76.2138 46.0065 76.5192C45.3786 76.296 45.8952 74.7841 45.6904 74.2496C45.5037 74.3367 45.3882 74.3845 45.1923 74.4534C44.9039 74.4023 44.9984 74.4548 44.8037 74.2774L44.8209 74.0808C44.9518 73.8531 45.1379 73.7875 45.3732 73.6666Z" fill="#097249"/>
<path d="M33.667 73.4398C33.9135 73.4179 34.1975 73.3543 34.3975 73.4835C34.4629 73.7879 34.4401 76.0506 34.4417 76.5101C34.0891 76.4926 33.973 76.5192 33.7218 76.3212C33.638 75.8631 33.6669 73.996 33.667 73.4398Z" fill="#097249"/>
<path d="M12.7089 68.4298C14.225 68.2417 13.8152 66.519 13.7977 65.3819C13.7928 65.0656 13.649 64.9793 13.413 64.8145C13.381 64.7924 13.3488 64.7706 13.3164 64.7491C13.5651 64.5584 14.1016 64.5808 14.4055 64.6069L14.5826 64.7234C14.5686 65.01 14.21 65.0866 14.2097 65.2737C14.2082 66.7816 14.4104 69.4176 12.0044 68.7892C12.3479 68.6931 12.4057 68.5669 12.7089 68.4298Z" fill="#027C4B"/>
<path d="M37.436 64.6149C38.4761 64.3514 38.6378 64.4445 39.7164 64.6436C39.7621 64.9095 39.8655 65.2985 39.7674 65.5304C39.4873 65.5288 39.2133 65.0784 39.0424 64.8536C38.7061 64.8054 38.3938 64.7524 38.0528 64.7496L37.436 64.6149Z" fill="#027C4B"/>
<path d="M66.0642 67.2802L66.28 67.4492C66.2311 67.6533 66.1855 67.8582 66.1431 68.0638C66.2072 68.3429 66.3612 68.536 66.5207 68.7741L66.5022 68.8355C65.7165 68.7023 65.5088 68.7616 64.7158 68.8616C65.6575 68.3368 65.6392 68.2872 66.0642 67.2802Z" fill="#027C4B"/>
<path d="M82.5283 65.5534C82.6936 65.1334 82.7476 65.1537 82.4346 64.7433C82.6425 64.5507 83.4438 64.5408 83.6815 64.642L83.6663 64.7736L83.3585 64.9332C83.162 65.0325 82.903 65.4823 82.7674 65.6902L82.5283 65.5534Z" fill="#097249"/>
<path d="M76.4349 64.8629C75.8206 64.978 76.0355 65.2107 75.6854 65.6675L75.6038 65.5703C75.5494 65.2604 75.4973 64.7535 75.6667 64.4766C75.9626 64.5547 76.0965 64.5788 76.4006 64.6132L76.4349 64.8629Z" fill="#027C4B"/>
<path d="M42.8369 64.6123C43.0922 64.5855 43.2886 64.534 43.4995 64.6736C43.708 64.9182 43.7813 65.0892 43.6805 65.4104L43.5731 65.4815C43.161 65.1605 43.3004 64.9207 42.7397 64.8634L42.8369 64.6123Z" fill="#027C4B"/>
<path d="M39.6626 73.4164C39.9719 73.4489 40.3266 73.4433 40.5388 73.6558L40.6326 73.8432L40.5723 73.9713C40.2422 74.0772 40.132 74.0092 39.7991 73.856L39.6626 73.4164Z" fill="#00614C"/>
<path d="M52.0527 68.6419L52.5583 68.504L52.9323 68.7043C52.6257 68.8352 52.2935 68.8953 51.9604 68.8803L52.0527 68.6419Z" fill="#027C4B"/>
<path d="M51.5708 64.4947C51.8438 64.433 52.126 64.4234 52.4026 64.4665L52.3314 64.7699L51.7335 64.7646L51.5708 64.4947Z" fill="#027C4B"/>
</svg>
