<?xml version="1.0" encoding="UTF-8"?>
<svg id="Layer_1" data-name="Layer 1" xmlns="http://www.w3.org/2000/svg" version="1.1" viewBox="0 0 894 342">
  <defs>
    <style>
      .cls-1 {
        fill: #fff;
      }

      .cls-1, .cls-2 {
        stroke-width: 0px;
      }

      .cls-3 {
        font-family: LobsterTwo-BoldItalic, 'Lobster Two';
        font-size: 84.22px;
        font-style: italic;
        font-weight: 700;
      }

      .cls-3, .cls-2 {
        fill: #f50;
      }
    </style>
  </defs>
  <g>
    <g>
      <path class="cls-2" d="M677.2,300.45c0,1.18-.35,2.4-1.05,3.66-.7,1.26-1.64,2.46-2.82,3.58-1.18,1.12-2.57,2.09-4.17,2.91-1.6.81-3.27,1.33-5.01,1.56-.79,3.43-2.03,6.64-3.75,9.64-1.71,3-3.79,5.61-6.23,7.83-2.44,2.22-5.22,3.96-8.34,5.22-3.12,1.26-6.44,1.89-9.98,1.89-2.7,0-5.02-.41-6.99-1.22-1.97-.81-3.58-1.89-4.84-3.24-1.26-1.35-2.19-2.92-2.78-4.72-.59-1.8-.88-3.68-.88-5.64,0-2.19.35-4.45,1.05-6.78.7-2.33,1.73-4.51,3.07-6.53,1.35-2.02,2.99-3.79,4.93-5.31,1.94-1.52,4.11-2.58,6.53-3.2-1.8-1.29-3.1-2.82-3.92-4.59-.81-1.77-1.22-3.61-1.22-5.51,0-2.19.45-4.35,1.35-6.49.9-2.13,2.17-4.07,3.83-5.81,1.66-1.74,3.61-3.14,5.85-4.21,2.24-1.07,4.72-1.6,7.41-1.6,1.68,0,3.25.23,4.72.67,1.46.45,2.74,1.12,3.83,2.02,1.09.9,1.95,1.99,2.57,3.29.62,1.29.93,2.81.93,4.55,0,2.53-.62,4.62-1.85,6.27-1.24,1.66-2.7,2.48-4.38,2.48-1.52,0-2.84-.76-3.96-2.27.51-.17.98-.5,1.43-1,.45-.5.84-1.1,1.18-1.8.34-.7.6-1.43.8-2.22.2-.78.29-1.53.29-2.26,0-1.73-.49-2.94-1.47-3.64-.98-.7-2.04-1.05-3.16-1.05-1.24,0-2.39.34-3.45,1.01-1.07.67-1.98,1.57-2.74,2.69-.76,1.12-1.35,2.4-1.77,3.83-.42,1.43-.63,2.87-.63,4.33,0,1.23.15,2.44.46,3.62.31,1.18.81,2.27,1.52,3.28.7,1.01,1.58,1.89,2.65,2.65,1.07.76,2.36,1.33,3.87,1.72-2.25.51-4.29,1.47-6.15,2.9-1.85,1.43-3.44,3.1-4.76,5-1.32,1.9-2.35,3.94-3.07,6.1-.73,2.16-1.1,4.19-1.1,6.1,0,2.35.62,4.36,1.85,6.01,1.23,1.66,3.28,2.48,6.15,2.48,4.72,0,8.49-1.33,11.33-4,2.84-2.67,5.09-6.78,6.78-12.34-1.12-.06-2.23-.15-3.33-.3-1.09-.14-2.18-.21-3.24-.21-3.71,0-6.34,1.26-7.92,3.79l-.59-.08c.84-3.48,2.67-6.33,5.47-8.55,2.81-2.22,6.4-3.33,10.78-3.33,1.18,0,2.27.07,3.28.21,1.01.14,2.05.21,3.12.21,1.57,0,3.11-.28,4.63-.84,1.52-.56,2.64-1.49,3.37-2.78h.51Z"/>
      <path class="cls-2" d="M740.19,335.23l5.39-37.81-15.83,37.81h-11.54l1.68-37.98-14.05,37.98h-6.67l21.31-57.85c-4.21,1.4-7.49,3.71-9.85,6.9-2.36,3.2-3.54,7.22-3.54,12.04,0,1.01.06,1.84.17,2.49.11.65.22,1.18.34,1.6.11.42.24.77.38,1.05.14.28.24.51.3.67-2.67,0-4.83-.58-6.47-1.73-1.64-1.15-2.46-3.1-2.46-5.85s.79-5.39,2.37-8.09c1.58-2.7,3.63-5.11,6.15-7.24,2.52-2.13,5.36-3.86,8.53-5.18,3.17-1.32,6.33-1.98,9.47-1.98,2.3,0,4.49.39,6.57,1.18l-1.94,44.38,18.53-44.38h12.13l-8.84,61.98h-12.13Z"/>
      <path class="cls-2" d="M784.23,292.7c7.07,0,10.67,4.41,10.78,13.22.22.06.53.08.93.08.95,0,2.01-.14,3.16-.42,1.15-.28,2.3-.66,3.45-1.14,1.15-.48,2.27-1.02,3.37-1.64,1.1-.62,2.09-1.23,2.99-1.85l.76,2.27c-1.63,1.74-3.75,3.21-6.36,4.42-2.61,1.21-5.43,2.06-8.46,2.57-.34,3.93-1.09,7.47-2.27,10.61-1.18,3.15-2.67,5.83-4.46,8.04-1.8,2.22-3.85,3.92-6.15,5.09-2.3,1.18-4.74,1.77-7.33,1.77-1.96,0-3.78-.24-5.43-.72-1.66-.48-3.07-1.25-4.25-2.32-1.18-1.07-2.1-2.44-2.78-4.13-.67-1.68-1.01-3.73-1.01-6.15,0-1.63.17-3.48.51-5.56.34-2.08.88-4.22,1.64-6.44.76-2.22,1.73-4.38,2.91-6.49,1.18-2.1,2.63-4,4.34-5.68,1.71-1.68,3.69-3.03,5.94-4.04,2.24-1.01,4.83-1.52,7.75-1.52ZM778,327.82c1.01,0,2.03-.43,3.07-1.3,1.04-.87,1.99-2.08,2.86-3.62.87-1.54,1.64-3.38,2.31-5.52.67-2.13,1.18-4.43,1.52-6.91-.9-.22-1.5-.66-1.81-1.31-.31-.64-.46-1.39-.46-2.23,0-1.18.24-2.15.72-2.91.48-.76,1.11-1.28,1.89-1.56-.11-1.74-.41-2.96-.88-3.66-.48-.7-1.25-1.05-2.32-1.05-1.52,0-2.95.83-4.29,2.48-1.35,1.66-2.53,3.68-3.54,6.06-1.01,2.39-1.82,4.91-2.44,7.58-.62,2.67-.93,5.04-.93,7.12,0,1.4.07,2.54.21,3.41.14.87.38,1.56.72,2.06.34.51.79.86,1.35,1.05.56.2,1.23.29,2.02.29Z"/>
      <path class="cls-2" d="M817.16,293.12l-1.18,5.31c1.63-1.57,3.33-2.92,5.09-4.04,1.77-1.12,3.5-1.68,5.18-1.68,1.91,0,3.35.65,4.34,1.94.98,1.29,1.47,2.75,1.47,4.38,0,.73-.13,1.46-.38,2.19-.25.73-.63,1.39-1.14,1.98-.51.59-1.14,1.07-1.89,1.43-.76.37-1.64.55-2.65.55-1.18,0-1.98-.28-2.4-.84-.42-.56-.72-1.16-.88-1.81-.17-.65-.32-1.25-.46-1.81-.14-.56-.52-.84-1.14-.84-1.07,0-2.08.31-3.03.93-.96.62-1.99,1.43-3.12,2.44l-6.74,32h-12.13l8.93-42.11h12.13Z"/>
      <path class="cls-2" d="M842.51,318.22c-.06.45-.1.88-.13,1.3-.03.42-.04.86-.04,1.31,0,.84.07,1.67.21,2.49.14.81.4,1.56.8,2.23.39.67.92,1.21,1.59,1.6.67.39,1.53.59,2.6.59,1.62,0,3.34-.45,5.15-1.35,1.81-.9,3.39-1.94,4.73-3.12-.45,2.42-1.14,4.42-2.06,6.02-.93,1.6-2.04,2.88-3.33,3.83-1.29.95-2.72,1.63-4.3,2.02-1.57.39-3.2.59-4.88.59-3.93,0-7.09-1.04-9.47-3.11-2.39-2.08-3.58-5.5-3.58-10.28,0-1.63.17-3.48.51-5.56.34-2.08.86-4.21,1.56-6.4.7-2.19,1.64-4.34,2.82-6.44,1.18-2.1,2.61-4,4.29-5.68,1.68-1.68,3.65-3.03,5.9-4.04,2.24-1.01,4.8-1.52,7.66-1.52,1.85,0,3.38.23,4.59.67,1.21.45,2.16,1.05,2.86,1.81.7.76,1.18,1.61,1.43,2.57.25.96.38,1.97.38,3.03,0,2.42-.53,4.65-1.59,6.7-1.06,2.05-2.49,3.85-4.28,5.39-1.79,1.55-3.84,2.78-6.16,3.71-2.32.93-4.74,1.47-7.25,1.64ZM855.31,300.68c0-1.06-.16-1.9-.46-2.51-.31-.61-.86-.92-1.64-.92-1.07,0-2.11.52-3.12,1.55-1.01,1.03-1.97,2.36-2.86,3.98-.9,1.62-1.71,3.44-2.44,5.45-.73,2.01-1.32,3.99-1.77,5.95,1.63-.05,3.19-.47,4.68-1.26,1.49-.78,2.79-1.79,3.92-3.02,1.12-1.23,2.02-2.64,2.7-4.23.67-1.59,1.01-3.25,1.01-4.99Z"/>
    </g>
    <path class="cls-2" d="M67.67,306.81l29.3-40.95c.17-.32.54-1.04,1.1-2.28,1.34-2.93,2.73-5.99,4.2-9.27,1.27-2.8,2.32-5.15,3.18-7.14-7.34,1.59-14.93,2.4-22.69,2.4-10.13,0-19.8-.95-28.73-2.82-10.79-2.26-20.24-6.28-28.08-11.96l-.26-.19c-6.97-5.23-12.28-11.84-15.87-19.7-3.32-7.27-5-14.9-5-22.69,0-10.18,2.88-19.74,8.54-28.41,4.53-6.93,13.3-16.02,29.3-19.92l.74-.17.39-.08c1.57-.31,3.08-.54,4.5-.7,1.76-.19,3.47-.29,5.09-.29,7.3,0,14.11,1.62,20.28,4.82-3-3.27-5.87-6.45-8.6-9.51-5.72-6.42-10.48-13.56-14.13-21.22-4.27-8.95-6.44-18.96-6.44-29.74,0-10.2,2.16-20.21,6.42-29.76,4.37-9.8,10.75-18.26,18.94-25.16,8.76-7.49,18.96-12.85,30.26-15.86,9.71-2.59,19.93-3.9,30.37-3.9,13.98,0,25.34,1.99,34.72,6.08,10.72,4.69,18.91,11.32,24.34,19.71,5.37,8.33,8.09,17.42,8.09,27.04,0,8.27-1.84,16.31-5.46,23.87-.53,1.11-1.09,2.19-1.69,3.25,3.38-.4,7.05-.6,11.06-.6h18.94c3.29-.67,6.63-1.01,9.93-1.01s6.35.34,9.38,1.01h12.77c3.05-2.89,6.55-5.26,10.45-7.09l1.37-.64,1.43-.48c4.18-1.39,8.4-2.1,12.56-2.1,10.71,0,20.24,3.87,27.56,11.18l2.15,2.15c5.21-2.32,10.81-3.53,16.5-3.53,2.25,0,5.16.09,9.17.28,1.23.06,2.28.1,3.16.1.08,0,.42,0,.5,0l6.67-.56,1.06,3.08,12.53-17.08-18.19-52.27,52.55,17.35,44.09-33.45-.26,55.34,37.76,26.25c.8-.03,1.59-.05,2.37-.05,11.9,0,22.06,3.94,29.23,10.91,1.85-4.33,3.72-8.41,5.58-12.22,2.05-4.48,4.49-9.57,7.26-15.15,3.03-6.17,6.56-12.73,10.49-19.47,4.05-7.02,8.7-13.9,13.8-20.42,5.93-7.57,12.57-13.86,19.74-18.72,9.29-6.33,19.45-9.54,30.17-9.54,16.81,0,26.19,7.07,31.11,13,5.84,7.12,8.91,15.93,8.91,25.52,0,2.48-.18,4.99-.53,7.51,2.51-4.11,5.14-8.05,7.87-11.8,6.68-9.16,14.03-16.79,21.84-22.68,10.43-7.85,21.95-11.82,34.24-11.82,17.29,0,26.83,7.66,31.79,14.09,5.55,7.15,8.49,15.86,8.49,25.19,0,6.6-1.18,13.29-3.49,19.89-1.81,5.04-3.6,9.2-5.49,12.79-2.49,4.96-5.58,10.46-9.19,16.35,4.89-.94,9.91-1.42,15.06-1.42,13.57,0,25.01,3.76,34.04,11.19,3.21-2.81,6.87-5.39,10.95-7.72l.4-.23c9.82-5.33,20.95-8,33.2-8,7.99,0,15.42,1.13,22.1,3.35,6.9,2.3,13.01,6.08,18.16,11.23,6.83,6.83,10.62,15.66,11.03,25.63,11.09.61,26.4,8.95,26.4,30.45,0,3.34-.46,6.81-1.41,10.61-.88,3.53-2.18,7.03-3.87,10.4l-.46.91-.52.87c-3,5-5.96,9.83-8.8,14.36-3.11,4.96-6.88,10.33-11.2,15.97-10.07,13.35-21.48,23.23-33.87,29.31-12.29,6.03-26.57,9.08-42.43,9.08-8.22,0-16.16-1.13-23.61-3.37-7.25-2.17-13.66-5.48-19.12-9.86-1.07.61-2.15,1.2-3.23,1.76-11.4,5.93-23.65,8.94-36.39,8.94-11.78,0-22.9-2.92-33.04-8.68-3.61-2.05-6.92-4.5-9.9-7.32-4.16,3.02-8.55,5.72-13.11,8.07-8.93,4.6-17.95,6.93-26.83,6.93-10.45,0-19.68-3.55-26.69-10.14-3.33,2.12-6.95,4.03-10.97,5.8-7.41,3.22-14.92,4.85-22.35,4.85s-14.05-1.65-20.39-4.91c-4.15-2.16-7.8-4.95-10.95-8.36-.25.24-.49.48-.74.71-8.94,8.71-18.48,10.54-24.91,10.54h-30.78c-3.82,1-7.65,1.5-11.41,1.5-18.38,0-28.19-9.49-32.53-15.44l-4.09,13.93h-61.44c-3.82,1-7.66,1.51-11.42,1.51-5.94,0-11.71-1.26-17.16-3.75-2.42-1.1-5.48-2.88-8.6-5.66-.63.42-1.26.84-1.89,1.24-8.72,5.59-17.75,8.42-26.84,8.42-15.02,0-28.04-7.83-34.83-20.94l-.29-.55-.26-.57c-.71-1.56-1.36-3.16-1.92-4.81-5.16,5.13-10.64,9.75-16.41,13.81-14.68,10.34-32.18,15.58-52,15.58h-3.65c-2.14,0-4.29-.12-6.56-.38-.08,0-.17-.02-.25-.02l-4.51,14.08c-2.06,6.57-3.99,12.01-5.88,16.59-3.32,8.03-8.03,14.5-13.99,19.21-7.16,5.66-16.22,8.54-26.94,8.54h-63.05Z"/>
    <path class="cls-1" d="M82.76,223.33c-8.37,0-16.16-.75-23.35-2.26-7.2-1.51-13.23-4.02-18.08-7.53-3.35-2.51-5.9-5.69-7.66-9.54-1.76-3.85-2.64-7.78-2.64-11.8,0-5.02,1.42-9.71,4.27-14.06,2.85-4.35,7.36-7.28,13.56-8.79.84-.16,1.63-.29,2.39-.38.75-.08,1.46-.13,2.14-.13,3.35,0,6.32.75,8.91,2.26,2.59,1.51,4.4,3.27,5.4,5.27-.67.5-1.59,1.38-2.76,2.64-1.17,1.25-1.93,2.3-2.26,3.14-2.51,4.19-3.77,8.37-3.77,12.56,0,5.69,2.22,10.34,6.65,13.94,4.43,3.6,10.25,5.4,17.45,5.4,6.53,0,12.68-1.63,18.46-4.9,5.78-3.27,10.46-7.66,14.06-13.18,3.6-5.53,5.4-11.88,5.4-19.09,0-5.36-1.26-11.05-3.77-17.08-2.18-5.19-5.15-9.79-8.91-13.81-3.77-4.02-7.33-7.78-10.67-11.3-4.52-4.85-8.83-9.58-12.93-14.19-4.1-4.6-7.45-9.62-10.04-15.07-2.6-5.44-3.89-11.59-3.89-18.46s1.38-12.89,4.14-19.08c2.76-6.19,6.74-11.46,11.93-15.82,5.86-5.02,12.56-8.54,20.09-10.55,7.53-2.01,15.4-3.01,23.61-3.01,10.21,0,18.29,1.3,24.23,3.89,5.94,2.6,10.21,5.9,12.81,9.92,2.59,4.02,3.89,8.29,3.89,12.81s-.97,8.54-2.89,12.56c-1.93,4.02-4.56,7.41-7.91,10.17-3.35,2.76-7.03,4.48-11.05,5.15-.67.17-1.34.25-2.01.25h-2.26c-3.69,0-6.91-.84-9.67-2.51-2.76-1.67-4.14-4.52-4.14-8.54,0-.5.04-1.09.13-1.76.08-.67.21-1.34.38-2.01,3.01,0,6.11-1.09,9.29-3.27,3.18-2.17,5.27-4.6,6.28-7.28.84-2.17,1.26-4.18,1.26-6.03,0-4.52-2.05-8.08-6.15-10.67-4.1-2.59-8.91-3.89-14.44-3.89-6.53,0-12.35,1.38-17.45,4.14-5.11,2.76-9.08,6.36-11.93,10.8-2.85,4.44-4.27,9.25-4.27,14.44s1.59,10.21,4.77,15.07c2.68,3.85,6.03,7.83,10.04,11.93,4.02,4.1,8.12,8.04,12.3,11.8,4.18,3.77,7.78,7.24,10.8,10.42,6.86,6.7,11.8,13.52,14.82,20.47,3.01,6.95,4.52,13.77,4.52,20.47,0,7.7-1.8,14.94-5.4,21.72-3.6,6.78-8.58,12.77-14.94,17.95-6.36,5.19-13.73,9.29-22.1,12.3-8.37,3.01-17.24,4.52-26.62,4.52Z"/>
    <path class="cls-1" d="M298.22,220.07c-5.36,0-9.21-2.26-11.55-6.78-1.84-4.02-2.76-8.79-2.76-14.31,0-6.19.92-13.06,2.76-20.59,1.84-7.53,4.35-15.23,7.53-23.1,1.17-2.84,2.72-6.44,4.65-10.8,1.92-4.35,4.23-8.62,6.91-12.81-2.35,2.01-5.11,3.64-8.29,4.9-3.18,1.26-6.28,1.88-9.29,1.88-2.35,0-4.27-.33-5.78-1-1.34,2.68-3.52,7.03-6.53,13.06-3.01,6.03-7.03,13.14-12.05,21.35-.5.84-.97.8-1.38-.13-.42-.92-.63-2.22-.63-3.89,0-1.34.16-2.76.5-4.27.33-1.51.84-2.93,1.51-4.27,1.67-3.18,3.35-6.49,5.02-9.92,1.67-3.43,3.18-6.49,4.52-9.17,1.34-2.68,2.09-4.35,2.26-5.02-3.01-1.51-5.27-3.64-6.78-6.4-1.51-2.76-2.26-5.48-2.26-8.16s.63-5.11,1.88-7.28c1.26-2.17,3.14-3.85,5.65-5.02,1.51-.5,2.93-.75,4.27-.75,3.68,0,6.69,1.17,9.04,3.52-.17.67-.29,1.38-.38,2.14-.09.75-.13,1.55-.13,2.39,0,5.19,2.09,9.04,6.28,11.55,4.18,2.51,8.7,3.43,13.56,2.76,2.34-3.35,5.02-6.28,8.04-8.79,3.01-2.51,6.28-3.77,9.79-3.77,1.84,0,4.48.09,7.91.25,3.43.17,5.9.17,7.41,0-1,.67-2.18,2.01-3.52,4.02-1.34,2.01-2.6,4.1-3.77,6.28-1.17,2.18-2.1,3.85-2.76,5.02-4.52,8.71-8.71,17.37-12.56,25.99-3.85,8.62-6.78,16.87-8.79,24.74-.34,1.51-.63,2.89-.88,4.14-.25,1.26-.38,2.56-.38,3.89,0,5.02,1.67,7.53,5.02,7.53,2.34,0,5.69-1.67,10.04-5.02,3.85-3.18,7.28-6.69,10.3-10.55,3.35-4.35,6.53-9.04,9.54-14.06,3.01-5.02,5.61-9.63,7.78-13.81.84-1.34,1.42-2.01,1.76-2.01,1,0,1.51,1.51,1.51,4.52,0,1.17-.17,2.6-.5,4.27-.34,1.68-.92,3.27-1.76,4.77-2.51,4.19-5.36,8.75-8.54,13.69-3.18,4.94-6.45,9.75-9.79,14.44-2.18,3.01-5.23,6.45-9.17,10.3-3.94,3.85-8.12,7.2-12.56,10.04-4.44,2.84-8.66,4.27-12.68,4.27Z"/>
    <path class="cls-1" d="M352.71,219.82c-2.18,0-4.27-.46-6.28-1.38-2.01-.92-3.68-2.72-5.02-5.4-1.84-4.02-2.76-8.79-2.76-14.31,0-6.03.92-12.76,2.76-20.21,1.84-7.45,4.27-15.11,7.28-22.98,1.17-2.85,2.68-6.36,4.52-10.55,1.84-4.18,4.02-8.37,6.53-12.56,2.51-4.18,5.4-7.66,8.66-10.42,3.26-2.76,6.82-4.14,10.67-4.14,1.84,0,4.43.09,7.78.25,3.35.17,5.78.17,7.28,0-1,.67-2.18,2.01-3.52,4.02-1.34,2.01-2.6,4.06-3.77,6.15-1.17,2.1-2.1,3.73-2.76,4.9-4.36,8.71-8.46,17.33-12.3,25.86-3.85,8.54-6.78,16.74-8.79,24.61-.34,1.34-.59,2.68-.75,4.02-.17,1.34-.25,2.6-.25,3.77,0,4.86,1.59,7.28,4.77,7.28,1.34,0,2.8-.38,4.39-1.13,1.59-.75,3.47-1.97,5.65-3.64,3.85-3.01,7.2-6.44,10.04-10.3,3.35-4.35,6.53-9,9.54-13.94,3.01-4.94,5.61-9.5,7.78-13.69.84-1.34,1.42-2.01,1.76-2.01,1,0,1.51,1.42,1.51,4.27,0,1.34-.21,2.89-.63,4.65-.42,1.76-1.05,3.39-1.88,4.9-2.35,4.02-5.11,8.46-8.29,13.31-3.18,4.86-6.45,9.54-9.79,14.06-2.35,3.18-5.44,6.7-9.29,10.55-3.85,3.85-7.95,7.16-12.3,9.92-4.35,2.76-8.54,4.14-12.56,4.14Z"/>
    <path class="cls-1" d="M462.19,219.82c-5.69,0-9.59-1.72-11.68-5.15-2.1-3.43-3.14-7.41-3.14-11.93,0-5.53,1.09-12.18,3.26-19.96,2.17-7.78,4.73-15.65,7.66-23.61,2.93-7.95,5.56-15.02,7.91-21.22.67-1.51,1.01-3.1,1.01-4.77,0-1.84-.59-3.18-1.76-4.02-1.17-.84-2.68-1.26-4.52-1.26-2.68,0-5.69.84-9.04,2.51-5.19,2.68-10.13,6.95-14.82,12.81-4.69,5.86-8.46,11.97-11.3,18.33-3.18,7.2-6.03,14.4-8.54,21.59-2.51,7.2-4.52,13.06-6.03,17.58-1,2.85-1.93,5.78-2.76,8.79-.84,3.01-1.68,5.94-2.51,8.79h-24.36c2.18-8.37,4.1-14.65,5.78-18.83,2.84-7.36,5.73-14.73,8.66-22.1,2.93-7.36,5.48-13.89,7.66-19.59.67-1.67,1.71-4.81,3.14-9.42,1.42-4.6,2.76-9.42,4.02-14.44,1.26-5.02,1.88-9.12,1.88-12.3,0-1.84-.25-3.1-.75-3.77,1.51,0,3.22-.04,5.15-.13,1.92-.08,3.72-.13,5.4-.13,2.34,0,4.56.09,6.65.25,2.09.17,3.47.59,4.14,1.26,2.01,1.51,3.01,3.69,3.01,6.53,0,2.01-.38,4.02-1.13,6.03-.75,2.01-1.3,3.68-1.63,5.02,2.34-2.17,4.77-4.27,7.28-6.28,2.51-2.01,6.36-4.6,11.55-7.78,3.01-1.84,6.78-3.35,11.3-4.52,4.52-1.17,8.62-1.76,12.3-1.76,9.54,0,14.32,4.44,14.32,13.31,0,1.51-.12,3.18-.38,5.02-.25,1.84-.8,3.85-1.63,6.03-.84,2.68-2.18,6.36-4.02,11.05-1.84,4.69-3.73,9.67-5.65,14.94-1.93,5.27-3.56,10.26-4.9,14.94-1.34,4.69-2.01,8.46-2.01,11.3,0,4.02,1.51,6.03,4.52,6.03,2.68,0,6.03-1.67,10.04-5.02,3.85-3.18,7.2-6.61,10.04-10.3,3.52-4.35,6.74-9,9.67-13.94,2.93-4.94,5.48-9.5,7.66-13.69.83-1.34,1.42-2.01,1.76-2.01,1.01,0,1.51,1.42,1.51,4.27,0,1.34-.21,2.89-.63,4.65-.42,1.76-1.05,3.39-1.88,4.9-2.35,4.02-5.11,8.46-8.29,13.31-3.18,4.86-6.45,9.54-9.79,14.06-2.35,3.18-5.44,6.7-9.29,10.55-3.85,3.85-7.95,7.16-12.3,9.92-4.35,2.76-8.54,4.14-12.56,4.14Z"/>
    <path class="cls-1" d="M786.63,223.33c-5.69,0-11.05-.75-16.07-2.26-5.02-1.51-9.13-3.85-12.3-7.03-3.18-3.18-4.77-7.2-4.77-12.05,0-3.68,1.13-7.28,3.39-10.8,2.26-3.51,5.48-5.27,9.67-5.27,1.84,0,3.51.42,5.02,1.25,1.51.84,2.51,1.93,3.01,3.27-.17.17-.59.71-1.26,1.63-.67.92-1.09,1.55-1.26,1.88-1.51,3.01-2.26,5.78-2.26,8.29,0,3.52,1.3,6.36,3.89,8.54,2.59,2.18,5.98,3.27,10.17,3.27,5.53-.17,10.34-2.14,14.44-5.9,4.1-3.77,6.15-8.24,6.15-13.43,0-3.01-.67-5.86-2.01-8.54-2.18-4.52-5.07-8.41-8.66-11.68-3.6-3.27-7.03-6.57-10.3-9.92-3.27-3.35-5.65-7.36-7.16-12.05-.67-2.17-1.01-4.85-1.01-8.04s.42-6.32,1.26-9.42c.83-3.1,2.09-5.73,3.77-7.91,2.34-3.18,5.86-6.11,10.55-8.79,5.86-3.18,12.72-4.77,20.59-4.77,5.19,0,9.79.67,13.81,2.01,3.01,1,5.65,2.64,7.91,4.9,2.26,2.26,3.39,5.23,3.39,8.91,0,4.19-1.3,8.16-3.89,11.93-2.6,3.77-6.32,6.07-11.17,6.91-3.01.34-5.69-.21-8.04-1.63-2.35-1.42-3.18-4.14-2.51-8.16,4.52-1,7.78-2.84,9.79-5.53,1-1.51,1.51-3.01,1.51-4.52,0-2.85-1.13-4.81-3.39-5.9-2.26-1.09-4.39-1.63-6.4-1.63-2.51,0-4.9.29-7.16.88-2.26.59-4.31,1.55-6.15,2.89-3.69,3.18-5.53,6.87-5.53,11.05,0,.67.13,1.42.38,2.26.25.84.46,1.68.63,2.51.83,2.18,2.09,4.19,3.77,6.03,1.67,1.85,3.35,3.43,5.02,4.77,4.18,3.01,8.49,6.28,12.93,9.79,4.43,3.52,7.74,7.78,9.92,12.81,1.67,3.51,2.51,7.12,2.51,10.8,0,5.02-1.26,9.59-3.77,13.69-2.51,4.1-5.36,7.33-8.54,9.67,5.53-2.34,10.92-6.49,16.2-12.43,5.27-5.94,9.83-11.84,13.69-17.7,2.51-3.85,4.81-7.49,6.91-10.92,2.09-3.43,4.23-7.24,6.4-11.43.67-1.17,1.26-1.76,1.76-1.76,1.01,0,1.51,1.42,1.51,4.27,0,1.17-.21,2.6-.63,4.27-.42,1.68-1.05,3.35-1.88,5.02-3.01,5.02-5.86,9.67-8.54,13.94-2.68,4.27-5.94,8.91-9.79,13.94-7.7,10.21-15.91,17.45-24.61,21.72-8.71,4.27-19,6.4-30.89,6.4Z"/>
    <path class="cls-1" d="M771.06,153.02c-.49,0-1.08.59-1.75,1.77-2.52,4.86-4.68,8.91-6.54,12.18-1.84,3.25-3.6,6.15-5.26,8.65-1.68,2.52-3.69,5.19-6.03,8.04-3.02,3.85-6.75,7.87-11.19,12.06-4.44,4.18-9.19,7.69-14.31,10.54-5.1,2.85-10.24,4.26-15.43,4.26-6.2,0-10.71-1.96-13.56-5.89-2.85-3.93-4.26-9-4.26-15.19,0-6.87,1.59-14.4,4.77-22.62,3.67,1.85,8.95,2.76,15.82,2.76,3.34,0,6.9-.28,10.66-.87,3.78-.58,7.32-1.47,10.68-2.64,6.87-2.5,12.43-6.15,16.71-10.92,4.26-4.77,6.4-10.33,6.4-16.69,0-5.37-2.18-10.05-6.54-14.07-4.35-4.02-10.45-6.03-18.32-6.03-10.56,0-20.19,2.94-28.89,8.79-8.7,5.87-15.9,13.23-21.59,22.11-3.69,5.68-6.66,11.92-8.91,18.7-2.27,6.78-3.39,13.35-3.39,19.72,0,3.85.49,7.53,1.5,11.05,2.17,7.71,6.36,13.32,12.55,16.83,6.19,3.51,12.9,5.26,20.1,5.26,8.53,0,16.66-2.01,24.35-6.01,4.53-2.34,8.7-5.19,12.57-8.55,3.85-3.34,7.27-7.03,10.29-11.05,3.34-4.53,6.66-9.25,9.91-14.19,3.27-4.93,6.06-9.49,8.42-13.69,1-1.84,1.71-3.64,2.13-5.4.42-1.75.63-3.39.63-4.89,0-2.67-.51-4.02-1.52-4.02ZM709.4,133.11l9.98,3.3,8.39-6.36-.05,10.52,8.63,6.01-10.01,3.2-3.04,10.07-6.15-8.53-10.52.21,6.24-8.48-3.46-9.94Z"/>
    <polygon class="cls-1" points="396.92 71.26 409.67 61.59 409.59 77.59 422.73 86.73 407.49 91.6 402.86 106.92 393.51 93.93 377.51 94.26 386.98 81.36 381.72 66.24 396.92 71.26"/>
    <path class="cls-1" d="M618.62,154.27c-.38,0-.8.35-1.31,1.05,0,.02-.02.03-.02.03-.14.19-.28.42-.42.68-2.18,4.18-4.77,8.74-7.8,13.69-3.01,4.93-6.19,9.58-9.54,13.93-2.85,3.85-6.19,7.29-10.03,10.29-5.37,4.19-9.63,6.27-12.81,6.27-3.51,0-6.06-2.01-7.66-6.03-1.59-4-2.88-8.86-3.9-14.56-.33-2.34-.63-4.68-.87-7.03-.26-2.34-.56-4.68-.87-7.03,2.32-.35,5.02-.93,8.02-1.77,3.02-.84,5.44-1.59,7.29-2.25,5.19-1.85,9.82-4.56,13.93-8.16,4.11-3.6,7.24-8,9.42-13.2,1.01-2.5,1.5-5.1,1.5-7.78,0-1.35-.16-2.67-.49-4.02-.35-1.33-.93-2.59-1.77-3.76-1.17-1.85-2.97-3.18-5.4-4.02-2.43-.84-5.07-1.26-7.9-1.26-3.86,0-8.09.84-12.69,2.52-4.61,1.66-9,4.18-13.18,7.53-5.7,4.51-10.98,9.04-15.84,13.55-4.86,4.53-9.46,9.63-13.81,15.33l4.53-12.57c2.85-2.83,6.24-6.27,10.17-10.29,3.93-4,7.9-8.23,11.92-12.67,4.02-4.44,7.45-8.41,10.29-11.94,5.7-6.85,11.19-14.26,16.45-22.21,5.28-7.95,9.58-15.1,12.93-21.48,1.5-2.83,3.09-6.43,4.77-10.78,1.68-4.35,2.52-8.46,2.52-12.3,0-3.53-.96-6.45-2.88-8.79-1.94-2.34-5.58-3.51-10.92-3.51s-10.52,1.66-15.45,5.02c-4.95,3.36-9.54,7.74-13.81,13.18-4.26,5.45-8.21,11.26-11.8,17.46-3.6,6.19-6.83,12.18-9.67,17.95-2.87,5.77-5.21,10.68-7.04,14.7-4.51,9.19-9,20.08-13.44,32.63-4.42,12.57-8.74,25.29-12.92,38.17-1.85,5.7-3.9,11.61-6.17,17.71-2.25,6.12-4.51,11.76-6.76,16.95-2.27,5.19-4.32,9.46-6.15,12.81h15.31c2.34,0,4.6-1.08,6.78-3.27,1.84-1.68,3.76-4.26,5.77-7.78,2.01-3.53,4.02-7.46,6.03-11.82,2.01-4.35,3.93-8.53,5.79-12.55,1.84-4.02,3.51-7.29,5.02-9.79,2.01-3.53,4.44-7.41,7.29-11.69,2.83-4.26,5.94-8.41,9.28-12.43,3.36-4.02,6.87-7.27,10.56-9.79,3.67-2.52,7.45-3.78,11.29-3.78,2.85,0,4.91.72,6.15,2.15,1.26,1.42,1.89,3.04,1.89,4.89,0,4.18-1.92,7.95-5.77,11.29-3.18,2.85-7.13,4.89-11.82,6.15-4.68,1.26-9.46,1.97-14.31,2.13-1.33,0-2.43.51-3.27,1.52-.84,1-1.66,2.92-2.5,5.77-.68,2.18-1.14,4.56-1.38,7.17-.24,2.59-.38,5.23-.38,7.9,0,4.86.51,9.72,1.5,14.56,1.01,4.86,2.43,9.05,4.28,12.57,1.66,3.18,3.81,5.44,6.4,6.78,2.59,1.33,5.4,2.01,8.41,2.01,3.86,0,7.8-.89,11.82-2.64,4.02-1.77,7.45-3.72,10.29-5.91,3.18-2.52,6.19-5.28,9.04-8.28,2.85-3.01,5.19-5.77,7.03-8.28,3.36-4.53,6.57-9.12,9.68-13.81.52-.79,1.03-1.54,1.5-2.31,0,0,0-.02.02-.02,2.46-3.81,4.68-7.39,6.64-10.73,1-1.68,1.71-3.39,2.13-5.16.4-1.77.63-3.39.63-4.89,0-2.67-.51-4.02-1.52-4.02ZM546.16,102.57c.45-1.84,11.4-45.51,42.79-61.64,1.15-.59,2.43-.68,3.58-.35,1.21.37,2.29,1.21,2.92,2.43,1.22,2.36.28,5.28-2.08,6.48-27.44,14.12-37.73,54.97-37.82,55.37-.65,2.59-3.25,4.18-5.84,3.55-2.6-.65-4.18-3.25-3.55-5.84Z"/>
    <path class="cls-1" d="M706.77,35.37c-2.01-2.6-5.68-3.9-11.05-3.9-6.52,0-12.67,2.18-18.46,6.54-5.77,4.35-11.26,10.08-16.45,17.2-5.19,7.11-9.93,15.03-14.19,23.74-4.26,8.7-8.16,17.44-11.68,26.23-3.51,8.79-6.57,16.99-9.16,24.61-2.6,7.62-4.74,13.95-6.41,18.96-.72,2.22-1.4,4.4-2.06,6.57,0,.02-.02.03-.02.03-1.99,6.48-3.76,12.74-5.33,18.75-.44,1.7-.86,3.34-1.22,4.96-.02,0-.02.02-.02.02-1.43,6.06-2.48,11.61-3.15,16.62-.17.84-.24,1.66-.24,2.5v2.52c0,5.86,1.17,10.5,3.51,13.93,2.34,3.44,5.86,5.16,10.54,5.16s9.63-1.35,14.82-4.02c5.19-2.67,10.05-5.94,14.56-9.79,4.53-3.85,8.04-7.45,10.56-10.8,3.34-4.53,6.61-9.21,9.79-14.07,3.18-4.84,5.94-9.28,8.28-13.3.84-1.5,1.47-3.15,1.89-4.89.42-1.77.63-3.3.63-4.65,0-2.85-.51-4.26-1.5-4.26-.35,0-.93.66-1.77,2.01-2.17,4.18-4.77,8.74-7.78,13.69-3.02,4.93-6.2,9.58-9.54,13.93-1.35,1.68-3.57,4.14-6.66,7.41-3.09,3.27-6.33,5.89-9.67,7.9-3.51,2.18-6.45,3.27-8.79,3.27-3.85,0-5.79-2.5-5.79-7.53v-1.75c0-.68.09-1.35.26-2.01.51-3.18,1.14-6.9,1.89-11.19.75-4.26,1.66-8.56,2.76-12.93,1.08-4.35,2.2-8.11,3.39-11.29l4.02-11.55c1.84-1.68,4.81-4.68,8.91-9.04,4.09-4.35,8.49-9.12,13.18-14.31,4.68-5.19,8.62-9.87,11.8-14.07,5.37-6.52,10.47-13.56,15.33-21.1,4.84-7.53,8.77-14.31,11.8-20.34,1.33-2.5,2.67-5.65,4.02-9.4,1.33-3.78,2.01-7.5,2.01-11.19s-1.01-6.57-3.02-9.16ZM698.24,49.49c-27.44,14.12-37.73,54.97-37.82,55.37-.65,2.59-3.25,4.18-5.84,3.55-2.6-.65-4.18-3.25-3.55-5.84.45-1.84,11.4-45.51,42.79-61.64,1.15-.59,2.43-.68,3.58-.35,1.21.37,2.29,1.21,2.92,2.43,1.22,2.36.28,5.28-2.08,6.48Z"/>
    <path class="cls-1" d="M118.66,280.59c.84-1.17,1.93-3.22,3.27-6.15,1.34-2.93,2.76-6.07,4.27-9.42,1.51-3.35,2.76-6.19,3.77-8.54,2.85-7.03,6.11-15.61,9.79-25.74,3.69-10.13,7.45-20.72,11.3-31.77,3.85-11.05,7.53-21.6,11.05-31.64,3.52-10.04,6.61-18.33,9.29-24.86,2.51-6.03,4.69-10.84,6.53-14.44,1.84-3.6,4.48-6.19,7.91-7.78,3.43-1.59,8.66-2.39,15.69-2.39h7.53c-2.35,1.68-5.4,5.48-9.17,11.43-3.77,5.94-7.33,12.18-10.67,18.71,1.17-1.51,2.26-2.97,3.26-4.4,1-1.42,2.09-2.72,3.27-3.89,5.36-6.53,11.05-11.97,17.08-16.32,6.03-4.35,11.88-6.53,17.58-6.53,4.69,0,8.66,1.76,11.93,5.27,3.27,3.52,4.9,9.46,4.9,17.83,0,7.7-1.47,15.44-4.39,23.23-2.93,7.78-6.82,15.15-11.68,22.1-4.86,6.95-10.21,13.1-16.07,18.46-1.17,1.17-2.47,2.3-3.89,3.39-1.42,1.09-2.89,2.13-4.39,3.14,5.36.5,10.67-.75,15.95-3.77,5.27-3.01,10.13-6.69,14.56-11.05,4.43-4.35,8.08-8.29,10.92-11.8,3.35-4.35,6.74-9.37,10.17-15.07,3.43-5.69,6.24-10.71,8.41-15.07.67-1.17,1.26-1.76,1.76-1.76,1.34,0,2.01,1.51,2.01,4.52,0,2.68-.84,5.44-2.51,8.29-1.34,2.51-3.18,5.69-5.52,9.54-2.35,3.85-4.44,7.2-6.28,10.04-7.7,11.22-16.66,20.43-26.87,27.62-10.21,7.2-22.52,10.8-36.91,10.8h-3.64c-1.26,0-2.55-.09-3.89-.25-4.02-.34-7.78-1.3-11.3-2.89-3.52-1.59-5.86-4.56-7.03-8.91l-14.06,43.95c-1.84,5.86-3.55,10.71-5.15,14.56-1.59,3.85-3.6,6.74-6.03,8.66-2.42,1.92-5.98,2.89-10.67,2.89h-12.05ZM179.18,211.78c2.84,0,6.11-1.46,9.79-4.4,3.68-2.93,7.32-6.61,10.92-11.05,3.6-4.43,6.65-8.75,9.17-12.93,3.85-6.69,7.11-13.56,9.79-20.59,2.68-7.03,4.02-12.81,4.02-17.33,0-5.02-2.01-7.53-6.03-7.53-3.52,0-7.37,1.68-11.55,5.02-3.01,2.35-6.4,5.78-10.17,10.3-3.77,4.52-7.45,9.59-11.05,15.19-3.6,5.61-6.53,11.3-8.79,17.08-2.26,5.78-3.39,11.01-3.39,15.69,0,.84.04,1.63.13,2.39.08.75.21,1.55.38,2.39.84,3.85,3.1,5.78,6.78,5.78Z"/>
  </g>
  <g>
    <text class="cls-3" transform="translate(-413.51 -56.54)"><tspan x="0" y="0" xml:space="preserve"> n More</tspan></text>
    <path class="cls-2" d="M-947.33-84.96l29.3-40.95c.17-.32.54-1.04,1.1-2.28,1.34-2.93,2.73-5.99,4.2-9.27,1.27-2.8,2.32-5.15,3.18-7.14-7.34,1.59-14.93,2.4-22.69,2.4-10.13,0-19.8-.95-28.73-2.82-10.79-2.26-20.24-6.28-28.08-11.96l-.26-.19c-6.97-5.23-12.28-11.84-15.87-19.7-3.32-7.27-5-14.9-5-22.69,0-10.18,2.88-19.74,8.54-28.41,4.53-6.93,13.3-16.02,29.3-19.92l.74-.17.39-.08c1.57-.31,3.08-.54,4.5-.7,1.76-.19,3.47-.29,5.09-.29,7.3,0,14.11,1.62,20.28,4.82-3-3.27-5.87-6.45-8.6-9.51-5.72-6.42-10.48-13.56-14.13-21.22-4.27-8.95-6.44-18.96-6.44-29.74,0-10.2,2.16-20.21,6.42-29.76,4.37-9.8,10.75-18.26,18.94-25.16,8.76-7.49,18.96-12.85,30.26-15.86,9.71-2.59,19.93-3.9,30.37-3.9,13.98,0,25.34,1.99,34.72,6.08,10.72,4.69,18.91,11.32,24.34,19.71,5.37,8.33,8.09,17.42,8.09,27.04,0,8.27-1.84,16.31-5.46,23.87-.53,1.11-1.09,2.19-1.69,3.25,3.38-.4,7.05-.6,11.06-.6h18.94c3.29-.67,6.63-1.01,9.93-1.01s6.35.34,9.38,1.01h12.77c3.05-2.89,6.55-5.26,10.45-7.09l1.37-.64,1.43-.48c4.18-1.39,8.4-2.1,12.56-2.1,10.71,0,20.24,3.87,27.56,11.18l2.15,2.15c5.21-2.32,10.81-3.53,16.5-3.53,2.25,0,5.16.09,9.17.28,1.23.06,2.28.1,3.16.1.08,0,.42,0,.5,0l6.67-.56,1.06,3.08,12.53-17.08-18.19-52.27,52.55,17.35,44.09-33.45-.26,55.34,37.76,26.25c.8-.03,1.59-.05,2.37-.05,11.9,0,22.06,3.94,29.23,10.91,1.85-4.33,3.72-8.41,5.58-12.22,2.05-4.48,4.49-9.57,7.26-15.15,3.03-6.17,6.56-12.73,10.49-19.47,4.05-7.02,8.7-13.9,13.8-20.42,5.93-7.57,12.57-13.86,19.74-18.72,9.29-6.33,19.45-9.54,30.17-9.54,16.81,0,26.19,7.07,31.11,13,5.84,7.12,8.91,15.93,8.91,25.52,0,2.48-.18,4.99-.53,7.51,2.51-4.11,5.14-8.05,7.87-11.8,6.68-9.16,14.03-16.79,21.84-22.68,10.43-7.85,21.95-11.82,34.24-11.82,17.29,0,26.83,7.66,31.79,14.09,5.55,7.15,8.49,15.86,8.49,25.19,0,6.6-1.18,13.29-3.49,19.89-1.81,5.04-3.6,9.2-5.49,12.79-2.49,4.96-5.58,10.46-9.19,16.35,4.89-.94,9.91-1.42,15.06-1.42,13.57,0,25.01,3.76,34.04,11.19,3.21-2.81,6.87-5.39,10.95-7.72l.4-.23c9.82-5.33,20.95-8,33.2-8,7.99,0,15.42,1.13,22.1,3.35,6.9,2.3,13.01,6.08,18.16,11.23,6.83,6.83,10.62,15.66,11.03,25.63,11.09.61,26.4,8.95,26.4,30.45,0,3.34-.46,6.81-1.41,10.61-.88,3.53-2.18,7.03-3.87,10.4l-.46.91-.52.87c-3,5-5.96,9.83-8.8,14.36-3.11,4.96-6.88,10.33-11.2,15.97-10.07,13.35-21.48,23.23-33.87,29.31-12.29,6.03-26.57,9.08-42.43,9.08-8.22,0-16.16-1.13-23.61-3.37-7.25-2.17-13.66-5.48-19.12-9.86-1.07.61-2.15,1.2-3.23,1.76-11.4,5.93-23.65,8.94-36.39,8.94-11.78,0-22.9-2.92-33.04-8.68-3.61-2.05-6.92-4.5-9.9-7.32-4.16,3.02-8.55,5.72-13.11,8.07-8.93,4.6-17.95,6.93-26.83,6.93-10.45,0-19.68-3.55-26.69-10.14-3.33,2.12-6.95,4.03-10.97,5.8-7.41,3.22-14.92,4.85-22.35,4.85s-14.05-1.65-20.39-4.91c-4.15-2.16-7.8-4.95-10.95-8.36-.25.24-.49.48-.74.71-8.94,8.71-18.48,10.54-24.91,10.54h-30.78c-3.82,1-7.65,1.5-11.41,1.5-18.38,0-28.19-9.49-32.53-15.44l-4.09,13.93h-61.44c-3.82,1-7.66,1.51-11.42,1.51-5.94,0-11.71-1.26-17.16-3.75-2.42-1.1-5.48-2.88-8.6-5.66-.63.42-1.26.84-1.89,1.24-8.72,5.59-17.75,8.42-26.84,8.42-15.02,0-28.04-7.83-34.83-20.94l-.29-.55-.26-.57c-.71-1.56-1.36-3.16-1.92-4.81-5.16,5.13-10.64,9.75-16.41,13.81-14.68,10.34-32.18,15.58-52,15.58h-3.65c-2.14,0-4.29-.12-6.56-.38-.08,0-.17-.02-.25-.02l-4.51,14.08c-2.06,6.57-3.99,12.01-5.88,16.59-3.32,8.03-8.03,14.5-13.99,19.21-7.16,5.66-16.22,8.54-26.94,8.54h-63.05Z"/>
    <path class="cls-1" d="M-932.24-168.44c-8.37,0-16.16-.75-23.35-2.26-7.2-1.51-13.23-4.02-18.08-7.53-3.35-2.51-5.9-5.69-7.66-9.54-1.76-3.85-2.64-7.78-2.64-11.8,0-5.02,1.42-9.71,4.27-14.06,2.85-4.35,7.36-7.28,13.56-8.79.84-.16,1.63-.29,2.39-.38.75-.08,1.46-.13,2.14-.13,3.35,0,6.32.75,8.91,2.26,2.59,1.51,4.4,3.27,5.4,5.27-.67.5-1.59,1.38-2.76,2.64-1.17,1.25-1.93,2.3-2.26,3.14-2.51,4.19-3.77,8.37-3.77,12.56,0,5.69,2.22,10.34,6.65,13.94,4.43,3.6,10.25,5.4,17.45,5.4,6.53,0,12.68-1.63,18.46-4.9s10.46-7.66,14.06-13.18c3.6-5.53,5.4-11.88,5.4-19.09,0-5.36-1.26-11.05-3.77-17.08-2.18-5.19-5.15-9.79-8.91-13.81-3.77-4.02-7.33-7.78-10.67-11.3-4.52-4.85-8.83-9.58-12.93-14.19-4.1-4.6-7.45-9.62-10.04-15.07-2.6-5.44-3.89-11.59-3.89-18.46s1.38-12.89,4.14-19.08c2.76-6.19,6.74-11.46,11.93-15.82,5.86-5.02,12.56-8.54,20.09-10.55,7.53-2.01,15.4-3.01,23.61-3.01,10.21,0,18.29,1.3,24.23,3.89,5.94,2.6,10.21,5.9,12.81,9.92,2.59,4.02,3.89,8.29,3.89,12.81s-.97,8.54-2.89,12.56c-1.93,4.02-4.56,7.41-7.91,10.17-3.35,2.76-7.03,4.48-11.05,5.15-.67.17-1.34.25-2.01.25h-2.26c-3.69,0-6.91-.84-9.67-2.51-2.76-1.67-4.14-4.52-4.14-8.54,0-.5.04-1.09.13-1.76.08-.67.21-1.34.38-2.01,3.01,0,6.11-1.09,9.29-3.27,3.18-2.17,5.27-4.6,6.28-7.28.84-2.17,1.26-4.18,1.26-6.03,0-4.52-2.05-8.08-6.15-10.67-4.1-2.59-8.91-3.89-14.44-3.89-6.53,0-12.35,1.38-17.45,4.14-5.11,2.76-9.08,6.36-11.93,10.8-2.85,4.44-4.27,9.25-4.27,14.44s1.59,10.21,4.77,15.07c2.68,3.85,6.03,7.83,10.04,11.93,4.02,4.1,8.12,8.04,12.3,11.8,4.18,3.77,7.78,7.24,10.8,10.42,6.86,6.7,11.8,13.52,14.82,20.47,3.01,6.95,4.52,13.77,4.52,20.47,0,7.7-1.8,14.94-5.4,21.72-3.6,6.78-8.58,12.77-14.94,17.95-6.36,5.19-13.73,9.29-22.1,12.3-8.37,3.01-17.24,4.52-26.62,4.52Z"/>
    <path class="cls-1" d="M-716.78-171.7c-5.36,0-9.21-2.26-11.55-6.78-1.84-4.02-2.76-8.79-2.76-14.31,0-6.19.92-13.06,2.76-20.59,1.84-7.53,4.35-15.23,7.53-23.1,1.17-2.84,2.72-6.44,4.65-10.8,1.92-4.35,4.23-8.62,6.91-12.81-2.35,2.01-5.11,3.64-8.29,4.9-3.18,1.26-6.28,1.88-9.29,1.88-2.35,0-4.27-.33-5.78-1-1.34,2.68-3.52,7.03-6.53,13.06s-7.03,13.14-12.05,21.35c-.5.84-.97.8-1.38-.13-.42-.92-.63-2.22-.63-3.89,0-1.34.16-2.76.5-4.27.33-1.51.84-2.93,1.51-4.27,1.67-3.18,3.35-6.49,5.02-9.92,1.67-3.43,3.18-6.49,4.52-9.17,1.34-2.68,2.09-4.35,2.26-5.02-3.01-1.51-5.27-3.64-6.78-6.4-1.51-2.76-2.26-5.48-2.26-8.16s.63-5.11,1.88-7.28c1.26-2.17,3.14-3.85,5.65-5.02,1.51-.5,2.93-.75,4.27-.75,3.68,0,6.69,1.17,9.04,3.52-.17.67-.29,1.38-.38,2.14-.09.75-.13,1.55-.13,2.39,0,5.19,2.09,9.04,6.28,11.55,4.18,2.51,8.7,3.43,13.56,2.76,2.34-3.35,5.02-6.28,8.04-8.79,3.01-2.51,6.28-3.77,9.79-3.77,1.84,0,4.48.09,7.91.25,3.43.17,5.9.17,7.41,0-1,.67-2.18,2.01-3.52,4.02-1.34,2.01-2.6,4.1-3.77,6.28-1.17,2.18-2.1,3.85-2.76,5.02-4.52,8.71-8.71,17.37-12.56,25.99-3.85,8.62-6.78,16.87-8.79,24.74-.34,1.51-.63,2.89-.88,4.14-.25,1.26-.38,2.56-.38,3.89,0,5.02,1.67,7.53,5.02,7.53,2.34,0,5.69-1.67,10.04-5.02,3.85-3.18,7.28-6.69,10.3-10.55,3.35-4.35,6.53-9.04,9.54-14.06,3.01-5.02,5.61-9.63,7.78-13.81.84-1.34,1.42-2.01,1.76-2.01,1,0,1.51,1.51,1.51,4.52,0,1.17-.17,2.6-.5,4.27-.34,1.68-.92,3.27-1.76,4.77-2.51,4.19-5.36,8.75-8.54,13.69-3.18,4.94-6.45,9.75-9.79,14.44-2.18,3.01-5.23,6.45-9.17,10.3-3.94,3.85-8.12,7.2-12.56,10.04-4.44,2.84-8.66,4.27-12.68,4.27Z"/>
    <path class="cls-1" d="M-662.29-171.95c-2.18,0-4.27-.46-6.28-1.38-2.01-.92-3.68-2.72-5.02-5.4-1.84-4.02-2.76-8.79-2.76-14.31,0-6.03.92-12.76,2.76-20.21,1.84-7.45,4.27-15.11,7.28-22.98,1.17-2.85,2.68-6.36,4.52-10.55,1.84-4.18,4.02-8.37,6.53-12.56,2.51-4.18,5.4-7.66,8.66-10.42,3.26-2.76,6.82-4.14,10.67-4.14,1.84,0,4.43.09,7.78.25,3.35.17,5.78.17,7.28,0-1,.67-2.18,2.01-3.52,4.02-1.34,2.01-2.6,4.06-3.77,6.15-1.17,2.1-2.1,3.73-2.76,4.9-4.36,8.71-8.46,17.33-12.3,25.86-3.85,8.54-6.78,16.74-8.79,24.61-.34,1.34-.59,2.68-.75,4.02-.17,1.34-.25,2.6-.25,3.77,0,4.86,1.59,7.28,4.77,7.28,1.34,0,2.8-.38,4.39-1.13,1.59-.75,3.47-1.97,5.65-3.64,3.85-3.01,7.2-6.44,10.04-10.3,3.35-4.35,6.53-9,9.54-13.94,3.01-4.94,5.61-9.5,7.78-13.69.84-1.34,1.42-2.01,1.76-2.01,1,0,1.51,1.42,1.51,4.27,0,1.34-.21,2.89-.63,4.65-.42,1.76-1.05,3.39-1.88,4.9-2.35,4.02-5.11,8.46-8.29,13.31-3.18,4.86-6.45,9.54-9.79,14.06-2.35,3.18-5.44,6.7-9.29,10.55-3.85,3.85-7.95,7.16-12.3,9.92-4.35,2.76-8.54,4.14-12.56,4.14Z"/>
    <path class="cls-1" d="M-552.81-171.95c-5.69,0-9.59-1.72-11.68-5.15-2.1-3.43-3.14-7.41-3.14-11.93,0-5.53,1.09-12.18,3.26-19.96,2.17-7.78,4.73-15.65,7.66-23.61,2.93-7.95,5.56-15.02,7.91-21.22.67-1.51,1.01-3.1,1.01-4.77,0-1.84-.59-3.18-1.76-4.02-1.17-.84-2.68-1.26-4.52-1.26-2.68,0-5.69.84-9.04,2.51-5.19,2.68-10.13,6.95-14.82,12.81-4.69,5.86-8.46,11.97-11.3,18.33-3.18,7.2-6.03,14.4-8.54,21.59-2.51,7.2-4.52,13.06-6.03,17.58-1,2.85-1.93,5.78-2.76,8.79-.84,3.01-1.68,5.94-2.51,8.79h-24.36c2.18-8.37,4.1-14.65,5.78-18.83,2.84-7.36,5.73-14.73,8.66-22.1,2.93-7.36,5.48-13.89,7.66-19.59.67-1.67,1.71-4.81,3.14-9.42,1.42-4.6,2.76-9.42,4.02-14.44s1.88-9.12,1.88-12.3c0-1.84-.25-3.1-.75-3.77,1.51,0,3.22-.04,5.15-.13,1.92-.08,3.72-.13,5.4-.13,2.34,0,4.56.09,6.65.25,2.09.17,3.47.59,4.14,1.26,2.01,1.51,3.01,3.69,3.01,6.53,0,2.01-.38,4.02-1.13,6.03-.75,2.01-1.3,3.68-1.63,5.02,2.34-2.17,4.77-4.27,7.28-6.28,2.51-2.01,6.36-4.6,11.55-7.78,3.01-1.84,6.78-3.35,11.3-4.52,4.52-1.17,8.62-1.76,12.3-1.76,9.54,0,14.32,4.44,14.32,13.31,0,1.51-.12,3.18-.38,5.02-.25,1.84-.8,3.85-1.63,6.03-.84,2.68-2.18,6.36-4.02,11.05-1.84,4.69-3.73,9.67-5.65,14.94-1.93,5.27-3.56,10.26-4.9,14.94-1.34,4.69-2.01,8.46-2.01,11.3,0,4.02,1.51,6.03,4.52,6.03,2.68,0,6.03-1.67,10.04-5.02,3.85-3.18,7.2-6.61,10.04-10.3,3.52-4.35,6.74-9,9.67-13.94,2.93-4.94,5.48-9.5,7.66-13.69.83-1.34,1.42-2.01,1.76-2.01,1.01,0,1.51,1.42,1.51,4.27,0,1.34-.21,2.89-.63,4.65-.42,1.76-1.05,3.39-1.88,4.9-2.35,4.02-5.11,8.46-8.29,13.31-3.18,4.86-6.45,9.54-9.79,14.06-2.35,3.18-5.44,6.7-9.29,10.55-3.85,3.85-7.95,7.16-12.3,9.92-4.35,2.76-8.54,4.14-12.56,4.14Z"/>
    <path class="cls-1" d="M-228.37-168.44c-5.69,0-11.05-.75-16.07-2.26-5.02-1.51-9.13-3.85-12.3-7.03-3.18-3.18-4.77-7.2-4.77-12.05,0-3.68,1.13-7.28,3.39-10.8,2.26-3.51,5.48-5.27,9.67-5.27,1.84,0,3.51.42,5.02,1.25,1.51.84,2.51,1.93,3.01,3.27-.17.17-.59.71-1.26,1.63-.67.92-1.09,1.55-1.26,1.88-1.51,3.01-2.26,5.78-2.26,8.29,0,3.52,1.3,6.36,3.89,8.54,2.59,2.18,5.98,3.27,10.17,3.27,5.53-.17,10.34-2.14,14.44-5.9,4.1-3.77,6.15-8.24,6.15-13.43,0-3.01-.67-5.86-2.01-8.54-2.18-4.52-5.07-8.41-8.66-11.68-3.6-3.27-7.03-6.57-10.3-9.92-3.27-3.35-5.65-7.36-7.16-12.05-.67-2.17-1.01-4.85-1.01-8.04s.42-6.32,1.26-9.42c.83-3.1,2.09-5.73,3.77-7.91,2.34-3.18,5.86-6.11,10.55-8.79,5.86-3.18,12.72-4.77,20.59-4.77,5.19,0,9.79.67,13.81,2.01,3.01,1,5.65,2.64,7.91,4.9s3.39,5.23,3.39,8.91c0,4.19-1.3,8.16-3.89,11.93-2.6,3.77-6.32,6.07-11.17,6.91-3.01.34-5.69-.21-8.04-1.63-2.35-1.42-3.18-4.14-2.51-8.16,4.52-1,7.78-2.84,9.79-5.53,1-1.51,1.51-3.01,1.51-4.52,0-2.85-1.13-4.81-3.39-5.9-2.26-1.09-4.39-1.63-6.4-1.63-2.51,0-4.9.29-7.16.88-2.26.59-4.31,1.55-6.15,2.89-3.69,3.18-5.53,6.87-5.53,11.05,0,.67.13,1.42.38,2.26.25.84.46,1.68.63,2.51.83,2.18,2.09,4.19,3.77,6.03,1.67,1.85,3.35,3.43,5.02,4.77,4.18,3.01,8.49,6.28,12.93,9.79,4.43,3.52,7.74,7.78,9.92,12.81,1.67,3.51,2.51,7.12,2.51,10.8,0,5.02-1.26,9.59-3.77,13.69-2.51,4.1-5.36,7.33-8.54,9.67,5.53-2.34,10.92-6.49,16.2-12.43,5.27-5.94,9.83-11.84,13.69-17.7,2.51-3.85,4.81-7.49,6.91-10.92,2.09-3.43,4.23-7.24,6.4-11.43.67-1.17,1.26-1.76,1.76-1.76,1.01,0,1.51,1.42,1.51,4.27,0,1.17-.21,2.6-.63,4.27-.42,1.68-1.05,3.35-1.88,5.02-3.01,5.02-5.86,9.67-8.54,13.94-2.68,4.27-5.94,8.91-9.79,13.94-7.7,10.21-15.91,17.45-24.61,21.72-8.71,4.27-19,6.4-30.89,6.4Z"/>
    <path class="cls-1" d="M-243.94-238.75c-.49,0-1.08.59-1.75,1.77-2.52,4.86-4.68,8.91-6.54,12.18-1.84,3.25-3.6,6.15-5.26,8.65-1.68,2.52-3.69,5.19-6.03,8.04-3.02,3.85-6.75,7.87-11.19,12.06-4.44,4.18-9.19,7.69-14.31,10.54-5.1,2.85-10.24,4.26-15.43,4.26-6.2,0-10.71-1.96-13.56-5.89-2.85-3.93-4.26-9-4.26-15.19,0-6.87,1.59-14.4,4.77-22.62,3.67,1.85,8.95,2.76,15.82,2.76,3.34,0,6.9-.28,10.66-.87,3.78-.58,7.32-1.47,10.68-2.64,6.87-2.5,12.43-6.15,16.71-10.92,4.26-4.77,6.4-10.33,6.4-16.69,0-5.37-2.18-10.05-6.54-14.07-4.35-4.02-10.45-6.03-18.32-6.03-10.56,0-20.19,2.94-28.89,8.79-8.7,5.87-15.9,13.23-21.59,22.11-3.69,5.68-6.66,11.92-8.91,18.7-2.27,6.78-3.39,13.35-3.39,19.72,0,3.85.49,7.53,1.5,11.05,2.17,7.71,6.36,13.32,12.55,16.83,6.19,3.51,12.9,5.26,20.1,5.26,8.53,0,16.66-2.01,24.35-6.01,4.53-2.34,8.7-5.19,12.57-8.55,3.85-3.34,7.27-7.03,10.29-11.05,3.34-4.53,6.66-9.25,9.91-14.19,3.27-4.93,6.06-9.49,8.42-13.69,1-1.84,1.71-3.64,2.13-5.4.42-1.75.63-3.39.63-4.89,0-2.67-.51-4.02-1.52-4.02ZM-305.6-258.66l9.98,3.3,8.39-6.36-.05,10.52,8.63,6.01-10.01,3.2-3.04,10.07-6.15-8.53-10.52.21,6.24-8.48-3.46-9.94Z"/>
    <polygon class="cls-1" points="-618.08 -320.51 -605.33 -330.18 -605.41 -314.18 -592.27 -305.04 -607.51 -300.17 -612.14 -284.85 -621.49 -297.84 -637.49 -297.51 -628.02 -310.41 -633.28 -325.53 -618.08 -320.51"/>
    <path class="cls-1" d="M-396.38-237.5c-.38,0-.8.35-1.31,1.05,0,.02-.02.03-.02.03-.14.19-.28.42-.42.68-2.18,4.18-4.77,8.74-7.8,13.69-3.01,4.93-6.19,9.58-9.54,13.93-2.85,3.85-6.19,7.29-10.03,10.29-5.37,4.19-9.63,6.27-12.81,6.27-3.51,0-6.06-2.01-7.66-6.03-1.59-4-2.88-8.86-3.9-14.56-.33-2.34-.63-4.68-.87-7.03-.26-2.34-.56-4.68-.87-7.03,2.32-.35,5.02-.93,8.02-1.77,3.02-.84,5.44-1.59,7.29-2.25,5.19-1.85,9.82-4.56,13.93-8.16,4.11-3.6,7.24-8,9.42-13.2,1.01-2.5,1.5-5.1,1.5-7.78,0-1.35-.16-2.67-.49-4.02-.35-1.33-.93-2.59-1.77-3.76-1.17-1.85-2.97-3.18-5.4-4.02-2.43-.84-5.07-1.26-7.9-1.26-3.86,0-8.09.84-12.69,2.52-4.61,1.66-9,4.18-13.18,7.53-5.7,4.51-10.98,9.04-15.84,13.55-4.86,4.53-9.46,9.63-13.81,15.33l4.53-12.57c2.85-2.83,6.24-6.27,10.17-10.29,3.93-4,7.9-8.23,11.92-12.67,4.02-4.44,7.45-8.41,10.29-11.94,5.7-6.85,11.19-14.26,16.45-22.21,5.28-7.95,9.58-15.1,12.93-21.48,1.5-2.83,3.09-6.43,4.77-10.78,1.68-4.35,2.52-8.46,2.52-12.3,0-3.53-.96-6.45-2.88-8.79-1.94-2.34-5.58-3.51-10.92-3.51s-10.52,1.66-15.45,5.02c-4.95,3.36-9.54,7.74-13.81,13.18-4.26,5.45-8.21,11.26-11.8,17.46-3.6,6.19-6.83,12.18-9.67,17.95-2.87,5.77-5.21,10.68-7.04,14.7-4.51,9.19-9,20.08-13.44,32.63-4.42,12.57-8.74,25.29-12.92,38.17-1.85,5.7-3.9,11.61-6.17,17.71-2.25,6.12-4.51,11.76-6.76,16.95-2.27,5.19-4.32,9.46-6.15,12.81h15.31c2.34,0,4.6-1.08,6.78-3.27,1.84-1.68,3.76-4.26,5.77-7.78,2.01-3.53,4.02-7.46,6.03-11.82,2.01-4.35,3.93-8.53,5.79-12.55,1.84-4.02,3.51-7.29,5.02-9.79,2.01-3.53,4.44-7.41,7.29-11.69,2.83-4.26,5.94-8.41,9.28-12.43,3.36-4.02,6.87-7.27,10.56-9.79,3.67-2.52,7.45-3.78,11.29-3.78,2.85,0,4.91.72,6.15,2.15,1.26,1.42,1.89,3.04,1.89,4.89,0,4.18-1.92,7.95-5.77,11.29-3.18,2.85-7.13,4.89-11.82,6.15-4.68,1.26-9.46,1.97-14.31,2.13-1.33,0-2.43.51-3.27,1.52-.84,1-1.66,2.92-2.5,5.77-.68,2.18-1.14,4.56-1.38,7.17-.24,2.59-.38,5.23-.38,7.9,0,4.86.51,9.72,1.5,14.56,1.01,4.86,2.43,9.05,4.28,12.57,1.66,3.18,3.81,5.44,6.4,6.78,2.59,1.33,5.4,2.01,8.41,2.01,3.86,0,7.8-.89,11.82-2.64,4.02-1.77,7.45-3.72,10.29-5.91,3.18-2.52,6.19-5.28,9.04-8.28,2.85-3.01,5.19-5.77,7.03-8.28,3.36-4.53,6.57-9.12,9.68-13.81.52-.79,1.03-1.54,1.5-2.31,0,0,0-.02.02-.02,2.46-3.81,4.68-7.39,6.64-10.73,1-1.68,1.71-3.39,2.13-5.16.4-1.77.63-3.39.63-4.89,0-2.67-.51-4.02-1.52-4.02ZM-468.84-289.2c.45-1.84,11.4-45.51,42.79-61.64,1.15-.59,2.43-.68,3.58-.35,1.21.37,2.29,1.21,2.92,2.43,1.22,2.36.28,5.28-2.08,6.48-27.44,14.12-37.73,54.97-37.82,55.37-.65,2.59-3.25,4.18-5.84,3.55-2.6-.65-4.18-3.25-3.55-5.84Z"/>
    <path class="cls-1" d="M-308.23-356.4c-2.01-2.6-5.68-3.9-11.05-3.9-6.52,0-12.67,2.18-18.46,6.54-5.77,4.35-11.26,10.08-16.45,17.2-5.19,7.11-9.93,15.03-14.19,23.74-4.26,8.7-8.16,17.44-11.68,26.23-3.51,8.79-6.57,16.99-9.16,24.61-2.6,7.62-4.74,13.95-6.41,18.96-.72,2.22-1.4,4.4-2.06,6.57,0,.02-.02.03-.02.03-1.99,6.48-3.76,12.74-5.33,18.75-.44,1.7-.86,3.34-1.22,4.96-.02,0-.02.02-.02.02-1.43,6.06-2.48,11.61-3.15,16.62-.17.84-.24,1.66-.24,2.5v2.52c0,5.86,1.17,10.5,3.51,13.93,2.34,3.44,5.86,5.16,10.54,5.16s9.63-1.35,14.82-4.02c5.19-2.67,10.05-5.94,14.56-9.79,4.53-3.85,8.04-7.45,10.56-10.8,3.34-4.53,6.61-9.21,9.79-14.07,3.18-4.84,5.94-9.28,8.28-13.3.84-1.5,1.47-3.15,1.89-4.89.42-1.77.63-3.3.63-4.65,0-2.85-.51-4.26-1.5-4.26-.35,0-.93.66-1.77,2.01-2.17,4.18-4.77,8.74-7.78,13.69-3.02,4.93-6.2,9.58-9.54,13.93-1.35,1.68-3.57,4.14-6.66,7.41-3.09,3.27-6.33,5.89-9.67,7.9-3.51,2.18-6.45,3.27-8.79,3.27-3.85,0-5.79-2.5-5.79-7.53v-1.75c0-.68.09-1.35.26-2.01.51-3.18,1.14-6.9,1.89-11.19.75-4.26,1.66-8.56,2.76-12.93,1.08-4.35,2.2-8.11,3.39-11.29l4.02-11.55c1.84-1.68,4.81-4.68,8.91-9.04,4.09-4.35,8.49-9.12,13.18-14.31,4.68-5.19,8.62-9.87,11.8-14.07,5.37-6.52,10.47-13.56,15.33-21.1,4.84-7.53,8.77-14.31,11.8-20.34,1.33-2.5,2.67-5.65,4.02-9.4,1.33-3.78,2.01-7.5,2.01-11.19s-1.01-6.57-3.02-9.16ZM-316.76-342.28c-27.44,14.12-37.73,54.97-37.82,55.37-.65,2.59-3.25,4.18-5.84,3.55-2.6-.65-4.18-3.25-3.55-5.84.45-1.84,11.4-45.51,42.79-61.64,1.15-.59,2.43-.68,3.58-.35,1.21.37,2.29,1.21,2.92,2.43,1.22,2.36.28,5.28-2.08,6.48Z"/>
    <path class="cls-1" d="M-896.34-111.18c.84-1.17,1.93-3.22,3.27-6.15,1.34-2.93,2.76-6.07,4.27-9.42,1.51-3.35,2.76-6.19,3.77-8.54,2.85-7.03,6.11-15.61,9.79-25.74,3.69-10.13,7.45-20.72,11.3-31.77,3.85-11.05,7.53-21.6,11.05-31.64,3.52-10.04,6.61-18.33,9.29-24.86,2.51-6.03,4.69-10.84,6.53-14.44,1.84-3.6,4.48-6.19,7.91-7.78,3.43-1.59,8.66-2.39,15.69-2.39h7.53c-2.35,1.68-5.4,5.48-9.17,11.43-3.77,5.94-7.33,12.18-10.67,18.71,1.17-1.51,2.26-2.97,3.26-4.4,1-1.42,2.09-2.72,3.27-3.89,5.36-6.53,11.05-11.97,17.08-16.32,6.03-4.35,11.88-6.53,17.58-6.53,4.69,0,8.66,1.76,11.93,5.27,3.27,3.52,4.9,9.46,4.9,17.83,0,7.7-1.47,15.44-4.39,23.23-2.93,7.78-6.82,15.15-11.68,22.1-4.86,6.95-10.21,13.1-16.07,18.46-1.17,1.17-2.47,2.3-3.89,3.39-1.42,1.09-2.89,2.13-4.39,3.14,5.36.5,10.67-.75,15.95-3.77,5.27-3.01,10.13-6.69,14.56-11.05,4.43-4.35,8.08-8.29,10.92-11.8,3.35-4.35,6.74-9.37,10.17-15.07,3.43-5.69,6.24-10.71,8.41-15.07.67-1.17,1.26-1.76,1.76-1.76,1.34,0,2.01,1.51,2.01,4.52,0,2.68-.84,5.44-2.51,8.29-1.34,2.51-3.18,5.69-5.52,9.54-2.35,3.85-4.44,7.2-6.28,10.04-7.7,11.22-16.66,20.43-26.87,27.62-10.21,7.2-22.52,10.8-36.91,10.8h-3.64c-1.26,0-2.55-.09-3.89-.25-4.02-.34-7.78-1.3-11.3-2.89-3.52-1.59-5.86-4.56-7.03-8.91l-14.06,43.95c-1.84,5.86-3.55,10.71-5.15,14.56-1.59,3.85-3.6,6.74-6.03,8.66-2.42,1.92-5.98,2.89-10.67,2.89h-12.05ZM-835.82-179.99c2.84,0,6.11-1.46,9.79-4.4,3.68-2.93,7.32-6.61,10.92-11.05,3.6-4.43,6.65-8.75,9.17-12.93,3.85-6.69,7.11-13.56,9.79-20.59,2.68-7.03,4.02-12.81,4.02-17.33,0-5.02-2.01-7.53-6.03-7.53-3.52,0-7.37,1.68-11.55,5.02-3.01,2.35-6.4,5.78-10.17,10.3-3.77,4.52-7.45,9.59-11.05,15.19-3.6,5.61-6.53,11.3-8.79,17.08-2.26,5.78-3.39,11.01-3.39,15.69,0,.84.04,1.63.13,2.39.08.75.21,1.55.38,2.39.84,3.85,3.1,5.78,6.78,5.78Z"/>
  </g>
  <rect class="cls-2" x="1180.75" y="-292.29" width="303.19" height="303.19" rx="8" ry="8"/>
</svg>