<?xml version="1.0" encoding="UTF-8"?>
<svg xmlns="http://www.w3.org/2000/svg" version="1.1" viewBox="0 0 1093 862">
  <defs>
    <style>
      .cls-1 {
        fill: #00a44f;
      }

      .cls-1, .cls-2, .cls-3 {
        fill-rule: evenodd;
      }

      .cls-4 {
        fill: #edc729;
        stroke: #9b7d00;
      }

      .cls-4, .cls-5, .cls-6, .cls-7 {
        stroke-miterlimit: 10;
      }

      .cls-5 {
        fill: #04c56b;
        stroke: #008743;
      }

      .cls-6 {
        fill: #ff6caf;
        stroke: #af0058;
      }

      .cls-7 {
        fill: #4b7bf5;
        stroke: #042c84;
      }

      .cls-2 {
        fill: #7ebe75;
      }

      .cls-3 {
        fill: #188254;
      }
    </style>
  </defs>
  <!-- Generator: Adobe Illustrator 28.7.1, SVG Export Plug-In . SVG Version: 1.2.0 Build 142)  -->
  <g>
    <g id="Layer_1">
      <g>
        <g>
          <g>
            <path class="cls-4" d="M536.4,323.5c-7.2,1-13.7-2.6-16.5-9-2.8-6.3-.4-13.4,3.8-17,4.5-3.8,9.5-4.9,15.1-3.2,9.9,3,13.7,14.8,7.4,23.2-2.5,3.4-6,5.4-9.9,6Z"/>
            <path class="cls-4" d="M515.7,311.7c1.2,7.4-4.4,15-13.1,15.3-6.5.2-12.1-3.9-14-10.1-1.9-6.4,1.5-12.7,6.2-15.3,4.1-2.2,8.2-2.5,12.4-.8,4.8,2,7.6,5.7,8.5,10.8Z"/>
            <path class="cls-4" d="M536.9,326.5c6-.9,12.8,2.2,15.1,9,1.8,5.1.7,9.8-3,13.6-5.9,6.2-16.1,5.7-21.3-1.2-3.9-5-3.4-11.3-.2-15.8,2.1-3,5.7-5.1,9.4-5.6Z"/>
            <path class="cls-4" d="M522.8,341c1.1,7.2-4.2,14.4-12.4,15-6.2.4-11.7-3.4-13.8-8.3-3.5-8,1.3-16.9,9.9-18.4,6.8-1.2,13.5,2.7,15.8,9.3.3.8.4,1.7.6,2.5Z"/>
            <path class="cls-4" d="M493.4,344.4c.4,3.1.2,5.6-.8,7.9-1.8,4-4.9,6.5-9.3,6.8-3.4.3-6.5-.9-9-3.2-3.9-3.4-5.6-7.8-5.1-12.9.4-3.7,2-6.9,5.2-9,3.2-2.1,6.8-2.4,10.3-.9,5.2,2.2,7.9,6.3,8.8,11.2Z"/>
            <path class="cls-4" d="M462.8,317.8c-.4-3.9.2-7.5,2.7-10.6,3.1-3.8,7.7-4.9,11.8-3.6,4.3,1.3,6.9,4.3,8.6,8.3,1.3,3.2,1.5,6.6.4,9.9-1.2,3.7-3.5,6.5-7.3,7.8-2.2.8-4.4.8-6.6,0-4-1.3-6.7-3.9-8.4-7.6-.6-1.4-1.1-2.8-1.3-4.3Z"/>
            <path class="cls-4" d="M557.1,365.9c.8,5.9-2.9,11.3-8.7,13.1-6.5,1.9-14.1-1.8-15.8-9-1.2-4.7.8-9.9,4.9-12.6,6.2-4.2,14.7-2.2,18.3,4.4.7,1.3,1.1,2.6,1.4,4.2Z"/>
            <path class="cls-4" d="M503.1,371.9c-.9-6.9,4.2-12.9,11.2-13.1,6.2-.2,11.8,4.1,13.1,10.2,1.5,7.2-3.5,13.5-10.6,13.9-5.3.3-9.4-2-12.2-6.5-.9-1.4-1.3-2.9-1.5-4.4Z"/>
            <path class="cls-4" d="M486.8,361.8c5.3-.7,10.6,2.6,12.2,7.8,1.2,4,.6,7.7-2,10.9-4.2,5.1-11.8,5.4-16.4.5-3.9-4.1-4.3-9.7-1.6-14.2,1.7-2.7,4.7-4.6,7.8-5.1Z"/>
            <path class="cls-4" d="M461.7,318.2c.4,3.4-.3,6.6-2.5,9.3-3,3.7-8.1,4.7-12.2,2.3-4.7-2.7-6.7-7-6.5-12.3,0-1.6.5-3,1.2-4.5,1.9-4,6.4-6.2,10.6-5.4,3,.6,5.3,2.2,7,4.7,1.3,1.8,2,3.7,2.3,5.9Z"/>
            <path class="cls-4" d="M549.1,381c3.3-.4,6.5.3,9.3,2.5,4.1,3.1,5.1,8.7,2.3,13-1.7,2.6-4.2,4.3-7.2,5.1-4.1,1.1-8,.4-11.4-2.2-4.3-3.3-5-9.3-1.6-13.6,2.1-2.7,5-4.1,8.5-4.7Z"/>
            <path class="cls-4" d="M474.4,371.4c.7,4.8-1.6,9.3-5.9,11.2-2.7,1.2-5.4,1.1-8.1,0-4.9-2.1-8.2-7.7-6.7-13.5,1.2-4.7,5.6-7.9,10.4-7.5,5,.3,9.1,3.9,10.1,9,0,.3,0,.5.1.8Z"/>
            <path class="cls-4" d="M467.3,345.5c.4,2.5,0,4.9-1.3,7.1-2.7,4.9-8.5,6.6-13.4,4.1-5.9-3.1-8.1-10.9-4.1-16.7,2.7-3.9,8-5.3,12.3-3.3,3.7,1.8,5.8,4.8,6.5,8.8Z"/>
            <path class="cls-4" d="M519,385.2c4-.4,7.2.4,10,2.8,4.5,3.9,4.4,10.3-.2,13.9-5,4-12.8,3-16.6-2.1-2.4-3.2-2.4-7.3,0-10.4,1.1-1.5,2.6-2.7,4.4-3.4.9-.4,1.9-.6,2.5-.8Z"/>
            <path class="cls-4" d="M497.5,405.4c-5.6.9-11.2-3.2-12.4-8.1-.8-3.1-.1-6,2.1-8.3,1.6-1.7,3.7-2.6,6-2.8,4.8-.4,9.6,2.5,11.4,7,2.3,5.6-1,11.3-7,12.2Z"/>
            <path class="cls-4" d="M470.6,386.1c3.1-.4,6,.4,8.6,2.6,4.4,3.7,3.8,10.1,0,13.3-2.9,2.4-6.2,3.1-9.8,2.1-3.3-.9-5.6-3-6.9-6.2-1-2.6-.7-5,.8-7.4,1.6-2.5,4-3.9,7.2-4.4Z"/>
            <path class="cls-4" d="M556.6,420.8c-2.9.3-5.6-.1-8-1.9-2.2-1.6-3.4-3.8-3.4-6.6,0-2,.8-3.8,2.1-5.3,2.3-2.7,5.4-3.8,8.9-3.7,2.4,0,4.6.9,6.5,2.5,3.3,2.9,3.8,7.6.7,11.3-1.8,2.1-4.1,3.2-6.7,3.6Z"/>
            <path class="cls-4" d="M444.5,347.6c.4,2.9,0,5.4-1.6,7.6-2,2.6-4.6,3.3-7.7,2.7-1.2-.2-2.2-.8-3.2-1.5-3.6-2.7-5.2-6.3-4.8-10.8.2-2.3,1.2-4.2,3-5.6,2.4-1.8,5-2,7.7-.8,2.9,1.2,4.8,3.5,5.9,6.4.3.7.4,1.5.6,2Z"/>
            <path class="cls-4" d="M438.9,321.6c.4,2.7-.1,5.2-1.7,7.5-2.1,2.9-5.7,3.9-9,2.5-2.7-1.1-4.4-3.1-5.5-5.8-.9-2.3-1.1-4.7-.5-7.1.5-2.1,1.6-3.9,3.4-5.1,3.1-2.1,6.4-1.3,8.5,0,2.8,1.9,4.4,4.6,4.9,7.9Z"/>
            <path class="cls-4" d="M451.8,370.9c.2,2.5-.4,5.3-2.9,7.4-2.5,2.1-5.3,2.5-8.2,1.3-5.4-2.2-7.4-8.9-5-13.6,2.1-4.1,7-5.5,10.8-3.4,2.9,1.6,4.8,4.3,5.3,8.3Z"/>
            <path class="cls-4" d="M504.7,423.8c-3,.3-5.4-.3-7.6-1.7-1.5-1-2.7-2.3-3.4-3.9-1.9-4.4.3-9.9,6-10.9,4.1-.7,7.4.9,10,4.1.8,1,1.3,2.1,1.5,3.3.6,3.4-.8,6.6-4.3,8.3-.8.4-1.7.6-2.2.7Z"/>
            <path class="cls-4" d="M525.7,407.9c3-.4,5.9.3,8.3,2.4,2.7,2.3,3.5,5.9,2,8.8-1,1.9-2.6,3.3-4.6,4-4,1.4-7.7.8-10.9-2.1-2.1-1.9-2.9-4.3-2.2-7.1.5-2.1,1.9-3.7,3.7-4.8,1.1-.7,2.3-1,3.7-1.2Z"/>
            <path class="cls-4" d="M560.9,436.9c-2.2.3-3.9.2-5.5-.3-1.3-.4-2.4-1.1-3.4-2.1-2.3-2.3-2.6-5.7-.8-8.4,1.6-2.4,3.9-3.7,6.6-4.1,2.8-.5,5.5,0,7.9,1.8,2.9,2.2,3.5,6,1.5,9-1.6,2.5-4.1,3.7-6.4,4.1Z"/>
            <path class="cls-4" d="M452.9,401.4c-1.9.3-3.6,0-5.2-1-3.3-2-5-5.1-4.8-9,.3-4.3,4.1-7.3,8.4-6.6,3.5.6,5.8,2.7,7.2,6,.7,1.7.9,3.5.4,5.3-.7,2.9-3,4.9-6,5.3Z"/>
            <path class="cls-4" d="M466.9,410.9c.2,1.6,0,3.2-.7,4.7-1.4,2.8-4.6,4.2-7.7,3.5-4.8-1.1-7.1-6.2-5.8-10.2,1.1-3.5,4.7-5.5,8.2-4.7,3.2.8,5.6,3.4,6.1,6.7Z"/>
            <path class="cls-4" d="M478.4,408.4c3-.5,7.4.8,9.2,4.7,1,2.3.8,5.6-1.9,7.6-2.6,2-5.5,2.2-8.5,1-1.9-.7-3.4-2-4.3-3.9-1.4-2.9-.5-6.2,2.1-8.1,1.1-.8,2.2-1.2,3.4-1.4Z"/>
            <path class="cls-4" d="M531.7,425.8c2.1-.2,4.7,0,7,1.5.6.4,1.2.9,1.7,1.5,1.6,1.9,1.6,4.4,0,6.3-1,1.2-2.3,2-3.8,2.5-3.1,1-6.2.9-9.2-.6-1.1-.6-2.1-1.3-2.7-2.4-1-1.7-1-3.3,0-5,.6-1,1.5-1.8,2.6-2.4,1.2-.7,2.5-1.1,4.5-1.4Z"/>
            <path class="cls-4" d="M509.1,438.6c-1.7.2-3.7-.2-5.5-1.4-3.4-2.4-3.4-6.4-.8-9,2.5-2.6,6.8-3.4,10.1-1.8,4.2,2,4.8,7.2,1.2,10.2-1.3,1-2.9,1.7-5,2Z"/>
            <path class="cls-4" d="M419.1,323.4c.2,2.1,0,3.7-.8,5.3-1.5,2.8-4.4,3.7-7.2,2.2-1.1-.6-1.9-1.4-2.6-2.4-1.5-2.3-2-4.8-1.4-7.5.2-1,.7-1.8,1.3-2.6,1.5-1.9,3.8-2.5,6-1.6,2,.9,3.3,2.5,4.1,4.5.3.7.4,1.5.6,2Z"/>
            <path class="cls-4" d="M563.2,448c-1.8.2-3.7,0-5.5-1.1-2.2-1.4-2.7-3.8-1.2-6,.2-.3.5-.6.7-.9,2.5-2.6,7.2-3.4,10.4-1.7.2.1.5.2.7.4,2.1,1.4,2.6,3.8,1.1,5.9-.5.6-1.1,1.2-1.7,1.7-1.3,1-2.7,1.4-4.5,1.7Z"/>
            <path class="cls-4" d="M536.4,440c1.3-.1,3.2,0,5,1,.8.4,1.4.9,2,1.6,1.1,1.4,1.1,3.2,0,4.6-.4.6-.9,1.1-1.4,1.5-3,2-6.2,2.3-9.6.8-.8-.4-1.5-1-2.1-1.7-1-1.4-1.1-2.8-.3-4.2.5-.9,1.1-1.6,2-2.1,1.2-.7,2.4-1.2,4.4-1.5Z"/>
            <path class="cls-4" d="M440.4,390.7c.6,3.4-2,5.8-4.9,5.8-3.4,0-6.5-2.3-7.5-5.5-.1-.5-.2-.9-.2-1.4-.2-2.5,1.5-4.6,4-5,3.7-.6,8,2.1,8.6,6.2Z"/>
            <path class="cls-4" d="M488.5,435.9c-2,.2-4-.3-5.6-1.6-.8-.6-1.4-1.4-1.8-2.3-.9-1.9-.4-4.1,1.2-5.5,2.9-2.5,7.8-2,10.2.9,2.1,2.6,1.4,5.9-1.4,7.5-.8.5-1.7.7-2.6.9Z"/>
            <path class="cls-4" d="M413.7,349.1c-.2-1.8,0-3.4,1-4.8,1.3-1.8,3.3-2.4,5.4-1.5,3.3,1.3,5.4,5.6,4.1,9.4-1,3-4,4.1-6.7,2.6-2.2-1.2-3.3-3.2-3.8-5.5Z"/>
            <path class="cls-4" d="M430.5,369.2c.5,3.1,0,4.9-1.7,6.4-1.3,1.1-2.8,1.4-4.5,1-3.5-.8-5.9-5.3-4-9.2,1.3-2.7,4.6-3.6,7.3-1.9,1.7,1.1,2.7,2.7,2.9,3.7Z"/>
            <path class="cls-4" d="M466.9,421.2c3-.5,5.8.9,7,3.3.9,1.8.7,3.8-.6,5.4-.9,1-2,1.7-3.3,1.9-2.5.4-4.6-.3-6.2-2.2-2.9-3.4-.8-6.8,1.8-7.9.5-.2,1-.3,1.3-.4Z"/>
            <path class="cls-4" d="M516.2,449.7c-2.1.2-4,0-5.7-1.3-.3-.2-.6-.5-.9-.7-1.8-1.9-1.6-4.5.5-6,2.4-1.8,5.1-1.9,7.7-.7.7.3,1.3.7,1.8,1.2,2.1,2,1.8,4.8-.6,6.4-.9.6-1.9.9-3,1.1Z"/>
            <path class="cls-4" d="M448.8,408.1c.4,3-1.1,5.1-3.7,5.4-.5,0-1,0-1.4,0-2.6-.4-4.5-1.9-5.7-4.3-.6-1.2-.7-2.5-.2-3.7.4-1.2,1.2-2,2.4-2.4,1.5-.5,3.1-.4,4.5.3,2.2,1,3.6,2.8,4.1,4.8Z"/>
            <path class="cls-4" d="M395.3,325.7c-.1-1.3,0-2.6.6-3.8,1.2-2.2,3.5-2.7,5.6-1.2,2.4,1.7,3.5,5.4,2.4,8.2,0,0,0,.1,0,.1-1.2,2.7-3.9,3.3-6.2,1.4-1.4-1.2-2.1-2.8-2.4-4.7Z"/>
            <path class="cls-4" d="M425.3,386.6c.4,2.7-1.4,5.1-4.2,5.2-4,.1-6.5-3.5-5.8-6.6.4-1.7,1.4-2.7,3-3.2,3.1-.8,6.4,1.4,6.9,4.6Z"/>
            <path class="cls-4" d="M406.7,367.8c-.3-2.1.5-4,2.2-4.9,1.6-.9,3.8-.7,5.3.5,1.1.9,1.9,2,2.1,3.5.3,1.9-.5,3.8-2,4.7-1.7,1-3.5.9-5.1-.1-1.4-.9-2.2-2.2-2.4-3.6Z"/>
            <path class="cls-4" d="M409.2,347.4c.2,1.2,0,2.5-1,3.6-1,1.1-2.2,1.5-3.6,1-.5-.2-1-.4-1.4-.7-1.7-1.4-2.7-3.2-2.5-5.4,0-.9.4-1.8,1-2.5.8-.9,1.8-1.3,3-1.2.8,0,1.4.4,2,.9,1.4,1,2.2,2.4,2.5,4.3Z"/>
            <path class="cls-4" d="M494.5,437.8c1.6-.2,3.1.3,4.3,1.4,1.5,1.3,1.7,3.4.4,5-2,2.4-5.9,2.4-7.9,0-1.4-1.7-1.2-3.9.5-5.3.8-.6,1.6-1,2.7-1.2Z"/>
            <path class="cls-4" d="M540.6,451.2c1.4-.2,2.7-.1,3.9.6.5.3.9.6,1.3,1,.9,1,1,2.2.1,3.4-.5.6-1,1.1-1.7,1.4-1.9.9-3.8,1-5.8.2-.7-.3-1.2-.7-1.7-1.2-.7-1-.7-2,0-3,.4-.6.9-1.1,1.5-1.4.8-.4,1.6-.7,2.4-.8Z"/>
            <path class="cls-4" d="M522,456.9c-1.2.2-2.4,0-3.6-.4-.9-.3-1.6-.8-2.1-1.6-.5-.8-.6-1.6,0-2.4.3-.5.7-1,1.2-1.3,2.2-1.3,4.5-1.4,6.9-.2.2.1.5.3.7.4,1.5,1.2,1.5,3,0,4.2-.9.7-1.9,1-2.9,1.2Z"/>
            <path class="cls-4" d="M479,441c-1.6.1-3.2-.2-4.5-1.6-1.2-1.4-1.1-3.1.3-4.3,2-1.8,5.7-1.5,7.4.6.9,1.1.9,2.4,0,3.5-.8,1-1.8,1.5-3.2,1.8Z"/>
            <path class="cls-4" d="M456.9,422.8c.3,2.1-1.1,3.7-3.2,3.7-2,0-3.9-1.4-4.5-3.3-.8-2.4.7-4.4,3.2-4.3,2.2,0,4.3,1.9,4.5,3.9Z"/>
            <path class="cls-4" d="M433.4,403.6c.4,2.7-1.7,4.6-4.3,3.9-1.7-.5-2.8-1.5-3.2-3.2-.6-2.4,1.2-4.5,3.7-4.2,1.9.2,3.5,1.7,3.8,3.6Z"/>
            <path class="cls-4" d="M387.4,325.2c-.1-.9,0-1.9.5-2.9.8-1.4,2.3-1.8,3.7-1,1.9,1.3,2.8,4.3,1.8,6.4-.9,1.9-2.8,2.3-4.3.9-.9-.9-1.5-2-1.7-3.4Z"/>
            <path class="cls-4" d="M392.9,345.5c0-.4,0-1.1.3-1.7.5-1.5,1.9-2.1,3.3-1.6.2,0,.3.1.4.2,2,1,3.2,3.8,2.5,5.9-.6,1.7-2.2,2.4-3.8,1.6-1.6-.9-2.3-2.3-2.7-4.3Z"/>
            <path class="cls-4" d="M565.5,455.7c-1,.1-2,0-3-.4-1.8-.8-2.2-2.6-.9-4,1.6-1.6,3.6-2,5.7-1.5,1.1.3,2,.9,2.2,2.1.2,1.2-.5,2-1.4,2.7-.8.6-1.7.9-2.7,1Z"/>
            <path class="cls-4" d="M460.2,431c2.1-.2,4.4,1.5,4.9,3.6.3,1.3-.5,2.6-1.7,3.1-.7.3-1.5.3-2.2.1-1.5-.4-2.7-1.4-3.3-2.8-.8-1.9.3-3.8,2.4-4Z"/>
            <path class="cls-4" d="M404.8,363.3c.1.9,0,1.9-.8,2.8-.8.9-2,1.3-3.2.9-2.5-.8-3.4-4.1-1.7-6.1.9-1,2.1-1.3,3.3-.8,1.3.6,2.1,1.6,2.3,3.2Z"/>
            <path class="cls-4" d="M486,450.2c-1.2.1-2.2-.1-3.1-.8-1.5-1.1-1.3-3.2-.2-4.2,1.4-1.2,3.5-1.5,5.1-.5,1.5.9,1.8,2.8.8,4.2-.7.9-1.6,1.3-2.5,1.3Z"/>
            <path class="cls-4" d="M501,447.4c1.4,0,2.5.2,3.4,1.2,1.3,1.3,1,3.3-.5,4.3-1.5,1-3.6.7-4.8-.6-1.5-1.6-1-3.9,1.1-4.7.3-.1.6-.2.8-.2Z"/>
            <path class="cls-4" d="M406.6,382.2c-.4-2.5,1.4-4,3.5-3.3,1.4.4,2.3,1.3,2.7,2.7.4,1.1.2,2.1-.6,3-.8.8-1.8.9-2.8.6-1.6-.5-2.5-1.5-2.8-2.9Z"/>
            <path class="cls-4" d="M442.3,416.6c.2,1.6-1,3.1-2.5,3.3-1.7.2-3.4-1-3.6-2.6-.2-1.6,1-3.1,2.6-3.3,1.7-.2,3.5,1,3.6,2.6Z"/>
            <path class="cls-4" d="M422.8,397.7c.3,2.1-1.1,3.5-2.9,3-1.3-.3-2.3-1.1-2.7-2.4-.3-.9-.2-1.8.5-2.6.7-.7,1.6-.9,2.5-.6,1.4.4,2.4,1.3,2.6,2.6Z"/>
            <path class="cls-4" d="M566.9,460.8c-.7,0-1.6,0-2.4-.5-.9-.5-1-1.5-.4-2.3,1-1.4,3.8-1.9,5.2-.9.8.6,1,1.5.3,2.3-.6.7-1.5,1.2-2.7,1.4Z"/>
            <path class="cls-4" d="M524.1,457.2c1.3-.2,2.3,0,3.1.6,1.3.9,1.3,2.3,0,3.1-1.4.8-2.9.8-4.3,0-1.4-.8-1.4-2.2,0-3.1.4-.3,1-.4,1.2-.5Z"/>
            <path class="cls-4" d="M545,462.7c-1,.1-2,0-2.9-.6-1-.7-1.1-1.9-.1-2.7,1.2-1.1,3.4-1.2,4.8-.3,1,.7,1.1,1.7.3,2.6-.6.6-1.3.9-2.1,1Z"/>
            <path class="cls-4" d="M381.9,325.3c-.1-.6,0-1.4.6-2.1.5-.7,1.2-.9,2-.5.1,0,.3.1.4.2,1.3.9,1.9,3.2,1.1,4.6-.6,1.1-1.6,1.4-2.7.6-.8-.6-1.2-1.5-1.4-2.8Z"/>
            <path class="cls-4" d="M474.4,441.7c1-.1,1.9,0,2.6.8.8.8.8,1.9.2,2.8-1.1,1.5-3.8,1.4-4.8-.2-.4-.7-.4-1.6.1-2.3.5-.6,1.1-1,1.9-1.1Z"/>
            <path class="cls-4" d="M507.7,454.1c1.1,0,2.2.3,3,1.4.8,1.2.4,2.6-1,3.1-1.3.5-3.1-.2-3.8-1.3-.9-1.4,0-2.9,1.9-3.2Z"/>
            <path class="cls-4" d="M432.6,414.8c-1.3.2-2.5-.7-2.7-1.9-.2-1.2.6-2.3,1.9-2.5,1.2-.2,2.5.8,2.6,2,.1,1.1-.7,2.3-1.9,2.4Z"/>
            <path class="cls-4" d="M397.7,362.5c0,.7,0,1.4-.8,1.8-.7.4-1.4.3-2-.1-1-.7-1.5-1.6-1.5-2.8,0-1.2,1.1-1.9,2.3-1.5,1,.3,1.8,1.4,2,2.6Z"/>
            <path class="cls-4" d="M454.2,428.8c.1,1.2-.7,2.3-1.8,2.4-1.3.2-2.6-.9-2.7-2.1,0-1.1.9-2.1,2-2.2,1,0,2.4.6,2.5,1.9Z"/>
            <path class="cls-4" d="M404,373.7c.1,1-.5,2.1-1.4,2.5-.5.2-1,.2-1.5,0-1.3-.7-1.7-2.4-.8-3.6.5-.7,1.3-.9,2.1-.7.8.2,1.5,1,1.6,1.8Z"/>
            <path class="cls-4" d="M391.5,344.9c.1.6,0,1.2-.3,1.7-.5.7-1.2.9-1.9.5-1.2-.6-1.9-2.7-1.3-3.9.4-.8,1.2-1.1,2-.7.9.5,1.3,1.3,1.5,2.3Z"/>
          </g>
          <g>
            <path class="cls-7" d="M543,271.8c1.1,8.4-4.7,15.9-13.1,17.1-8.5,1.2-16.1-4.6-17.3-13-1.1-8.2,4.9-15.9,13.3-16.9,8.3-1.1,16,4.7,17.1,12.9Z"/>
            <path class="cls-7" d="M497.7,293.6c-7.5,1.1-14.3-4-15.4-11.4-1.1-7.6,4.3-14.7,11.9-15.9,7.5-1.1,14.4,4,15.4,11.4,1.1,7.6-4.3,14.7-11.9,15.8Z"/>
            <path class="cls-7" d="M523.9,256.2c-6.4.8-12.3-2.5-14.7-8.3-1.7-4.3-1.3-8.4,1.2-12.3,3-4.6,7.5-6.8,13-6.4,7.4.5,13.6,7.1,12.4,15.3-.8,5.2-3.9,8.8-8.8,10.8-1,.4-2,.6-3.1.9Z"/>
            <path class="cls-7" d="M479.7,252.4c-1.4-9.7,7.8-18.3,17.8-15.4,5.9,1.7,9.3,6.9,9.2,12.3,0,6.2-3,10.7-8.6,13.1-8.1,3.6-17.2-1.4-18.4-10.1Z"/>
            <path class="cls-7" d="M457.5,287.8c-.5-3.5,0-6.7,1.8-9.7,1.1-1.9,2.6-3.4,4.5-4.5,4.1-2.4,9.1-1.7,12.6,1.2,2.4,2.1,3.9,4.7,4.6,7.9.9,4.2.3,8.1-2,11.7-1.7,2.5-3.9,4.2-6.9,4.9-3.6.8-6.8,0-9.6-2.4-2.8-2.4-4.4-5.5-4.9-9.1Z"/>
            <path class="cls-7" d="M477.9,255c.3,3.7-.8,8-4.2,11.4-5.5,5.4-13.3,4-17.2-1.7-3.2-4.8-3.4-9.9-1-15.1,1.2-2.6,3.1-4.6,5.7-5.9,4.2-2.1,9-1.4,12.4,1.8,2.5,2.3,3.8,5.1,4.4,9.5Z"/>
            <path class="cls-7" d="M530.9,212.7c.5,4.4-.8,8.1-3.9,11-3.4,3.1-7.3,4.1-11.7,3.1-7.3-1.8-11.1-9.8-8-16.6,2.7-5.8,9.3-8.9,15.4-6.9,4.6,1.5,7.3,4.8,8.2,9.5Z"/>
            <path class="cls-7" d="M490.7,233.3c-7,1-13.1-4.3-13.1-11.3,0-6.1,4.3-11.5,10.3-12.8,7.1-1.5,13.7,3.6,13.9,10.9.2,6.5-4.7,12.4-11.1,13.3Z"/>
            <path class="cls-7" d="M474.9,229c.4,3.7-1,7.5-4.8,10.1-3.7,2.6-7.7,2.8-11.6.6-4-2.2-6.2-6.7-5.7-11.3.5-4.6,3.8-8.5,8.2-9.7,4.5-1.1,8.2.2,11.2,3.7,1.4,1.6,2.2,3.6,2.6,6.6Z"/>
            <path class="cls-7" d="M456.6,289.3c.5,3.2,0,6-1.5,8.6-1.5,2.7-3.8,4.5-6.9,5.1-3.6.7-6.7-.5-9.1-3.1-2.8-3-3.7-6.6-3.3-10.7.2-2.2,1.1-4.2,2.4-6,3.9-5,10.7-5.4,15.2-.5,1.8,1.9,2.8,4.3,3.1,6.7Z"/>
            <path class="cls-7" d="M517.3,200.6c-3,.3-5.7,0-8.2-1.5-5.3-3-6.6-9.5-3-14.4,3.7-5,11-6.7,16.6-3.6,4.7,2.6,6.9,8.4,3.6,13.7-2.1,3.4-5.3,5.2-9,5.9Z"/>
            <path class="cls-7" d="M441.9,247.5c-3.7.5-8.6-1.1-10.8-6.6-1.8-4.7-.4-9.8,3.3-13,4.9-4.2,11.1-2.7,14.3,1.3,3.8,4.7,3.3,12.3-1.9,16.2-1.5,1.1-3.2,1.8-5,2.1Z"/>
            <path class="cls-7" d="M432.3,264.2c-.4-3.9,1-7.7,4.7-10.4,4.4-3.2,9.7-1.7,12.5,1.1,3.9,3.9,4.7,10,1.7,14.6-4,6.1-12.2,6.2-16.5.7-1.2-1.6-2-3.4-2.4-6Z"/>
            <path class="cls-7" d="M486.1,187.1c3.4-.5,5.9,0,8.1,1.4,3.8,2.5,5,7.3,3,11.5-2.6,5.3-9,7.9-14.6,6-4.9-1.7-7.2-7-5.2-11.8,1.8-4.1,5-6.4,8.7-7.1Z"/>
            <path class="cls-7" d="M461.8,214.4c-2.8.3-5.8-.8-7.9-3.9-1.4-2.1-1.7-4.4-1.3-6.8.8-4.5,4.3-8.2,8.8-9.2,3.8-.9,7.6.7,9.5,4,.7,1.1,1,2.3,1.2,3.6.6,5.8-3.8,11.4-10.3,12.3Z"/>
            <path class="cls-7" d="M440.2,203.2c3-.4,5.6.2,7.9,2.2,3.1,2.8,3.9,7.7,1.4,11.4-2.6,3.9-7,5.7-11.4,4.8-3.8-.8-7.6-4-6.8-9.7.6-4.5,4.3-8,8.9-8.7Z"/>
            <path class="cls-7" d="M515.3,177.8c-3.2.4-5.8-.1-8.2-1.8-2.9-2.1-4.8-6.7-1.8-11.1,2.5-3.7,7.5-5.4,11.8-4.3,1.4.4,2.7,1,3.9,1.9,2.8,2.3,3.8,5.9,2.3,9.2-1.1,2.7-3.2,4.4-5.8,5.4-.8.3-1.6.5-2.2.6Z"/>
            <path class="cls-7" d="M430.7,266.7c.4,3.3-.3,6.3-2.4,8.9-.8,1-1.8,1.8-3,2.4-3,1.4-6.3.8-8.5-1.6-1.5-1.5-2.3-3.3-2.7-5.4-.5-3,0-5.8,1.6-8.3.8-1.4,2-2.4,3.3-3.2,3-1.7,6.7-1.1,9.1,1.6,1.4,1.6,2.3,3.5,2.6,5.6Z"/>
            <path class="cls-7" d="M434.1,294.4c.2,2.1-.2,4.7-1.7,7.1-1.9,2.9-5.3,4.3-8.5,3.4-2-.6-3.6-1.8-4.7-3.5-2.6-4.1-2.8-8.4-.2-12.6,1.5-2.5,3.9-3.9,7-3.8,2.5.1,4.4,1.5,5.9,3.4,1.2,1.5,1.8,3.3,2.2,5.9Z"/>
            <path class="cls-7" d="M430.1,243.7c.3,3-.5,6-2.9,8.3-3.5,3.4-8.9,3.1-11.9-1.1-2.8-3.8-2.6-9.3.6-12.8,3.9-4.2,9.6-3.2,12.5.9.9,1.3,1.5,2.7,1.7,4.6Z"/>
            <path class="cls-7" d="M462.4,192.1c-1.6.2-3.5-.1-5.2-1.3-2.4-1.6-3.4-3.9-3.3-6.7.2-4.9,4.9-9.4,9.9-9.4,5.3,0,8.8,4.6,7.6,9.7-1,3.9-4.4,7-8.8,7.7Z"/>
            <path class="cls-7" d="M485.6,166.7c2.6-.3,4.7,0,6.6,1.3,2.7,1.8,3.8,4.9,2.9,8-1.2,3.9-4,6.1-7.9,6.9-2.3.5-4.5.2-6.5-1-3-1.8-4.4-5.2-3.2-8.6,1.4-4,4.4-6,8-6.7Z"/>
            <path class="cls-7" d="M511.2,143.9c2.8-.3,5.6.2,7.8,2.4,2,1.9,2.5,4.8,1.4,7.4-.7,1.5-1.7,2.6-3,3.5-2.9,2-6.1,2.5-9.5,1.5-1.1-.3-2.2-.9-3-1.7-3.2-3.1-2.6-6.8-.5-9.4,1.7-2.1,4-3.2,6.8-3.6Z"/>
            <path class="cls-7" d="M414.1,223.4c-.4-3,.4-5.8,2.6-8.1,1.6-1.6,3.5-2.5,5.7-2.4,2.4,0,4.2,1,5.6,3,3.1,4.4,1.5,11.1-3.4,13.5-4.3,2.1-9.1-.1-10.3-4.8,0-.3-.1-.6-.2-1.1Z"/>
            <path class="cls-7" d="M416.8,202.5c-.6-3.9,1.6-7.5,5.2-8.8,2.9-1,6,0,7.8,2.6,2.5,3.8,1.5,8.9-2.3,11.4-3.1,2-7.4,1-9.4-2.1-.6-1-1-2-1.2-3.1Z"/>
            <path class="cls-7" d="M442,198.1c-1.5.2-3.3,0-4.9-1.1-2.1-1.4-3-3.4-2.8-5.9.2-1.7.9-3.2,2-4.5,1.9-2.1,4.3-3.2,7.1-3,4.4.3,7.9,4.6,5.4,9.7-1.2,2.5-3.8,4.3-6.9,4.7Z"/>
            <path class="cls-7" d="M486.2,164.1c-2.3.3-4.3.2-6.2-.9-1.8-1-2.7-2.9-2.4-4.8.1-.8.4-1.6.9-2.4,1-1.5,2.3-2.6,3.8-3.3,2.8-1.4,5.7-1.9,8.8-.9.8.3,1.5.7,2.1,1.2,1.4,1.2,1.9,2.8,1.4,4.6-.3,1.3-1,2.4-2,3.4-1.8,1.8-4.1,2.7-6.4,3.1Z"/>
            <path class="cls-7" d="M464.7,172c-2.1.3-3.8.2-5.4-.7-.7-.4-1.5-.9-2-1.5-2.4-2.6-1.7-5.6,0-7.6,2.3-2.7,5.3-3.7,8.8-2.9,1.2.2,2.2.8,3.1,1.5,2.2,1.8,2.7,5,1.2,7.4-1.3,2.1-3.4,3.4-5.6,3.8Z"/>
            <path class="cls-7" d="M402.8,300.2c-.2-2.1,0-4,1.1-5.9.6-1,1.4-1.8,2.4-2.3,1.9-1.1,4.3-.6,6,1,.9.9,1.6,2,2,3.2.9,2.5.7,5-.5,7.4-.4.9-1.1,1.6-1.9,2.1-1.5,1.1-3.1,1.2-4.9.5-1.3-.5-2.3-1.5-3-2.7-.6-1.1-1.1-2.2-1.2-3.5Z"/>
            <path class="cls-7" d="M511.9,142.7c-1.6.3-3.1.2-4.6-.3-.8-.3-1.5-.7-2.1-1.2-1.5-1.2-1.9-3.2-1-4.9.4-.8.9-1.4,1.6-1.9,2.7-2,5.7-2.5,9-1.5.9.3,1.7.8,2.4,1.5,1.2,1.3,1.5,2.9.7,4.4-.5,1.1-1.3,1.9-2.3,2.6-1.2.7-2.5,1.2-3.7,1.4Z"/>
            <path class="cls-7" d="M485.5,149.3c-1.2.1-2.7,0-4.2-.6-2.9-1.3-3.6-4.5-1.5-6.9,2.4-2.7,5.5-3.6,9-3,.8.1,1.5.5,2.2.9,1.8,1.1,2.4,3.1,1.6,5-.4.8-.9,1.6-1.6,2.2-1.5,1.3-3.2,2.1-5.5,2.4Z"/>
            <path class="cls-7" d="M401.1,231.7c-.5-3.4,1.8-7.1,5-8.2,3.3-1.2,6.4.8,6.7,4.3.3,3.6-2.1,7-5.5,8.1-3,.9-5.7-1-6.1-4.1Z"/>
            <path class="cls-7" d="M443.8,179.9c-1.1.1-2.1,0-3.1-.2-2.1-.7-3.3-2.4-3.3-4.6,0-1.5.6-2.8,1.6-3.9,1.6-1.8,3.7-2.7,6.1-2.6.3,0,.6,0,1,.1,3,.7,4.5,3.3,3.7,6.2-.3,1.1-.9,2.1-1.7,2.9-1.2,1.2-2.7,1.9-4.3,2.2Z"/>
            <path class="cls-7" d="M401.2,275.2c-.3-2.5.1-4.6,1.6-6.4,1.8-2.2,4.7-2.3,6.8-.3.7.7,1.2,1.5,1.5,2.4.7,2.1.6,4.2-.4,6.2-.3.6-.7,1.1-1.1,1.6-2.2,2.5-5.4,2.1-7.3-.5-.7-1-1.1-2.1-1.2-3Z"/>
            <path class="cls-7" d="M410.4,250.6c.2,1.6-.3,3.4-1.7,4.9-2.1,2.3-5.6,2.3-7.6-.1-1.9-2.3-2-5.8-.3-8.2,2.2-2.9,6.2-2.9,8.3,0,.6.9,1,1.9,1.2,3.4Z"/>
            <path class="cls-7" d="M427.4,178.7c.2,0,.6,0,1,0,4.1.4,6,4.1,4.1,7.7-.9,1.6-2.2,2.6-3.9,3.1-1.6.5-3.1.3-4.5-.4-1.9-1-2.8-3.1-2.4-5.3.6-3.3,3.4-4.9,5.7-5.2Z"/>
            <path class="cls-7" d="M464.7,156.3c-.9.1-1.9,0-2.9-.2-2.5-.8-3.6-3.2-2.5-5.6,1-2,2.6-3.2,4.7-3.8,1.3-.4,2.7-.5,4.1-.1.8.2,1.5.6,2,1.2.9,1,1.2,2.2.8,3.6-.5,1.6-1.5,2.7-2.8,3.6-1,.7-2.2,1.1-3.5,1.3Z"/>
            <path class="cls-7" d="M404.4,211.8c-.5-3.2,1.8-6.7,4.8-7.6,2.8-.8,5.2.8,5.6,3.6.4,3.2-1.8,6.6-4.9,7.5-2.8.8-5.1-.7-5.5-3.5Z"/>
            <path class="cls-7" d="M400.2,301.2c.2,1.4,0,2.8-.5,4.1-.2.4-.4.8-.6,1.1-1.4,1.9-3.8,2.1-5.6.5-.2-.2-.4-.5-.6-.7-1.7-2.2-1.8-5.8-.3-8.2,1.4-2.2,4-2.5,5.8-.6,1,1.1,1.6,2.3,1.8,3.8Z"/>
            <path class="cls-7" d="M395.3,242.6c-2.5.4-4.7-1.4-5-4-.3-3,1.5-5.2,3.6-6,2.3-.9,4.7.1,5.7,2.4,1.3,3.2-.9,7-4.3,7.6Z"/>
            <path class="cls-7" d="M388.5,259.4c-.2-1.6.4-3.3,2-4.6,1.4-1.1,2.9-1.4,4.5-.7,1.8.8,2.7,2.2,2.8,4.1.1,1.4-.3,2.6-1.1,3.8-1.2,1.6-3.1,2.3-4.8,1.8-1.9-.5-3.1-2-3.5-4.4Z"/>
            <path class="cls-7" d="M397.6,278.6c.3,1.9,0,3.4-1.1,4.8-1.8,2.5-5,2.2-6.4-.5-1.2-2.2-.7-5.2,1-7,1.5-1.6,3.8-1.5,5.2.1.7.8,1.1,1.7,1.2,2.5Z"/>
            <path class="cls-7" d="M447.8,165c-1.1.1-2.1,0-3.1-.6-1.6-1-2.2-2.7-1.6-4.5,1.1-2.8,4.3-4,6.7-3,2.3,1,3.2,3.2,1.9,5.4-.9,1.5-2.3,2.4-4,2.7Z"/>
            <path class="cls-7" d="M486.8,130c1.1-.2,2.2-.1,3.3.4,1.9.8,2.5,2.7,1.2,4.3-1.4,1.9-3.4,2.6-5.8,2.5-.7,0-1.5-.2-2.2-.6-1.6-.9-2-2.4-1-4,.7-1.1,1.8-1.8,3-2.3.4-.2.9-.3,1.4-.4Z"/>
            <path class="cls-7" d="M467.7,144.9c-.8.1-1.6,0-2.4-.2-2.1-.6-2.7-2.5-1.5-4.3.3-.4.7-.8,1.1-1.1,1.4-1.1,3-1.6,4.8-1.5.5,0,1,0,1.4.2,1.9.7,2.5,2.3,1.5,4.1-.5.8-1.2,1.4-2,1.8-.8.5-1.7.8-2.8,1Z"/>
            <path class="cls-7" d="M433.2,174.2c-1.1.1-2,0-2.9-.3-1.4-.7-2-2.1-1.6-3.6.9-2.9,4.8-4.3,7.4-2.6,1.2.8,1.6,2.3,1,3.7-.8,1.7-2.3,2.6-3.9,2.9Z"/>
            <path class="cls-7" d="M410.3,194.3c-.4-2.3,1.3-4.8,3.6-5.3,1.6-.4,3.2.6,3.7,2.3.7,2.4-1.5,5.5-4.1,5.7-1.7.1-3-.9-3.2-2.6Z"/>
            <path class="cls-7" d="M401.9,217.2c.3,1.9-.7,3.8-2.4,4.7-2.8,1.3-5-.8-4.9-3.1,0-1.9,1-3.3,2.6-4.1,2.1-1,4.3.2,4.7,2.6Z"/>
            <path class="cls-7" d="M390.5,304.9c.2,1.4,0,2.6-.6,3.7-1,1.6-2.8,1.8-4.2.5-1.5-1.6-1.9-4.5-.7-6.4,1-1.7,2.8-1.8,4.2-.5.7.8,1.2,1.7,1.3,2.7Z"/>
            <path class="cls-7" d="M382.8,284.8c-.2-1.4,0-2.6.8-3.8.4-.6.9-1,1.6-1.2.9-.3,1.8-.1,2.5.6.5.5.9,1.2,1.1,1.9.3,1.3.2,2.7-.4,3.9-.3.5-.7,1-1.1,1.3-1.2,1-2.7.7-3.7-.5-.5-.7-.8-1.4-.8-2.2Z"/>
            <path class="cls-7" d="M509.7,124.4c.8,0,1.6.1,2.4.2.3,0,.6.2.9.3,1.7.9,2,2.7.6,4.1-.3.3-.8.6-1.2.8-1.3.7-2.6.9-4,.5-.5-.1-.9-.3-1.3-.5-1.5-.9-1.7-2.5-.5-3.8.9-.9,2-1.4,3.2-1.7Z"/>
            <path class="cls-7" d="M414.6,180.1c-.2-1.8,1.1-3.9,2.8-4.6,1.1-.4,2.1-.4,3,.4.9.7,1.2,1.7,1,2.9-.3,1.8-1.3,3.1-2.9,3.8-1.9.8-3.8-.3-3.9-2.4Z"/>
            <path class="cls-7" d="M388.2,264.9c.1,1.2,0,2.2-.6,3-1.2,1.8-3.5,1.9-4.9.3-1.3-1.5-1.3-3.5,0-5,1.8-2.2,4.1-1.2,5.1.4.3.5.4,1,.5,1.3Z"/>
            <path class="cls-7" d="M437.2,162.1c-1.4.1-2.3,0-3.2-.7-1.1-.9-1.3-2.2-.6-3.4.9-1.6,3-2.4,4.7-1.9,1.1.3,1.9,1,2.1,2.2.3,1.3-.4,2.3-1.3,3.1-.6.4-1.3.7-1.7.9Z"/>
            <path class="cls-7" d="M454.3,150.1c.1,1.1-.6,2.4-2.1,3.2-1.3.7-2.7.6-3.7-.3-.7-.6-1.1-1.4-.9-2.4.3-2.3,3-3.8,5.1-2.9.9.4,1.6,1.1,1.7,2.4Z"/>
            <path class="cls-7" d="M383.7,246.4c-.2-1.6.9-3.4,2.4-4,1.4-.6,3,0,3.5,1.5.7,1.8-.4,4.3-2.2,4.9-1.8.7-3.5-.5-3.7-2.4Z"/>
            <path class="cls-7" d="M406,202.3c.2,1.7-1.1,3.3-2.8,3.5-1.6.2-3.1-.9-3.3-2.5-.2-1.6,1.1-3.2,2.9-3.4,1.5-.2,3,.9,3.2,2.4Z"/>
            <path class="cls-7" d="M391,230.1c-1.3.2-2.4-.8-2.6-2.2-.2-1.5.8-3.1,2.3-3.7,1.1-.5,2.3,0,2.9,1,1.1,1.9-.4,4.7-2.5,4.9Z"/>
            <path class="cls-7" d="M509.4,119.3c.9-.1,1.7-.1,2.5.3,1.1.6,1.2,1.6.5,2.5-.6.7-1.4,1.1-2.3,1.2-.9.2-1.8,0-2.6-.4-1-.6-1.2-1.7-.4-2.6.6-.7,1.5-1.1,2.3-1.2Z"/>
            <path class="cls-7" d="M488.1,129c-.9.1-1.7,0-2.4-.3-.9-.5-1.1-1.4-.6-2.3.9-1.5,3.5-2.1,5-1.3.9.5,1.1,1.3.6,2.2-.6,1.1-1.6,1.5-2.7,1.7Z"/>
            <path class="cls-7" d="M469.9,136.8c-.9.2-1.7,0-2.4-.5-.5-.4-.6-1-.4-1.6,0-.2.2-.4.3-.6.8-1.3,2.7-2,4.2-1.7,1.4.3,1.9,1.6,1,2.8-.7.9-1.6,1.4-2.7,1.6Z"/>
            <path class="cls-7" d="M457.8,141.9c0,.1,0,.3,0,.4-.1,1.6-1.9,3-3.5,2.8-1.3-.2-2.1-1.2-1.7-2.5.4-1.5,1.9-2.6,3.3-2.5,1,0,1.8.7,1.9,1.7Z"/>
            <path class="cls-7" d="M427.7,167.9c-.2,0-.6,0-1-.1-1.7-.5-2.3-2.3-1.1-3.6.6-.7,1.4-1.1,2.4-1.1,1,0,1.9.6,2.3,1.4.3.8,0,1.8-.7,2.5-.5.5-1.1.8-2,.9Z"/>
            <path class="cls-7" d="M383.4,307.2c0,.7,0,1.5-.4,2.2-.7,1.2-1.9,1.4-2.9.4-1.1-1.1-1.3-3.5-.3-4.7.6-.9,1.7-1,2.5-.3.6.5,1,1.4,1.1,2.4Z"/>
            <path class="cls-7" d="M413.3,186.9c.1,1.2-.8,2.5-2.1,2.6-1.2.1-2.2-.7-2.4-1.9-.2-1.2.8-2.4,2.1-2.6,1.2-.1,2.2.7,2.4,1.9Z"/>
            <path class="cls-7" d="M398.1,211.5c-1.2.2-2.2-.6-2.4-1.8-.2-1.2.7-2.5,2-2.7,1.1-.2,2.3.7,2.5,1.8.2,1.2-.7,2.5-2,2.7Z"/>
            <path class="cls-7" d="M381.9,268.4c.1.9-.2,1.8-.9,2.5-1,.9-2.3.6-2.8-.7-.3-.8-.2-1.7.2-2.5.4-.9,1.3-1.5,2.1-1.3.8.2,1.3.9,1.4,2Z"/>
            <path class="cls-7" d="M379.9,255.5c0-.8.3-1.5,1.1-2,.7-.4,1.4-.2,2.1.2.8.5,1.1,1.5.9,2.4-.3,1.1-1.1,1.8-2.2,1.7-1.1,0-1.9-1-2-2.3Z"/>
            <path class="cls-7" d="M378.4,287.9c-.1-1.1,0-2,.6-2.7.7-.8,1.6-.8,2.2,0,.8,1,1,2.7.2,3.8-.7,1-1.9,1-2.5,0-.3-.4-.4-.9-.5-1.1Z"/>
          </g>
          <g>
            <path class="cls-5" d="M563.9,287.2c5.7-.6,10.3.9,14,4.8,3.8,4,5,9,3.5,14.3-2.7,9.8-13.8,14.3-22.7,9.4-6.9-3.8-9.5-11.7-7-18.3,2.2-5.9,6.6-9.1,12.3-10.2Z"/>
            <path class="cls-5" d="M584,297.9c-.4-4,1.1-8,4.7-11.2,2.9-2.6,6.3-3.8,10.2-3.5,7.8.5,13.6,7.1,12.6,15.1-1,7.9-8.9,13.9-17.2,11.8-5.1-1.3-9.4-5.6-10.2-12.2Z"/>
            <path class="cls-5" d="M570.3,320c5.2-.4,9.8,1.3,13,6,3.3,4.8,2.9,11-.6,15.6-4.2,5.5-11.8,7.1-17.9,3.8-6.3-3.4-8.8-11.1-5.7-17.5,2.2-4.5,5.9-7,11.2-7.9Z"/>
            <path class="cls-5" d="M598.3,314.7c8-1.2,14.3,3.7,14.9,10.6.4,4.4-1.2,8.1-4.6,10.9-4.1,3.4-8.8,4.2-13.8,1.9-5.7-2.6-8.3-9.1-6.1-15,1.8-4.9,5.5-7.7,9.6-8.5Z"/>
            <path class="cls-5" d="M577.1,373.5c-7.3.9-13.4-4.3-13.7-11.1-.2-5.2,2-9.1,6.5-11.6,4.6-2.6,10.1-2.1,14.1,1.3,3.7,3.2,5,7.3,3.8,12-1.2,5.1-5.5,8.8-10.7,9.5Z"/>
            <path class="cls-5" d="M593.3,357c-1.1-7.6,5-14.8,12.6-14.8,6.1,0,11,4.6,11.4,10.8.4,7-4.9,12.9-11.3,13.7-6.3.8-11.8-3.4-12.7-9.7Z"/>
            <path class="cls-5" d="M639.2,319.6c.4,3.3,0,6.4-1.8,9.3-1.4,2.3-3.4,3.9-6.1,4.7-2.1.6-4.1.4-6.1-.3-2.4-.9-4.3-2.4-5.7-4.5-2.7-4-3.6-8.3-2.2-13,.7-2.4,2-4.5,4.1-6,3.2-2.3,6.6-2.6,10.2-1,3.2,1.4,5.3,3.9,6.7,7,.5,1.2,1,2.5,1.1,3.8Z"/>
            <path class="cls-5" d="M612.5,293.6c-.5-4.3.5-8.1,3.6-11.2,4.1-4.1,10.1-4.4,14.6-.8,2.6,2.1,4,4.9,4.5,8.1.5,3.4-.1,6.6-2,9.5-1.5,2.3-3.5,3.9-6.1,4.7-3.8,1.2-7.2.3-10.2-2.2-2.3-1.9-4-4.9-4.3-8.2Z"/>
            <path class="cls-5" d="M642.2,346.4c.7,5-1.6,9.7-5.8,11.9-3.7,1.9-7.5,1.8-11-.5-5.4-3.4-6.9-10.9-3.3-16.1,2.3-3.4,5.7-5.2,9.9-4.9,4.3.3,7.4,2.6,9.3,6.4.5,1.1.9,2.2.9,3.2Z"/>
            <path class="cls-5" d="M661.5,313.6c.3,2.9-.6,6.1-3.1,8.8-2.8,3.1-8,4.3-12.5,1.5-6.2-4-6.9-13.3-1.2-18.1,4.3-3.6,10.3-3,13.9.9,1.6,1.8,2.5,3.7,3,6.9Z"/>
            <path class="cls-5" d="M657,285c.5,3.4-.2,6.4-2.1,9.1-3.6,4.9-10.2,5.5-14.6.8-4.1-4.4-4.3-11.6-.3-16.2,3.2-3.6,8.2-4.3,12.2-1.6,2.6,1.7,4.5,4.8,4.8,7.8Z"/>
            <path class="cls-5" d="M579.6,395.8c-3,.3-5.9-.3-8.5-2.3-3.5-2.8-4.4-7.5-2.2-11.4,1.4-2.5,3.6-4.2,6.3-5.2,3.1-1.1,6.2-1.1,9.2.3,3.3,1.5,5.3,4.1,5.5,7.8.2,2.8-.9,5.2-2.9,7.2-2,2-4.4,3.2-7.4,3.6Z"/>
            <path class="cls-5" d="M652.9,330.5c7.2-.9,12.8,5.4,11.1,12.5-1.2,5.1-5.7,8.6-10.7,8.4-4.3-.1-8.4-3-9.5-7.9-1.4-6.2,2.8-12.2,9.2-13Z"/>
            <path class="cls-5" d="M632.7,382.7c-5.6.8-10.2-3.2-10.1-8.9.1-5.1,3.7-9.6,8.7-10.8,5.7-1.4,11,2.7,11,8.6,0,5.6-4.5,10.4-9.6,11Z"/>
            <path class="cls-5" d="M655.1,374.1c-3.2.4-5.9-.1-8.1-2.1-3.5-3.2-4-8.2-1.1-12,1.8-2.4,4.3-3.9,7.2-4.3,2.8-.4,5.4.2,7.7,2,1.9,1.5,2.9,3.6,3,6,.2,4.4-2.6,8.4-6.9,10-.7.3-1.4.4-1.8.5Z"/>
            <path class="cls-5" d="M680.1,307.2c.4,3.7-.6,6.9-3.1,9.6-3,3.2-7.8,3.2-10.9,0-1.4-1.4-2.2-3.1-2.6-5.1-.7-3.7,0-7,2.5-9.9,2.3-2.7,5.8-3.6,8.8-2.2,1.2.5,2.3,1.4,3.1,2.5,1.2,1.5,1.9,3.2,2.1,5.1Z"/>
            <path class="cls-5" d="M675.7,281.6c.4,2.8-.1,5.4-1.7,7.8-.8,1.3-1.9,2.3-3.3,3-2.6,1.3-5.1,1-7.4-.6-2.7-1.9-4-4.6-4.3-7.9-.2-2.3.2-4.6,1.5-6.6.9-1.5,2.1-2.6,3.6-3.3,2.4-1.2,4.8-1,7,.4,2.7,1.7,4.2,4.2,4.6,7.4Z"/>
            <path class="cls-5" d="M607.8,388.4c-2.3.3-4.4,0-6.2-1.1-3.4-2-4.5-5.7-3.3-9.2,1.8-5.1,7.7-7.9,12.8-6.2,4.1,1.4,6.3,5.7,4.8,9.8-1.4,3.9-4.4,5.9-8.1,6.7Z"/>
            <path class="cls-5" d="M617.8,399.3c.3,2.3-.3,4.4-1.7,6.2-2.2,3-5.2,4.6-9,4.4-3.3-.2-5.8-1.8-7.1-4.9-.7-1.6-.7-3.2-.2-4.9,1.2-4.4,5.8-8.2,11.2-7.4,2.8.4,4.8,2,6.1,4.4.3.7.5,1.4.7,2.1Z"/>
            <path class="cls-5" d="M580.5,399.1c2.7-.3,5,.1,7,1.6,3.3,2.4,4,6.5,1.9,9.9-2.8,4.3-9.1,5.7-13.5,3.1-3.8-2.3-4.8-7-2.2-10.6,1.7-2.4,4.1-3.7,6.8-4.1Z"/>
            <path class="cls-5" d="M680,332.2c.3,2.7-.5,5.4-2.9,7.6-2.6,2.4-6.5,2.4-9.2.1-1.7-1.5-2.7-3.5-2.9-5.7-.2-2.9.6-5.4,2.7-7.4,3.1-2.9,7.7-2.5,10.4.8,1,1.2,1.6,2.7,1.9,4.7Z"/>
            <path class="cls-5" d="M640.4,391.4c.2,1.9-.3,3.6-1.3,5.2-1.5,2.3-3.5,3.7-6.2,4.2-2.9.6-5.8-.7-7.2-3.1-1.1-1.9-1.1-4-.3-6,1.4-3.5,4-5.5,7.7-5.9,2.8-.3,5.4,1.2,6.5,3.5.3.7.5,1.4.7,2.1Z"/>
            <path class="cls-5" d="M583.9,431.5c-2.2.2-4.3-.2-6.3-1.6-2.1-1.6-3.2-5-1.5-7.8,1-1.7,2.4-2.9,4.2-3.6,2.3-.9,4.6-1.1,6.9-.2.5.2,1,.4,1.4.7,3.3,2,4,6,1.6,9-1.6,2-3.7,3.1-6.3,3.5Z"/>
            <path class="cls-5" d="M653.1,393.9c-1.2.2-2.9,0-4.4-1-2.3-1.4-3.2-3.5-3-6.1.1-1.7.9-3.2,2-4.4,2.2-2.5,5.8-3.6,8.7-2.7,3.7,1.1,5.4,4.8,4.2,8.3-1,3.1-3.8,5.4-7.5,5.9Z"/>
            <path class="cls-5" d="M666.1,357.8c-.5-3.7,1.3-7.3,4.5-8.8,3.7-1.7,7.8,0,9,3.9,1.2,3.6-.2,7.7-3.2,9.8-4.1,2.8-9.3.6-10.3-4.3,0-.2,0-.4,0-.6Z"/>
            <path class="cls-5" d="M664.2,377.6c-.2-1.7.1-3.7,1.4-5.4,2.2-3.1,6.1-3.8,9.1-1.5,3.9,2.9,4,9.4.3,12.4-2.9,2.3-6.9,1.8-9.1-1.1-.9-1.2-1.4-2.4-1.7-4.3Z"/>
            <path class="cls-5" d="M632.7,417.8c-2.5.3-4.7-.1-6.6-1.7-2.3-1.9-2.7-5.1-1-7.5,2.1-3.1,5.1-4,8.7-3.6,1.4.2,2.6.7,3.6,1.6,2.1,1.7,2.6,4.4,1.5,6.8-1.3,2.6-3.5,3.9-6.1,4.4Z"/>
            <path class="cls-5" d="M610.3,412.7c1.7-.3,3.3-.2,4.9.4.6.2,1.2.5,1.7.9,1.4,1.1,1.9,2.7,1.3,4.4-.4,1.3-1.3,2.4-2.4,3.2-2.6,2-5.6,3.1-9,2.8-1.2,0-2.3-.3-3.4-.9-2.2-1.2-2.8-3.4-1.7-5.6.7-1.4,1.8-2.4,3-3.2,1.7-1.1,3.5-1.8,5.5-2Z"/>
            <path class="cls-5" d="M678.8,281.7c-.4-3,0-5,1.1-6.8,2.2-3.2,6.2-3.7,8.9-.4,2.8,3.4,2.2,8.2.3,10.7-1.7,2.3-5.3,3.6-8.4.2-1.2-1.3-1.9-2.8-2-3.7Z"/>
            <path class="cls-5" d="M651.4,397.6c1.2-.2,2.3-.1,3.3.3,2.3.9,3.5,3,2.9,5.5-.8,3.6-4.7,6-8.2,5.4-3.9-.7-5.1-4.2-3.6-7.3.9-1.9,2.6-3,4.6-3.7.4-.1.7-.2.9-.2Z"/>
            <path class="cls-5" d="M682.4,306.2c-.3-2.3.2-4.5,1.8-6.3,2.1-2.4,5.4-2.2,7.3.4,1.9,2.5,1.9,6.3.1,8.9-.4.6-1,1.1-1.6,1.6-1.8,1.4-4.3.9-5.7-.6-1.1-1.1-1.7-2.4-1.9-4Z"/>
            <path class="cls-5" d="M683.8,327.7c-.1-1.5.3-3.3,1.7-4.8,2.4-2.6,6.2-2.2,8.1.7,1.7,2.7,1.3,6.2-1,8.4-2.2,2-5.3,1.8-7.3-.4-.8-.9-1.3-2-1.6-3.8Z"/>
            <path class="cls-5" d="M668.3,399.3c-1.6.2-2.8,0-4-.7-1.7-1-2.4-2.5-2.2-4.5.3-3.4,3.7-6.1,7.1-5.6,3.6.5,5.5,3.9,3.9,7.1-1,2.1-2.8,3.3-4.8,3.7Z"/>
            <path class="cls-5" d="M629.9,430.7c-1.1.2-2.3,0-3.5-.6-1.6-.8-2.3-2.2-2-4,.1-.8.4-1.4.9-2.1,1.5-2.1,3.6-3.3,6.3-3.3.8,0,1.6.1,2.4.4,2.4.8,3.3,3.2,2.2,5.5-.4.8-.9,1.5-1.6,2.1-1.2,1-2.8,1.7-4.5,2Z"/>
            <path class="cls-5" d="M680.3,370.3c-.5-3.3,1.8-6.8,5-7.6,2.7-.7,5,.8,5.4,3.6.4,2.9-1.4,6.5-4.7,7.6-2.7.9-5.3-.6-5.7-3.5Z"/>
            <path class="cls-5" d="M692.9,346.6c.4,3-1.6,6.3-4.5,7.3-2.8.9-5.4-.6-5.8-3.5-.4-2.5.6-4.6,2.5-6.2.5-.4,1.1-.8,1.8-1.1,3.1-1.3,5.8.5,6.1,3.5Z"/>
            <path class="cls-5" d="M585.2,442.9c-1.6.2-3.1.1-4.4-.5-.2-.1-.5-.2-.7-.4-2.2-1.4-2.4-3.7-.7-5.6.3-.4.7-.7,1.1-1,2.4-1.6,5-2,7.6-.9,3.1,1.2,3.6,4.3,1.2,6.5-1.2,1.1-2.6,1.6-4,1.8Z"/>
            <path class="cls-5" d="M693.5,277.8c-.2-2,0-3.6.9-5,1.5-2.3,4.2-2.6,6.1-.5,1.4,1.5,1.8,3.4,1.7,5.4,0,1.2-.4,2.3-1.1,3.3-1.5,2.2-4.1,2.3-5.9.4-1-1.1-1.6-2.4-1.7-3.5Z"/>
            <path class="cls-5" d="M609.5,437.1c-1.1.1-2.1,0-3.2-.2-.4-.1-.8-.2-1.2-.4-1.8-1-2.2-2.8-1-4.4.3-.5.8-.9,1.3-1.2,2.2-1.6,4.6-2.2,7.3-1.7.7.1,1.3.4,1.9.7,1.4.9,1.7,2.3,1,3.8-.4.8-1,1.4-1.7,1.9-1.2.8-2.8,1.4-4.3,1.6Z"/>
            <path class="cls-5" d="M705.7,318.4c.6,3.2-1.9,5.8-4.3,6.1-1.6.2-2.9-.3-3.8-1.5-2.1-2.5-1.4-6.5,1.5-8,3.4-1.9,6.4.7,6.7,3.4Z"/>
            <path class="cls-5" d="M704.6,297.4c.3,2.1-.1,3.7-1.3,5.2-1.6,1.9-4.1,1.9-5.6,0-.9-1.1-1.2-2.5-1.1-3.9.2-1.7.8-3.2,2.3-4.2,1.4-1,3-.9,4.3.2.9.8,1.4,1.9,1.6,2.8Z"/>
            <path class="cls-5" d="M647.8,412.2c.8,0,1.7,0,2.5.3,1.8.8,2.7,2.8,2,4.7-.8,2.3-4.1,4.5-7.3,2.8-1.8-1-2.4-2.8-1.6-4.6.7-1.6,2.3-2.8,4.3-3.1Z"/>
            <path class="cls-5" d="M699.1,337.4c2.1-.3,3.9,1.1,4.1,3.3.3,2.2-1,4.3-3.1,5.1-1.9.7-3.9-.1-4.6-2-1.1-2.7.7-5.9,3.6-6.4Z"/>
            <path class="cls-5" d="M627.3,439.3c-1,0-1.9,0-2.8-.3-1.5-.6-2.1-2-1.4-3.5.2-.5.5-.9.9-1.3,1.4-1.4,3.2-2.1,5.2-2,.7,0,1.4.2,2,.5,1.4.7,1.8,2.2,1,3.5-.4.7-1,1.4-1.7,1.9-1,.6-2,1-3.1,1.2Z"/>
            <path class="cls-5" d="M662,403.3c1.1-.2,1.9,0,2.7.3,1.6.7,2.3,2.4,1.6,4-.8,1.8-3.5,3.7-6.2,2.8-.5-.2-1-.5-1.4-.8-1-.8-1.2-1.9-.8-3,.7-1.9,2.3-2.9,4-3.3Z"/>
            <path class="cls-5" d="M609,439.4c1-.1,2,0,3,.4,1.7.8,2.1,2.4,1.1,4-.6.8-1.3,1.4-2.2,1.8-1.5.7-3.1.9-4.7.4-2-.7-2.6-2.6-1.3-4.3.9-1.2,2.3-1.9,4.1-2.2Z"/>
            <path class="cls-5" d="M683.1,388.9c-.4.1-.8.3-1.2.4-2.5.7-4.3-1.2-4.1-3.4.1-1.7,1-3,2.5-3.9.4-.2.9-.4,1.3-.5,1.5-.3,2.9.5,3.4,2,.5,1.5.1,2.8-.7,4.1-.4.5-.8,1-1.2,1.5,0,0,0,0,0,0Z"/>
            <path class="cls-5" d="M692.8,361.2c-.3-1.9.9-3.9,2.6-4.7,2.1-.9,4.5.5,4.7,2.8.2,2.1-1.4,4.3-3.5,4.8-1.8.4-3.6-.9-3.9-2.9Z"/>
            <path class="cls-5" d="M709.3,272.6c.2,1.2,0,2.3-.5,3.4-1.1,2-3.2,2.2-4.6.4-1.4-1.8-1.5-3.7-.6-5.7,0-.1.2-.3.2-.4,1.1-1.6,2.9-1.7,4.2-.3.7.8,1.1,1.7,1.2,2.7Z"/>
            <path class="cls-5" d="M704.9,296c-.2-1.3,0-2.6.7-3.7.7-1.2,2.1-1.8,3.3-1.4.6.2,1.1.6,1.4,1.2.9,1.7,1,3.5.2,5.2-.3.7-.9,1.2-1.5,1.6-1.1.6-2.3.4-3.2-.6-.5-.5-.8-1.3-.9-2.3Z"/>
            <path class="cls-5" d="M585.9,451.7c-1.3.2-2.4,0-3.5-.6-1.4-.9-1.6-2.3-.6-3.5.2-.3.5-.6.8-.8,1.7-1.1,3.4-1.4,5.3-.8.3.1.7.3,1,.5,1.1.8,1.3,2.1.5,3.2-.9,1.2-2.1,1.7-3.5,2Z"/>
            <path class="cls-5" d="M680.8,397.7c.3,2-1.2,4.3-3.1,4.9-2.1.6-3.9-.9-3.7-3.1.2-1.3.7-2.5,1.8-3.3.4-.4,1-.6,1.5-.8,1.8-.5,3.2.5,3.5,2.3Z"/>
            <path class="cls-5" d="M712.3,313.1c.1,1.4-.2,2.6-1.4,3.6-1.3,1-2.9.9-4-.3-1.3-1.4-1.4-3.7-.2-5.2,1.1-1.4,2.9-1.6,4.3-.5.8.6,1.3,1.4,1.4,2.4Z"/>
            <path class="cls-5" d="M658.7,421.6c-.3,0-1,0-1.6-.3-1.8-.7-2.4-2.8-1.2-4.4,1.1-1.4,3.2-2,4.9-1.3,1.7.8,2.2,2.6,1.1,4.1-.7,1-1.7,1.6-3.3,1.8Z"/>
            <path class="cls-5" d="M644.5,429.9c-.2,0-.6,0-1,0-1.6-.4-2.6-2.1-1.9-3.6.6-1.4,1.7-2.3,3.2-2.6.9-.1,1.7.1,2.4.7.9.7,1.2,1.6.9,2.7-.4,1.5-1.7,2.7-3.6,2.9Z"/>
            <path class="cls-5" d="M692,372.8c1.1-.1,2.1.2,2.7,1.2.7,1,.7,2.1,0,3.1-.2.4-.5.7-.8,1-1.3,1-3,.9-4-.3-1-1.2-1-2.9.2-4,.5-.5,1.1-.8,1.9-.9Z"/>
            <path class="cls-5" d="M706.4,350.4c.3,1.6-1,3.5-2.6,4-1,.3-2.2-.3-2.6-1.3-.9-1.9.6-4.5,2.6-4.8,1.2-.1,2.4.8,2.6,2.1Z"/>
            <path class="cls-5" d="M625.3,444.7c-.5,0-1.1,0-1.8-.4-.7-.4-1-1.1-.7-1.8.1-.4.4-.8.7-1.1,1.1-1,2.3-1.5,3.8-1.2,1.5.3,2,1.6,1.1,2.8-.7.9-1.7,1.4-3.1,1.6Z"/>
            <path class="cls-5" d="M707.8,336c-.9.1-1.9-.5-2.2-1.4-.6-1.5.4-3.5,2-4,1-.3,2,.2,2.5,1,.9,1.6-.4,4.1-2.2,4.4Z"/>
            <path class="cls-5" d="M586.5,456.9c-.9.1-1.7,0-2.5-.4-1.1-.6-1.3-1.8-.4-2.7,1-1.1,3.2-1.5,4.6-.8,1.4.7,1.5,2,.3,3-.6.5-1.4.8-2,.9Z"/>
            <path class="cls-5" d="M714.4,271.3c0,.8,0,1.7-.6,2.4-.7,1-1.8,1.1-2.7.2-1.1-1.1-1.3-3.3-.4-4.6.7-1,1.9-1.1,2.8-.2.4.4.8,1.2,1,2.2Z"/>
            <path class="cls-5" d="M640.5,437c-1.8.3-3-1-2.4-2.6.4-1.3,1.4-2.1,2.8-2.3,1.6-.2,2.7,1.2,2.2,2.7-.4,1.3-1.4,1.9-2.5,2.2Z"/>
            <path class="cls-5" d="M670.5,411.8c.1,1.1-.7,2.3-2.1,2.7-1.3.4-2.5,0-3.1-1-.3-.6-.4-1.2,0-1.8.6-1.3,2.1-2,3.5-1.7,1,.2,1.6.9,1.7,1.8Z"/>
            <path class="cls-5" d="M699.6,368.7c.2,1.2-.7,2.5-1.9,2.7-1.1.2-2.3-.6-2.5-1.7-.2-1.3.6-2.5,1.9-2.7,1.2-.2,2.3.5,2.5,1.7Z"/>
            <path class="cls-5" d="M712.2,310.8c0-.9.2-1.8.9-2.5,1-1,2.5-.7,2.9.7.3,1.2.1,2.2-.7,3.1-.5.5-1,.7-1.7.6-.7-.2-1.2-.7-1.3-1.5,0-.1,0-.2,0-.4Z"/>
            <path class="cls-5" d="M683.1,388.9c.5,0,1-.2,1.4-.2.9,0,1.6.4,1.9,1.2.3.7.2,1.5-.3,2.1-.5.6-1.1,1-1.9,1.1-.8,0-1.5-.2-1.9-.9-.4-.7-.5-1.4,0-2.1.2-.4.5-.8.8-1.2,0,0,0,0,0,0Z"/>
            <path class="cls-5" d="M715.4,291.3c.1,1.1,0,2-.6,2.7-.7.8-1.7.8-2.3,0-.8-.9-.8-2.9,0-3.9.6-.7,1.4-.8,2.1-.2.5.4.8,1,.8,1.4Z"/>
            <path class="cls-5" d="M607.9,451.2c-.6,0-1.2,0-1.7-.3-.6-.4-.8-1-.4-1.7.6-1.1,2.6-1.7,3.8-1.1.8.4.9,1.2.4,1.9-.5.7-1.3,1-2.1,1.2Z"/>
            <path class="cls-5" d="M714.1,323c.2,1-.5,2.1-1.5,2.1-.9,0-1.9-.7-2-1.7-.1-1,.6-1.9,1.6-2,.9,0,1.7.6,1.9,1.6Z"/>
          </g>
          <g>
            <path class="cls-6" d="M563,283.3c-8.6,1.2-16.4-4.6-17.6-13.1-1.2-8.3,4.7-16.1,13.2-17.3,8.7-1.2,16.5,4.6,17.6,13,1.3,9.2-5.3,16.3-13.3,17.4Z"/>
            <path class="cls-6" d="M589.4,249.6c8.2-1.2,15.3,3.8,16.6,11,1.8,9.4-5.7,16.7-14.2,16.1-3.9-.2-7.2-1.8-9.8-4.8-3.7-4.3-4.7-10.4-1.7-15.7,2.2-3.9,5.6-6,9.1-6.6Z"/>
            <path class="cls-6" d="M553.7,223.5c6.1-.9,12.1,2.4,14.6,7.7,2.6,5.4,1.1,12-3.5,15.9-5,4.1-11.9,4.3-16.9,1-8.3-5.6-8-17-.1-22.3,1.8-1.2,3.8-2,5.9-2.3Z"/>
            <path class="cls-6" d="M587.2,245.7c-4.9.8-10.8-1.7-13.4-6.9-2.1-4.1-1.9-8.2.5-12.1,1.5-2.4,3.8-4.1,6.5-5,5.2-1.7,11.6,0,15,5.1,5.1,7.6.5,17.6-8.7,18.8Z"/>
            <path class="cls-6" d="M552,221.4c-4.7.4-8.8-1.1-11.8-5-4.7-6.2-2.4-15.1,4.7-18.2,5.3-2.3,11.6-.8,15.2,3.8,5.5,7.1,1.8,16.9-6.5,19-.5.1-1,.2-1.7.4Z"/>
            <path class="cls-6" d="M577.1,194.3c7.4-1,13.8,3.4,15.2,9.9,1.3,5.8-2,11.3-7.3,13.2-5.9,2.1-13.5-.8-16.2-7.4-1.3-3.1-1.3-6.2,0-9.2,1.7-3.9,4.9-6,8.2-6.5Z"/>
            <path class="cls-6" d="M624.1,228.7c.5,3.9-.3,7.6-2.7,10.7-2.4,3-5.5,4.5-9.4,4-2.1-.3-4-1.2-5.6-2.6-2.5-2.2-3.9-5-4.5-8.3-.6-3.5,0-6.8,1.7-9.9,1.5-2.6,3.7-4.3,6.6-5.1,2.3-.6,4.6-.3,6.7.8,2.8,1.4,4.8,3.6,6.1,6.4.6,1.3.9,2.6,1.1,4Z"/>
            <path class="cls-6" d="M607.3,261c-.6-4.1,0-7.5,2.3-10.4,2.7-3.5,7.1-4.9,11.3-3.6,3.6,1.1,6.2,3.4,7.9,6.8,1.9,4,2,8.1,0,12.1-2.7,5.5-9.2,7.5-14.6,4.6-4-2.2-6.1-5.6-6.9-9.5Z"/>
            <path class="cls-6" d="M618,201.1c.9,6.1-1.9,11.6-7.6,13.3-3.2,1-6.3.5-9.1-1.3-5.4-3.4-6.9-10.8-3.5-16.1,3-4.5,8.8-6.2,13.7-3.9,3.8,1.8,5.9,4.9,6.4,7.9Z"/>
            <path class="cls-6" d="M635.1,217.9c2.9-.4,5.4.3,7.6,1.9,4.9,3.6,5.9,9.9,3.6,14.5-2.4,4.7-7.7,6.6-12.2,5-7.2-2.5-9.9-12-4.8-18,1.6-1.9,3.6-3,5.9-3.3Z"/>
            <path class="cls-6" d="M652.2,254.4c.5,3.2.1,5.7-1,8-2.7,5.2-8.8,6.8-13.7,3.4-3.5-2.4-5.1-5.9-5.3-10.1,0-2.4.5-4.5,1.8-6.5,2.8-4.3,8.4-5.6,13-2.5,3,2,4.7,4.9,5.2,7.8Z"/>
            <path class="cls-6" d="M546.9,194.8c-3.4.4-6.1,0-8.6-1.6-5.2-3.2-6.1-9.7-1.9-14.2,3.9-4.2,11.1-4.9,15.7-1.4,5,3.7,5.3,10.5.5,14.5-1.8,1.6-4,2.5-5.8,2.7Z"/>
            <path class="cls-6" d="M641.3,201.8c.8,5.8-3.5,11-9.5,11.4-6,.4-11.1-4.1-11.5-10.1-.4-6.6,5.3-11.2,11.1-10.6,4.5.5,7.6,2.9,9.3,7.1.3.7.4,1.4.6,2.2Z"/>
            <path class="cls-6" d="M602.4,189.5c-5,.7-10.2-2.3-12-7-2.5-6.5,2-11.8,7.8-12.1,3-.2,5.6.8,7.9,2.6,1.5,1.2,2.7,2.7,3.4,4.6,2.1,5.6-1.2,11.1-7.1,11.9Z"/>
            <path class="cls-6" d="M624.9,189.3c-3.7.4-6.9-.5-9.5-3-4.3-4.1-3.1-11.6,2.5-14.1,4.3-1.9,8.4-1.4,12,1.8,2.2,1.9,3.4,4.5,3.1,7.4-.4,3.7-2.6,6.1-6,7.4-.7.3-1.4.4-2,.5Z"/>
            <path class="cls-6" d="M671.2,252.4c.3,2.9-.1,5.6-2,7.9-2,2.5-5.2,3.4-8.2,2.3-2.2-.8-3.8-2.2-5-4.1-2-3.2-2.5-6.5-1.2-10.1.4-1,.9-1.9,1.6-2.7,2-2.3,5.1-3.1,8-2.1,2.5.9,4.3,2.7,5.6,5,.3.7.6,1.4.8,2.1.2.6.3,1.1.4,1.6Z"/>
            <path class="cls-6" d="M666.9,226.9c.2,2,0,3.9-.9,5.7-1.7,3.6-5.4,5.2-9.2,3.9-2.1-.7-3.8-2.1-5.1-3.9-2-2.9-2.8-6.1-1.8-9.6.8-2.7,2.4-4.6,5.2-5.4,1.4-.4,2.8-.4,4.3,0,3.2,1,5.3,3.2,6.6,6.1.5,1,.7,2.1,1.1,3.2Z"/>
            <path class="cls-6" d="M575.4,189.7c-3.9.4-7.3-.7-9.7-3.9-2.5-3.4-1.9-7.8,1.4-10.4,2.4-1.9,5.1-2.5,8-2,2.4.4,4.4,1.4,6.1,3.3,3.1,3.6,2.5,8.9-2,11.7-1.1.7-2.4,1.2-3.8,1.3Z"/>
            <path class="cls-6" d="M567,152.5c3.3-.3,6.7.9,9.1,4.3,2.5,3.6,1.6,8.2-2,10.7-4.8,3.3-11.9,1.5-14.5-3.6-1.6-3.3-.8-7.1,2.1-9.4,1.4-1.1,2.7-1.7,5.3-2.1Z"/>
            <path class="cls-6" d="M539.5,156.5c2.7-.3,5.2.3,7.4,2,2.8,2.2,3.6,6,1.9,9.2-.8,1.4-1.9,2.4-3.2,3.3-3.6,2.3-8.7,1.9-11.8-.8-2.9-2.6-3.4-6.5-1.1-9.7,1.6-2.3,3.9-3.5,6.8-4Z"/>
            <path class="cls-6" d="M658.4,203.1c.4,3-.2,5.2-1.9,7.1-1.9,2-4.3,2.6-6.9,1.9-4.7-1.3-7.8-6.9-5.6-12,1.7-4.1,6.5-5.5,10.4-3.1,2.4,1.5,3.7,3.7,4.1,6.1Z"/>
            <path class="cls-6" d="M595.6,167.6c-4,.6-7.9-1.4-9.6-4.6-1.4-2.6-.9-5.6,1.2-7.6,1.1-1,2.4-1.7,3.8-1.8,3.7-.5,6.8.7,9,3.7,2.8,3.9,1.1,8.7-3.5,10.1-.4.1-.8.2-1,.2Z"/>
            <path class="cls-6" d="M535.1,140.5c2.3-.4,4.2-.1,6,.8,2.3,1.2,3.7,3,3.7,5.7,0,2.1-1.1,3.7-2.7,4.9-3.1,2.3-6.5,2.6-10,1.1-.9-.4-1.7-1.1-2.4-1.9-1.6-1.9-1.8-4.4-.6-6.6,1.1-2,2.8-3.2,5-3.8.5-.1.9-.2,1.1-.2Z"/>
            <path class="cls-6" d="M651.1,182.2c.7,3.9-1.9,7-5.2,7.6-2,.3-3.9-.1-5.5-1.3-2.9-2-4.2-4.8-3.7-8.3.4-3.6,3.8-6,7.4-5.4,3.7.6,6.4,3.5,7,7.4Z"/>
            <path class="cls-6" d="M616.9,166.9c-3.4.3-6.2-.6-8.3-3.2-2.7-3.5-1.5-8.1,2.5-9.9,4-1.8,8.5,0,10.5,2.8,2.3,3.1,1.8,7.6-2.7,9.7-.7.3-1.4.5-2,.6Z"/>
            <path class="cls-6" d="M641.7,162.9c.2,1.5,0,3.2-.8,4.7-2.2,4-7.2,4.6-10.4,1.3-2.2-2.3-3-6-1.8-8.9,1.6-3.9,6.2-5.2,9.6-2.8,2,1.4,3,3.3,3.4,5.7Z"/>
            <path class="cls-6" d="M586,137.4c1.8-.2,4,.2,5.9,1.6,2.8,2.1,3.2,5.6,1,8.3-2.5,3.1-7.7,3.9-11.1,1.7-3.5-2.2-3.9-6.6-.8-9.4,1.3-1.2,2.8-1.9,5.1-2.2Z"/>
            <path class="cls-6" d="M565.2,149.7c-3,.4-5.6.1-8-1.3-.5-.3-1-.7-1.4-1.1-1.6-1.8-1.6-4,0-5.7.8-.9,1.8-1.5,2.9-1.9,3.2-1.3,6.4-1.3,9.6,0,.9.3,1.7.9,2.4,1.5,1.7,1.6,1.9,3.8.5,5.6-1.1,1.4-2.5,2.1-4.1,2.6-.7.2-1.5.3-1.9.4Z"/>
            <path class="cls-6" d="M686.1,249.6c.3,2.3.1,4.1-.8,5.8-1.6,2.8-4.9,3.7-7.5,1.9-3.8-2.6-4.7-7.8-3.1-11.1,1.6-3.1,4.9-4.1,7.8-2.1,2.2,1.5,3.3,3.6,3.6,5.7Z"/>
            <path class="cls-6" d="M609.8,150.4c-2.7.3-4.9-.2-6.7-2-.3-.3-.6-.6-.8-1-1.4-2.1-1-4.5.9-6.2,1.8-1.5,3.8-1.8,6-1.4,1.7.3,3.1,1.2,4.1,2.6,2.1,2.7,1.3,6.1-1.8,7.5-.6.3-1.3.4-1.7.6Z"/>
            <path class="cls-6" d="M669.1,226.3c-.2-1.6-.2-2.9.4-4.1,1.2-2.7,4.1-3.7,6.7-2.1,2.4,1.5,3.6,3.7,3.8,6.5,0,1-.1,2-.5,3-1,2.4-3.4,3.4-5.8,2.4-2.1-.8-3.4-2.5-4.1-4.6-.2-.4-.2-.9-.3-1.1Z"/>
            <path class="cls-6" d="M674.2,204.1c.1.7,0,1.6-.2,2.6-1.3,3.8-4.8,4.2-7.2,3-2.9-1.5-4.2-5-3.1-8.1,1.1-2.9,4.2-4.2,7-2.8,2.1,1,3.3,2.7,3.6,5.3Z"/>
            <path class="cls-6" d="M624.7,143.3c3-.5,5.9,1,7.1,3.3,1.2,2.3.6,4.7-1.5,6.2-3.3,2.3-8.2.7-9.6-3-.7-1.8-.2-3.8,1.3-5.1.9-.8,1.9-1.2,2.7-1.4Z"/>
            <path class="cls-6" d="M581.7,135.5c-2.3.2-4.7-.4-6.4-2.4-1.6-1.8-1.4-4.1.5-5.6.8-.6,1.6-1,2.6-1.2,2-.4,3.9-.2,5.7.7,1,.5,1.8,1.2,2.3,2.2.7,1.3.7,2.7-.2,3.9-1,1.4-2.5,2.1-4.5,2.4Z"/>
            <path class="cls-6" d="M657.2,167.5c.3,2.5-1.4,4.6-3.9,4.7-2.8.1-5-1.1-6.5-3.4-.4-.7-.8-1.4-.9-2.2-.5-2.3.7-4.4,3.3-5,.3,0,.6,0,1-.1,3.2,0,6.5,2.8,7,6Z"/>
            <path class="cls-6" d="M665.8,185.3c.3,2.5-1.2,4.5-3.7,4.8-3.4.4-6.9-2.3-7.5-5.6-.4-2.7,1.4-4.9,4.1-5.1,3.3-.2,6.7,2.6,7.1,5.9Z"/>
            <path class="cls-6" d="M533.5,138.2c-1.2.2-2.5,0-3.6-.3-.9-.3-1.7-.7-2.3-1.4-.9-1-1.2-2.5-.5-3.7.4-.7.9-1.4,1.5-1.8,2.2-1.6,4.7-2,7.3-1.3.7.2,1.4.5,2,1,1.5,1.3,1.8,3.3.6,4.9-.4.5-1,1-1.5,1.4-1,.7-2.2,1.1-3.4,1.3Z"/>
            <path class="cls-6" d="M697.9,248.9c.2,2,0,3.7-1.4,5.2-1,1.1-2.8,1.2-3.8.7-3.2-1.5-4.6-5.8-3.4-8.8.2-.4.4-.9.7-1.2,1.2-1.6,3-1.9,4.7-.9,1.4.9,2.4,2.1,2.9,3.7.1.5.2.9.3,1.3Z"/>
            <path class="cls-6" d="M559.2,134.6c-1.4,0-2.7,0-4-.4-.8-.2-1.5-.6-2.1-1.2-1.2-1.1-1.3-2.4-.3-3.7.7-.9,1.6-1.5,2.7-1.9,1.8-.7,3.7-.9,5.7-.5.8.2,1.5.5,2.2.9,1.9,1.2,2.1,3.2.4,4.7-.5.5-1.2.9-1.9,1.2-.9.4-1.8.6-2.7.9Z"/>
            <path class="cls-6" d="M687.2,207.5c.4,2.7-1.4,5.1-4,5.2-4.1.3-6.7-4-5.3-7.3.9-2.1,3.1-3,5.3-2.4,2.1.6,3.6,2.3,3.9,4.5Z"/>
            <path class="cls-6" d="M684.6,227.5c-.2-1.6,0-2.7.7-3.7.9-1.4,2.4-1.8,3.9-1.3,2.9,1,4.6,4.6,3.6,7.4-.8,2-2.9,2.9-4.8,1.9-2-1-3-2.6-3.4-4.4Z"/>
            <path class="cls-6" d="M600.5,137.9c-1.7.1-3.3-.5-4.6-2.2-.8-1.2-.9-2.4-.2-3.6.7-1.2,1.8-2,3.1-2.3,1.8-.4,3.4.1,4.8,1.3,1.8,1.6,1.6,4.3-.3,5.7-.7.6-1.6.9-2.9,1Z"/>
            <path class="cls-6" d="M677.4,187.3c.4,2.4-1.2,4.2-3.6,4.3-2.4,0-4.7-2.1-4.7-4.5,0-2.2,1.6-3.9,3.8-3.8,2.2,0,4.2,1.8,4.5,4Z"/>
            <path class="cls-6" d="M575.1,125.6c-.7,0-1.8,0-2.9-.4-.4-.2-.9-.4-1.3-.6-2.3-1.6-1.8-3.5,0-4.8,2-1.3,5.4-1.2,7.3.2.3.2.6.5.8.8.8,1,.7,2.3-.2,3.2-.9.9-2,1.3-3.7,1.6Z"/>
            <path class="cls-6" d="M617.4,141.5c-1.4.2-2.9-.2-4.1-1.3-1.3-1.2-1.5-2.7-.3-4.1,1.2-1.4,3.3-2.1,5.6-1.2.6.2,1.2.6,1.6,1,1.6,1.4,1.4,3.6-.3,4.8-.6.4-1.4.7-2.4.9Z"/>
            <path class="cls-6" d="M553.7,118.6c1.4-.2,2.7,0,3.9.6.4.2.8.5,1.1.9.8.9.9,2.1,0,3.1-.4.5-.9,1-1.4,1.2-1.9.9-3.8,1-5.7.1-.2-.1-.5-.2-.7-.4-1.5-1.1-1.6-2.8-.3-4.1.8-.8,1.9-1.2,3-1.4Z"/>
            <path class="cls-6" d="M660.7,170.9c-.4-2.2,1.3-4,3.6-3.8,1.9.2,3.2,1.2,3.9,2.9.5,1.2.3,2.5-.5,3.5-.9,1-2,1.3-3.3,1.1-1.9-.4-3.3-1.8-3.6-3.7Z"/>
            <path class="cls-6" d="M642.2,148.2c.5.2,1,.5,1.4.7,1.3.8,2.3,1.9,2.5,3.5.2,1.7-.9,3-2.6,3.3-2,.3-4.4-1.2-5.1-3.1-.8-2.1.5-4.2,2.6-4.3.4,0,.8,0,1.3,0h0Z"/>
            <path class="cls-6" d="M705.8,249.3c.2,1.2,0,2.3-.5,3.3-.8,1.4-2.4,1.8-3.7.8-1.6-1.2-2.5-3.8-2.1-5.7,0-.3.2-.6.3-.9.9-1.7,2.7-2,4.1-.8,1,.9,1.6,2,1.8,3.2Z"/>
            <path class="cls-6" d="M700.3,228.4c.2,1.1.1,1.9-.2,2.7-.5,1.3-1.7,1.9-3.1,1.5-.7-.2-1.3-.6-1.7-1.1-1.1-1.3-1.7-2.7-1.5-4.4.2-2.1,2-3.1,4-2.2,1.6.8,2.2,2.2,2.6,3.5Z"/>
            <path class="cls-6" d="M530.2,121c.9-.1,1.8,0,2.6.2.6.2,1.2.5,1.6,1,.6.7.8,1.6.3,2.4-.3.5-.7,1-1.1,1.3-1.6,1.1-3.3,1.4-5.2.9-1-.3-1.9-.9-2.1-2-.2-1.2.4-2.1,1.3-2.7.8-.6,1.7-.9,2.6-1Z"/>
            <path class="cls-6" d="M637.5,140.8c.3,1.7-.9,3.1-2.6,3.2-2.2.1-4.1-1.4-4.7-3.4-.4-1.5.3-2.8,1.7-3.3.4-.1.8-.2,1.3-.2,1.9,0,4,1.8,4.3,3.7Z"/>
            <path class="cls-6" d="M688.7,210.9c0-.7,0-1.5.4-2.2.8-1.5,2.3-2.1,3.8-1.4,2,.8,3.2,3.3,1.9,5.5-.9,1.5-2.6,2-4.1,1.1-1.1-.6-1.7-1.6-1.9-2.9Z"/>
            <path class="cls-6" d="M610.6,131.3c-1.6.2-2.8-.2-3.7-1.1-.8-.8-.9-1.8-.5-2.8.4-.8,1-1.4,1.8-1.7,1.3-.5,2.5-.4,3.7.2,2.3,1.2,2,3.7.1,4.9-.5.3-1.1.5-1.4.6Z"/>
            <path class="cls-6" d="M592.7,122.1c1.2-.2,2.1,0,3,.6,1.1.7,1.7,2,1.4,3.1-.3,1.3-1.5,2.2-2.8,2.3-1.2,0-2.2-.3-3.1-1.1-1.6-1.4-1.3-3.7.6-4.6.3-.2.7-.2.9-.3Z"/>
            <path class="cls-6" d="M654.8,154.6c1.7-.2,3.5,1.1,3.7,2.6.2,1.6-.9,2.9-2.5,3.2-1.7.3-3.4-1-3.7-2.6-.2-1.5,1-3,2.5-3.2Z"/>
            <path class="cls-6" d="M675.4,179.7c-2,.3-4.1-1.7-3.9-3.7.2-1.4,1.2-2.2,2.6-2,1.7.2,3.1,1.5,3.2,3.1.1,1.3-.7,2.4-1.9,2.6Z"/>
            <path class="cls-6" d="M683.4,189.9c1.7-.2,3.5,1.4,3.5,3,0,1.3-.9,2.2-2.2,2.2-1.3,0-2.7-1.2-2.9-2.5-.2-1.3.5-2.5,1.7-2.6Z"/>
            <path class="cls-6" d="M529.4,120c-.7,0-1.5,0-2.2-.3-1.3-.6-1.5-1.9-.4-2.9,1.1-1,3.2-1.3,4.5-.7,1.3.6,1.5,1.8.4,2.8-.5.5-1.3.9-2.3,1Z"/>
            <path class="cls-6" d="M571.6,118.6c-1.3.1-2.3,0-3.2-.6-1.3-.8-1.3-2.1,0-3,1.3-.9,3.4-.8,4.6.2,1,.8,1,2,0,2.7-.5.3-1,.5-1.3.6Z"/>
            <path class="cls-6" d="M711,249.5c0,.6,0,1.4-.4,2.1-.6.9-1.4,1.1-2.4.5-1.4-.9-2.1-3.2-1.3-4.7.5-1,1.6-1.3,2.6-.7.9.6,1.3,1.5,1.5,2.8Z"/>
            <path class="cls-6" d="M623,130.7c.1,1-.1,1.7-.7,2.2-1.1.9-2.9.8-4-.1-1.1-1-.9-2.8.5-3.5,1.1-.6,2.8-.4,3.7.5.3.3.4.7.6.9Z"/>
            <path class="cls-6" d="M587.9,121.5c-1.2,0-2.3-.4-3.1-1.5-.8-1.2-.3-2.5,1-2.9,1.3-.4,2.4-.1,3.4.8.6.6,1,1.3.7,2.2-.2.8-1,1.3-2.1,1.5Z"/>
            <path class="cls-6" d="M642.3,148.3c-.4-.3-.8-.6-1.1-.9-1.1-1.2-.6-3,1-3.4,1.1-.3,2.3.2,2.9,1.2.6,1,0,2.4-1.1,2.8-.5.2-1.1.2-1.7.3,0,0,0,0,0,0Z"/>
            <path class="cls-6" d="M662.8,164.2c-1.3.2-2.5-.7-2.7-2-.2-1.1.7-2.2,1.9-2.4,1.3-.2,2.5.7,2.6,2,.2,1.2-.6,2.2-1.8,2.3Z"/>
            <path class="cls-6" d="M699.9,212.5c.1.9-.2,1.6-.8,1.9-.7.4-1.3.2-2-.2-.9-.6-1.4-1.5-1.4-2.5-.1-1.4,1.1-2.3,2.5-1.7.9.4,1.6,1.4,1.8,2.5Z"/>
            <path class="cls-6" d="M705.2,229.9c0,.2,0,.7-.2,1.2-.3.8-1.2,1.1-2,.7-1.2-.6-1.9-2.6-1.4-3.9.4-.9,1.4-1.2,2.3-.6.7.5,1.1,1.2,1.3,2.5Z"/>
            <path class="cls-6" d="M550.8,114.2c.9-.1,1.7,0,2.3.4.7.4.9,1.3.3,1.9-.9,1-3,1.2-4,.3-.6-.5-.6-1.3,0-1.8.4-.4,1-.7,1.4-.7Z"/>
            <path class="cls-6" d="M693.6,200.3c.1,1-.6,2-1.5,2.1-.9,0-1.8-.7-1.9-1.6-.2-.9.6-2,1.5-2.1.9-.1,1.9.6,2,1.7Z"/>
          </g>
        </g>
        <g>
          <path class="cls-3" d="M114,506.7l14.9-4.3v94.1c0,10.7.2,17.3.6,19.9.8,5.9,2.5,10.8,5.2,14.7,2.7,4,6.8,7.2,12.4,9.9,5.6,2.7,11.2,4,16.9,4s9.7-1,14.1-3.1c4.5-2.1,8.3-5,11.4-8.7,3-3.7,5.2-8.2,6.7-13.4,1-3.8,1.5-11.5,1.5-23.3v-89.8l14.9-4.3v94.1c0,13.3-1.3,24-3.9,32.2-2.6,8.2-7.8,15.3-15.6,21.4-7.8,6.1-17.2,9.1-28.3,9.1s-22.3-2.9-30.8-8.6c-8.6-5.7-14.3-13.3-17.2-22.7-1.8-5.8-2.7-16.3-2.7-31.3v-89.8Z"/>
          <polygon class="cls-3" points="242.3 659.2 263.4 510.3 265.8 510.3 326.4 632.5 386.3 510.3 388.7 510.3 410 659.2 395.4 659.2 380.8 552.7 328.2 659.2 324.4 659.2 271.1 551.9 256.6 659.2 242.3 659.2"/>
          <polygon class="cls-3" points="500.1 510.3 569.6 659.2 553.6 659.2 498.1 537.4 442.8 659.2 426.2 659.2 496.5 510.3 500.1 510.3"/>
          <polygon class="cls-2" points="446.3 659.2 497.9 546.8 549.4 659.2 497.9 615.3 446.3 659.2"/>
          <path class="cls-3" d="M709.4,659.1h-3.3l-98-112.4v100.9h0c0,.7,0,1.3,0,1.9.2,8.1,0,9.6-10.3,9.7-3.1,0-7.2,0-12.4,0,3-1,5.6-2.2,6.9-4.7.7-1.3.5-2.5.5-4v-6.4h0v-133.8h3.2l98.9,113.8v-103.5h0c-.2-8.4-.3-10,9.6-10.3,1,0,2.1,0,3.3,0h0s1.8,0,1.8,0h0c2.1,0,4.6,0,7.4,0-3.5,1.2-6.3,2.5-7.4,5.8,0,47.6,0,95.3,0,142.9Z"/>
          <path class="cls-3" d="M894.3,587.7h0s0,0,0,0v12.1h0v48.7h-14.7v-15.8c-1.5,1.9-3.1,5.3-4.9,7-12.9,12.9-30.1,19.3-51.7,19.3s-46.9-8.9-62.2-26.8c-11.8-13.7-17.6-29.6-17.6-47.7s3.4-25.9,10.1-37.5c6.7-11.5,16-20.6,27.8-27.1,11.8-6.5,25.1-9.8,39.9-9.8s23.3,2.2,33.9,6.5c10.6,4.3,21,11.3,31,20.9l-11,10.4c-7.9-7.8-16.6-13.7-26-17.7-9.4-4-18.6-6-27.5-6s-21.7,2.7-31.8,8.2c-10,5.5-17.8,12.9-23.4,22.2-5.5,9.3-8.3,19.2-8.3,29.6s2.9,20.8,8.6,30.4c5.7,9.6,13.6,17.2,23.7,22.7,10.1,5.5,21.2,8.2,33.2,8.2s26.9-4.1,37-12.3c11-8.9,14.9-20.9,17.9-33.5h-25.5v-14.7h26.7s14.7,0,14.7,0v2.5Z"/>
          <path class="cls-1" d="M272.8,733.1h-22.9c0,.4,0,.6,0,.8,0,2.3.6,4.1,1.9,5.5,1.3,1.4,2.9,2.1,4.7,2.1,3,0,5.4-1.6,7.1-4.7l8.1,1.4c-1.6,3.3-3.7,5.7-6.4,7.3-2.7,1.6-5.6,2.5-8.9,2.5s-8.2-1.4-11.1-4.3c-2.8-2.9-4.3-6.7-4.3-11.4s1.3-8.7,3.8-12.3c3.5-4.9,8.5-7.3,14.9-7.3s7.4,1.3,9.8,3.8c2.4,2.6,3.6,6.1,3.6,10.7s-.2,4.2-.6,5.9h0ZM265.1,727.6c0-.4,0-.7,0-.9,0-2.5-.6-4.4-1.7-5.7-1.1-1.3-2.6-1.9-4.5-1.9s-3.6.7-5.1,2.2c-1.5,1.4-2.5,3.5-3,6.3h14.3ZM283.3,713.4h8.7l-.9,4.4c2.2-1.9,4.2-3.2,6.1-4.1,1.9-.8,3.9-1.2,5.9-1.2s5,.8,6.6,2.4c1.6,1.6,2.4,3.7,2.4,6.4,0,1.2-.4,3.4-1.2,6.7l-4.1,19h-9.1l4.1-19.1c.6-2.9.9-4.6.9-5.1,0-1.2-.3-2.1-1-2.8-.7-.7-1.7-1-2.9-1s-2.8.6-4.5,1.7c-1.6,1.1-2.9,2.6-3.9,4.5-.7,1.3-1.5,4-2.4,8.1l-2.9,13.8h-9.1l7.1-33.7h0ZM338.5,734.4l8.8,1.4c-1.5,3.9-3.6,6.9-6.5,9-2.8,2.1-6.1,3.1-9.9,3.1s-7.7-1.3-10.2-3.9c-2.5-2.6-3.8-6.1-3.8-10.6s.8-7.1,2.3-10.4c1.5-3.3,3.8-5.8,6.9-7.7,3.1-1.9,6.4-2.8,10.1-2.8s7.1,1,9.5,3.1c2.4,2.1,3.7,4.8,4,8.2l-8.6.9c-.2-1.9-.8-3.3-1.7-4.2-.9-.9-2.2-1.3-3.7-1.3s-3.4.7-4.9,2c-1.5,1.3-2.7,3.3-3.5,5.9-.8,2.6-1.2,5.1-1.2,7.4s.5,3.5,1.4,4.6c1,1.1,2.2,1.6,3.6,1.6s2.9-.5,4.2-1.6c1.3-1.1,2.4-2.7,3.2-4.8h0ZM364.7,722.8l-8.9-.7c1-3,2.8-5.3,5.3-7,2.5-1.7,5.9-2.5,10-2.5s7.6.9,9.6,2.6c2.1,1.8,3.1,3.9,3.1,6.4s0,2.1-.3,3.2c-.2,1.2-.8,4.2-1.9,9-.9,4-1.3,6.9-1.3,8.5s.3,3,.8,4.8h-8.9c-.3-1.2-.6-2.5-.6-3.8-1.3,1.5-2.9,2.6-4.6,3.4-1.7.8-3.5,1.2-5.2,1.2-2.8,0-5.1-.9-6.9-2.8-1.8-1.8-2.7-4.2-2.7-7.1s1-5.8,3-7.7c2-1.9,5.6-3.1,10.7-3.5,4.3-.4,7.2-.8,8.7-1.3.4-1.3.6-2.3.6-3.1s-.4-1.8-1.2-2.5c-.8-.7-1.9-1-3.5-1s-2.9.3-3.9,1c-.9.7-1.6,1.6-1.9,2.8h0ZM373.4,731.3c-.6.2-1.3.3-2.2.4-4.6.6-7.6,1.4-8.9,2.4-1,.8-1.5,1.8-1.5,3.1s.4,2,1.2,2.7c.8.7,1.8,1.1,3,1.1s2.7-.3,3.9-1c1.2-.7,2.1-1.5,2.7-2.6.6-1.1,1.1-2.7,1.6-5l.3-1.2h0ZM394.6,713.4h8.6l-.7,3.4c1.8-1.5,3.6-2.6,5.2-3.3,1.6-.7,3.3-1,5.2-1,3.5,0,6.4,1.2,8.5,3.7,2.2,2.4,3.2,6.1,3.2,10.9s-1.9,11.2-5.6,15.4c-3.2,3.6-7,5.4-11.3,5.4s-7.9-1.8-10.2-5.4l-3.6,17.4h-9.1l9.7-46.5h0ZM400.1,732.7c0,2.7.7,4.7,1.9,6.2,1.3,1.5,2.8,2.2,4.6,2.2s3-.6,4.4-1.6c1.4-1.1,2.6-2.9,3.5-5.5.9-2.5,1.4-4.9,1.4-7.1s-.6-4.5-1.8-5.8c-1.2-1.4-2.8-2-4.6-2s-3.3.6-4.8,1.9c-1.4,1.2-2.6,3.1-3.3,5.5-.8,2.4-1.2,4.5-1.2,6.3h0ZM426.4,737.7l8.8-1.4c.8,1.9,1.8,3.2,2.9,4,1.2.8,2.7,1.2,4.7,1.2s3.7-.5,5-1.4c.9-.6,1.3-1.4,1.3-2.3s-.2-1.2-.7-1.7c-.5-.5-1.7-1-3.8-1.7-5.5-1.8-8.9-3.3-10.2-4.3-2-1.6-3.1-3.8-3.1-6.5s1-5,3-6.9c2.8-2.7,6.9-4,12.3-4s7.6.8,9.8,2.4c2.2,1.6,3.6,3.7,4.2,6.5l-8.4,1.5c-.4-1.2-1.2-2.2-2.1-2.8-1.4-.8-3-1.2-4.9-1.2s-3.3.3-4.1,1c-.8.6-1.2,1.4-1.2,2.2s.4,1.5,1.3,2.1c.5.3,2.2.9,5.1,1.8,4.4,1.3,7.4,2.6,8.9,3.8,2.1,1.8,3.2,3.9,3.2,6.4s-1.3,6-4,8.3c-2.7,2.3-6.4,3.5-11.3,3.5s-8.6-.9-11.3-2.7c-2.6-1.8-4.4-4.3-5.4-7.5h0ZM471.1,713.4h9.1l-4.5,20c-.5,2.4-.8,3.9-.8,4.5,0,1,.3,1.8,1,2.5.6.7,1.5,1.1,2.5,1.1s1.4-.2,2.2-.5c.7-.3,1.4-.8,2.2-1.4.7-.6,1.4-1.4,2-2.2.6-.8,1.1-1.9,1.7-3.3.4-1,.8-2.5,1.2-4.5l3.6-16.1h9.1l-7.7,33.7h-8.5l.9-4.3c-3.4,3.5-7.1,5.2-11.2,5.2s-4.6-.8-6-2.4c-1.5-1.6-2.2-3.7-2.2-6.4s.4-3.5,1.2-7l4.2-18.8h0ZM503.3,747.1l9.7-46.5h9.1l-9.7,46.5h-9.1ZM534.2,722.8c.3-1.2,1-2.1,1.9-2.8.9-.7,2.2-1,3.9-1s2.7.3,3.5,1c.8.7,1.2,1.5,1.2,2.5s-.2,1.8-.6,3.1c-1.5.5-4.4.9-8.7,1.3-5.1.4-8.7,1.6-10.7,3.5-2,1.9-3,4.5-3,7.7s.9,5.2,2.7,7.1c1.8,1.8,4.1,2.8,6.9,2.8s3.5-.4,5.2-1.2c1.7-.8,3.3-2,4.6-3.4,0,1.3.3,2.6.6,3.8h8.9c-.5-1.8-.8-3.4-.8-4.8s.4-4.4,1.3-8.5c1.1-4.9,1.7-7.9,1.9-9,.2-1.1.3-2.2.3-3.2,0-2.5-1-4.7-3.1-6.4-2.1-1.7-5.3-2.6-9.6-2.6s-7.5.8-10,2.5c-2.5,1.7-4.3,4-5.3,7l8.9.7h0ZM542.9,731.3l-.3,1.2c-.5,2.2-1,3.9-1.6,5-.6,1.1-1.5,1.9-2.7,2.6-1.2.7-2.5,1-3.9,1s-2.2-.4-3-1.1c-.8-.7-1.1-1.6-1.1-2.7s.5-2.3,1.5-3.1c1.4-1.1,4.4-1.9,8.9-2.4.9-.1,1.6-.3,2.2-.4h0ZM559.8,720.2l1.4-6.8h4.5l1.1-5.3,10.3-6.3-2.3,11.6h5.5l-1.4,6.8h-5.5l-3,14.2c-.5,2.6-.8,4-.8,4.4,0,.7.2,1.2.7,1.6.4.4,1.2.6,2.4.6s1.4,0,3-.2l-1.4,6.7c-1.6.3-3.2.5-4.8.5-3.2,0-5.5-.6-7-1.9-1.4-1.2-2.2-3-2.2-5.2s.4-3.4,1.2-7.1l2.9-13.6h-4.5ZM588.8,700.6h9.1l-1.7,8.2h-9.1l1.7-8.2h0ZM586.1,713.4l-7.1,33.7h9.1l7.1-33.7h-9.1ZM598.5,733.1c0-6.3,1.8-11.3,5.3-15,3.5-3.7,8.1-5.6,13.9-5.6s8.8,1.4,11.6,4.1c2.8,2.7,4.2,6.4,4.2,11.1s-1.7,10.2-5.2,14.2c-3.5,4-8.1,6-14,6s-6-.6-8.4-1.9c-2.4-1.3-4.3-3.1-5.5-5.4-1.2-2.3-1.8-4.8-1.8-7.5h0ZM624.4,726.6c0-2.2-.6-3.9-1.9-5.2-1.3-1.3-2.9-2-4.8-2s-3.7.6-5.2,1.8c-1.5,1.2-2.7,3-3.5,5.3-.8,2.3-1.3,4.5-1.3,6.4s.6,4.4,2,5.8c1.3,1.4,3,2.1,4.9,2.1s4.6-1.1,6.3-3.2c2.4-3,3.6-6.8,3.6-11.1h0ZM644,713.4h8.7l-.9,4.4c2.2-1.9,4.2-3.2,6.1-4.1,1.9-.8,3.9-1.2,6-1.2s5,.8,6.6,2.4c1.6,1.6,2.4,3.7,2.4,6.4,0,1.2-.4,3.4-1.2,6.7l-4.1,19h-9.1l4.1-19.1c.6-2.9.9-4.6.9-5.1,0-1.2-.3-2.1-1-2.8-.7-.7-1.7-1-2.9-1s-2.8.6-4.5,1.7c-1.6,1.1-2.9,2.6-3.9,4.5-.7,1.3-1.5,4-2.4,8.1l-2.9,13.8h-9.1l7.1-33.7h0ZM693.3,737.7l8.8-1.4c.8,1.9,1.8,3.2,2.9,4,1.2.8,2.7,1.2,4.7,1.2s3.7-.5,5-1.4c.9-.6,1.3-1.4,1.3-2.3s-.2-1.2-.7-1.7c-.5-.5-1.7-1-3.8-1.7-5.5-1.8-8.9-3.3-10.2-4.3-2-1.6-3.1-3.8-3.1-6.5s1-5,3-6.9c2.8-2.7,6.9-4,12.3-4s7.6.8,9.8,2.4c2.2,1.6,3.6,3.7,4.2,6.5l-8.4,1.5c-.4-1.2-1.2-2.2-2.1-2.8-1.4-.8-3-1.2-4.9-1.2s-3.3.3-4.1,1c-.8.6-1.2,1.4-1.2,2.2s.4,1.5,1.3,2.1c.5.3,2.2.9,5.1,1.8,4.4,1.3,7.4,2.6,8.9,3.8,2.1,1.8,3.2,3.9,3.2,6.4s-1.3,6-4,8.3c-2.7,2.3-6.4,3.5-11.3,3.5s-8.6-.9-11.3-2.7c-2.6-1.8-4.4-4.3-5.4-7.5h0ZM731.9,733.1c0-6.3,1.8-11.3,5.3-15,3.5-3.7,8.1-5.6,13.9-5.6s8.8,1.4,11.6,4.1c2.8,2.7,4.2,6.4,4.2,11.1s-1.7,10.2-5.2,14.2c-3.5,4-8.1,6-14,6s-6-.6-8.4-1.9c-2.4-1.3-4.3-3.1-5.5-5.4-1.2-2.3-1.8-4.8-1.8-7.5h0ZM757.8,726.6c0-2.2-.6-3.9-1.9-5.2-1.3-1.3-2.9-2-4.8-2s-3.7.6-5.2,1.8c-1.5,1.2-2.7,3-3.5,5.3-.8,2.3-1.3,4.5-1.3,6.4s.6,4.4,2,5.8c1.3,1.4,3,2.1,4.9,2.1s4.6-1.1,6.3-3.2c2.4-3,3.6-6.8,3.6-11.1h0ZM770.1,747.1l9.7-46.5h9.1l-9.7,46.5h-9.1ZM795.6,713.4h9.1l-4.5,20c-.5,2.4-.8,3.9-.8,4.5,0,1,.3,1.8,1,2.5.6.7,1.5,1.1,2.5,1.1s1.4-.2,2.2-.5c.7-.3,1.4-.8,2.2-1.4.7-.6,1.4-1.4,2-2.2.6-.8,1.1-1.9,1.7-3.3.4-1,.8-2.5,1.2-4.5l3.6-16.1h9.1l-7.6,33.7h-8.5l.9-4.3c-3.4,3.5-7.1,5.2-11.2,5.2s-4.6-.8-6-2.4c-1.5-1.6-2.2-3.7-2.2-6.4s.4-3.5,1.2-7l4.2-18.8h0ZM830.2,720.2l1.4-6.8h4.5l1.1-5.3,10.3-6.3-2.4,11.6h5.5l-1.4,6.8h-5.5l-3,14.2c-.5,2.6-.8,4-.8,4.4,0,.7.2,1.2.7,1.6.4.4,1.2.6,2.4.6s1.4,0,3-.2l-1.4,6.7c-1.6.3-3.2.5-4.8.5-3.2,0-5.5-.6-7-1.9-1.5-1.2-2.2-3-2.2-5.2s.4-3.4,1.2-7.1l2.9-13.6h-4.5ZM859.2,700.6h9.1l-1.7,8.2h-9.1l1.7-8.2h0ZM856.6,713.4l-7.1,33.7h9.1l7.1-33.7h-9.1ZM868.9,733.1c0-6.3,1.8-11.3,5.3-15,3.5-3.7,8.1-5.6,13.9-5.6s8.8,1.4,11.6,4.1c2.8,2.7,4.2,6.4,4.2,11.1s-1.7,10.2-5.2,14.2c-3.5,4-8.1,6-14,6s-6-.6-8.4-1.9c-2.4-1.3-4.3-3.1-5.5-5.4-1.2-2.3-1.8-4.8-1.8-7.5h0ZM894.8,726.6c0-2.2-.6-3.9-1.9-5.2-1.3-1.3-2.9-2-4.8-2s-3.7.6-5.2,1.8c-1.5,1.2-2.7,3-3.5,5.3-.8,2.3-1.3,4.5-1.3,6.4s.7,4.4,2,5.8c1.3,1.4,3,2.1,4.9,2.1s4.6-1.1,6.3-3.2c2.4-3,3.6-6.8,3.6-11.1h0ZM914.4,713.4h8.7l-.9,4.4c2.2-1.9,4.2-3.2,6.1-4.1,1.9-.8,3.9-1.2,6-1.2s5,.8,6.6,2.4c1.6,1.6,2.4,3.7,2.4,6.4,0,1.2-.4,3.4-1.2,6.7l-4.1,19h-9.1l4.1-19.1c.6-2.9.9-4.6.9-5.1,0-1.2-.3-2.1-1-2.8-.7-.7-1.7-1-2.9-1s-2.8.6-4.5,1.7c-1.6,1.1-2.9,2.6-3.9,4.5-.7,1.3-1.5,4-2.4,8.1l-2.9,13.8h-9.1l7.1-33.7h0ZM945.7,737.7l8.8-1.4c.8,1.9,1.8,3.2,2.9,4,1.2.8,2.7,1.2,4.7,1.2s3.7-.5,5-1.4c.9-.6,1.3-1.4,1.3-2.3s-.2-1.2-.7-1.7c-.5-.5-1.7-1-3.8-1.7-5.5-1.8-8.9-3.3-10.2-4.3-2-1.6-3.1-3.8-3.1-6.5s1-5,3-6.9c2.8-2.7,6.9-4,12.3-4s7.6.8,9.8,2.4c2.2,1.6,3.6,3.7,4.2,6.5l-8.4,1.5c-.4-1.2-1.2-2.2-2.1-2.8-1.4-.8-3-1.2-4.9-1.2s-3.3.3-4.1,1c-.8.6-1.2,1.4-1.2,2.2s.4,1.5,1.3,2.1c.5.3,2.2.9,5.1,1.8,4.4,1.3,7.4,2.6,8.9,3.8,2.1,1.8,3.2,3.9,3.2,6.4s-1.3,6-4,8.3c-2.7,2.3-6.4,3.5-11.3,3.5s-8.6-.9-11.3-2.7c-2.7-1.8-4.4-4.3-5.4-7.5Z"/>
        </g>
        <g>
          <path d="M933.3,467.9c1,0,2,0,3,0,.1,0,.2,0,.4,0,2,0,4,.4,5.9.9,10,2.6,17.4,8.4,22,17.7,1.8,3.5,2.9,7.2,3.3,11.1,0,.7.1,1.4.2,2.1v3c0,.1,0,.3,0,.4,0,1.9-.3,3.7-.8,5.5-2.6,10.2-8.4,17.7-17.8,22.4-3.5,1.7-7.2,2.8-11.1,3.2-.7,0-1.4.1-2.1.2h-3c-.1,0-.2,0-.4,0-1-.1-2-.2-3-.3-3.9-.6-7.6-1.9-11.1-3.8-6.2-3.4-10.8-8.2-13.9-14.5-1.7-3.5-2.8-7.2-3.2-11.1,0-.7-.1-1.4-.2-2.1,0-1,0-2,0-3,0-.1,0-.2,0-.4.2-1.4.2-2.8.5-4.2,1.1-5.7,3.5-10.8,7.2-15.3,3.2-3.9,7.3-6.9,11.9-9,3.2-1.5,6.6-2.4,10.1-2.8.7,0,1.4-.1,2.1-.2ZM907.5,501.1c0,15.3,12.4,27.3,27.3,27.3,15.1,0,27.4-12.2,27.4-27.3,0-15.3-12.4-27.3-27.3-27.3-15.1,0-27.4,12.3-27.4,27.3Z"/>
          <path d="M941.8,504c0,.1.1.2.2.4,2.5,4.6,5.1,9.2,7.6,13.9.3.5.4,1,0,1.5-.2.3-.5.5-.9.5-1.9,0-3.9,0-5.8,0-.5,0-.7-.3-1-.7-1.8-3.4-3.6-6.8-5.4-10.2-.6-1-1.1-2.1-1.7-3.1,0-.1-.2-.2-.3-.2-1.8,0-3.6,0-5.4,0,0,0,0,0-.1,0,0,.1,0,.3,0,.4,0,4.1,0,8.2,0,12.4,0,.7-.3,1.2-.9,1.3-.1,0-.3,0-.4,0-1.6,0-3.2,0-4.8,0-.8,0-1.3-.4-1.3-1.3,0-.1,0-.3,0-.4,0-11.5,0-23.1,0-34.6,0-.2,0-.3,0-.5,0-.8.5-1.2,1.3-1.2,3.9,0,7.8,0,11.7,0,1.9,0,3.8.1,5.6.7,3.3,1,5.4,3.2,6.6,6.4,1.4,3.9,1.1,7.7-1.1,11.3-.9,1.4-2.1,2.6-3.7,3.4,0,0-.2,0-.3.1ZM929.1,499.2c.1,0,.3,0,.4,0,1.8,0,3.7,0,5.5,0,.4,0,.8,0,1.3,0,1.9-.3,3.2-1.3,3.7-3.2.3-1.2.4-2.4,0-3.7-.4-1.7-1.4-2.8-3.2-3.2-.6-.1-1.3-.2-1.9-.2-1.9,0-3.7,0-5.6,0,0,0-.2,0-.2,0v10.4Z"/>
        </g>
      </g>
    </g>
  </g>
</svg>